<svg width="744" height="741" viewBox="0 0 744 741" fill="none" xmlns="http://www.w3.org/2000/svg">
<path d="M16.9961 166.63V157.63H18.0859V166.63H16.9961ZM14.0781 163.97V157.63H15.168V163.97H14.0781ZM15.25 165.652C15.25 165.828 15.1973 165.976 15.0918 166.097C14.9824 166.218 14.8223 166.279 14.6113 166.279C14.4043 166.279 14.2461 166.218 14.1367 166.097C14.0234 165.976 13.9668 165.828 13.9668 165.652C13.9668 165.484 14.0234 165.339 14.1367 165.218C14.2461 165.101 14.4043 165.042 14.6113 165.042C14.8223 165.042 14.9824 165.101 15.0918 165.218C15.1973 165.339 15.25 165.484 15.25 165.652ZM11.248 166.63V157.63H12.3379V166.63H11.248ZM7.375 163.97L10.1406 161.011L11.6875 159.406L11.7754 160.56L10.668 161.884L8.69922 163.97H7.375ZM8.36523 157.63L10.627 160.654L10.0645 161.621L7.08789 157.63H8.36523ZM3.74219 157.513C4.18359 157.513 4.58398 157.587 4.94336 157.736C5.29883 157.888 5.60547 158.101 5.86328 158.375C6.11719 158.648 6.3125 158.972 6.44922 159.347C6.58594 159.722 6.6543 160.132 6.6543 160.578V160.824C6.6543 161.339 6.57812 161.798 6.42578 162.201C6.27344 162.607 6.06641 162.951 5.80469 163.232C5.54297 163.513 5.24609 163.726 4.91406 163.871C4.58203 164.015 4.23828 164.087 3.88281 164.087C3.42969 164.087 3.03906 164.009 2.71094 163.853C2.37891 163.697 2.10742 163.478 1.89648 163.197C1.68555 162.919 1.5293 162.591 1.42773 162.212C1.32617 161.837 1.27539 161.427 1.27539 160.982V160.496H6.00977V161.38H2.35938V161.462C2.375 161.744 2.43359 162.017 2.53516 162.283C2.63281 162.548 2.78906 162.767 3.00391 162.939C3.21875 163.111 3.51172 163.197 3.88281 163.197C4.12891 163.197 4.35547 163.144 4.5625 163.039C4.76953 162.937 4.94727 162.785 5.0957 162.582C5.24414 162.378 5.35938 162.13 5.44141 161.837C5.52344 161.544 5.56445 161.207 5.56445 160.824V160.578C5.56445 160.277 5.52344 159.994 5.44141 159.728C5.35547 159.466 5.23242 159.236 5.07227 159.037C4.9082 158.837 4.71094 158.681 4.48047 158.568C4.24609 158.455 3.98047 158.398 3.68359 158.398C3.30078 158.398 2.97656 158.476 2.71094 158.632C2.44531 158.789 2.21289 158.998 2.01367 159.259L1.35742 158.738C1.49414 158.531 1.66797 158.333 1.87891 158.146C2.08984 157.958 2.34961 157.806 2.6582 157.689C2.96289 157.572 3.32422 157.513 3.74219 157.513Z" fill="black"/>
<path d="M459.649 105.3C459.649 105.3 491.889 61.4607 489.029 23.2007C486.169 -15.0593 325.399 11.7407 339.809 46.2007C354.219 80.6607 387.109 121.121 387.109 121.121L459.649 105.3Z" fill="#FFCB89"/>
<path d="M442.59 0.000488281C455.59 0.000488281 467.31 1.42006 476.14 4.56006C489.68 9.38006 493.02 17.1706 493.45 22.8706C496.39 62.3106 464.57 106.081 463.21 107.871L462.21 109.22L385.38 125.96L383.66 123.84C382.3 122.17 350.2 82.4703 335.66 47.8403C333.78 43.3503 333.06 36.4 340.29 28.77C356.16 12.17 404.57 0.000488281 442.59 0.000488281ZM457.03 101.34C462.23 93.8203 487.03 56.0808 484.62 23.5308C484.29 19.0608 480.43 15.4809 473.17 12.9009C442.17 1.90088 365.41 15.2409 346.79 34.9009C342.5 39.4309 343.09 42.5302 343.9 44.4702C356.04 73.4702 382.01 107.471 388.9 116.191L457.03 101.34Z" fill="#1D1E1B"/>
<path d="M712.01 353.611C736.48 342.021 739.8 323.61 738.91 298.84C737.67 264.62 722.91 255.361 699.73 233.151C715.95 211.741 703.57 161.15 687.63 141.97C672.34 123.56 642.96 113.02 620.9 106.8C566.22 91.3703 519.9 101.481 457.99 108.241C404.35 114.101 340.991 133.141 301.201 177.491C297.323 181.874 294.072 186.774 291.54 192.05C286.344 184.524 279.617 178.179 271.801 173.43C271.501 172.93 272.701 173.29 272.301 172.93C252.441 156.08 230.74 160.41 211.36 174.56C180.44 197.13 158.691 235.391 153.961 272.361C146.531 330.361 147.85 428.751 200.78 469.361C218.71 483.121 251.84 485.491 272.78 473.751C280.92 495.671 298.991 511.911 318.301 523.651C359.791 548.871 432.771 560.551 428.941 623.411C427.821 641.781 423.06 659.08 434.14 677.55C443.9 693.83 457.37 698.061 475.54 696.611C514.34 693.501 543.1 658.89 555.87 624.88C579.98 560.63 567.09 473.69 559.37 461.35C561.43 462.56 631.851 488.581 678.811 470.481C699.501 462.481 720.301 430.481 724.811 406.751C728.161 389.291 724.22 365.531 712.01 353.611Z" fill="#FFCB89"/>
<path d="M559.78 94.291C580.837 94.1074 601.816 96.8846 622.1 102.541C655.97 112.101 678.52 124.071 691.04 139.151C707.5 158.971 719.72 207.891 705.46 232.491C707.27 234.201 709.03 235.841 710.72 237.421C729.72 255.081 742.18 266.751 743.33 298.681C744.25 324.081 740.33 342.621 719.03 354.941C729.63 369.081 732.32 391.261 729.21 407.571C724.52 432.181 703.34 465.771 680.44 474.571C642.44 489.211 588.97 475.991 566.98 468.821C574.98 497.341 580.9 570.821 560.05 626.391C547.93 658.661 518.64 697.561 475.94 700.981C454.29 702.731 440.21 696.181 430.38 679.791C420.65 663.571 422.19 648.181 423.67 633.301C424.01 629.961 424.35 626.511 424.56 623.101C427.27 578.651 388.48 561.361 350.97 544.641C338.34 539.011 326.41 533.701 316.04 527.401C293.87 513.921 278.58 497.921 270.53 479.801C248.33 489.641 216.34 486.801 198.09 472.801C148.23 434.551 140.34 343.801 149.56 271.731C154.56 232.531 177.26 193.901 208.75 170.911C232.75 153.431 255.67 152.911 275.16 169.491L277.47 171.491L277.4 171.731C282.423 175.194 286.963 179.309 290.9 183.971C292.936 180.608 295.279 177.441 297.9 174.511C343.99 123.131 417.68 108.16 457.49 103.81C467.7 102.7 477.49 101.491 486.98 100.321C512.5 97.2012 536.16 94.291 559.78 94.291ZM639.61 472.471C652.61 472.471 665.69 470.801 677.26 466.341C696.56 458.891 716.36 427.751 720.51 405.921C723.51 390.461 720.4 367.991 708.92 356.781L704.36 352.341L710.11 349.611C731.76 339.361 735.38 323.911 734.48 299.001C733.48 270.731 723.24 261.191 704.69 243.901C702.14 241.521 699.46 239.031 696.69 236.341L693.85 233.611L696.23 230.471C710.79 211.271 699.38 163.021 684.23 144.801C672.9 131.151 651.79 120.12 619.71 111.06C574.94 98.4305 536.61 103.151 488.08 109.141C478.58 110.311 468.75 111.521 458.48 112.641C419.91 116.851 348.64 131.261 304.48 180.451C300.872 184.533 297.844 189.092 295.48 194.001L292.2 200.681L287.9 194.611C283.061 187.592 276.794 181.673 269.51 177.241L268.51 176.661L267.3 174.661C251.62 162.661 233.63 163.771 213.91 178.181C184.77 199.451 162.91 236.651 158.29 272.961C149.37 342.651 156.54 429.961 203.42 465.881C220.13 478.711 251.53 480.591 270.6 469.881L275.11 467.351L276.91 472.201C283.63 490.291 298.32 506.331 320.58 519.861C330.47 525.861 342.15 531.071 354.51 536.591C392.9 553.691 436.42 573.091 433.34 623.671C433.12 627.241 432.76 630.781 432.42 634.211C431.02 648.281 429.7 661.561 437.91 675.261C446 688.751 456.8 693.651 475.17 692.181C513.73 689.101 540.5 653.181 551.7 623.311C575.55 559.791 562.6 474.891 555.59 463.691L546.02 448.411L561.58 457.52C561.96 457.66 600.8 472.471 639.61 472.471V472.471Z" fill="#1D1E1B"/>
<path d="M272.96 474.76C272.96 474.76 204.96 337.661 291.96 192.241Z" fill="#FFCB89"/>
<path d="M288.16 190L295.75 194.55C211.07 336.08 276.29 471.471 276.96 472.821L269.03 476.76C268.3 475.34 200.88 335.77 288.16 190Z" fill="#1D1E1B"/>
<path d="M531.16 469.09C533.087 469.094 534.96 469.724 536.497 470.886C538.034 472.048 539.151 473.678 539.68 475.53C559.5 545.43 543.98 594.71 527.48 623.75C509.48 655.49 486.59 670.42 485.63 671.04C483.658 672.315 481.261 672.753 478.966 672.26C476.67 671.767 474.665 670.382 473.39 668.41C472.116 666.438 471.677 664.041 472.17 661.745C472.664 659.45 474.048 657.444 476.02 656.17V656.17C479.35 654 557.02 601.7 522.64 480.36C522.268 479.043 522.206 477.658 522.459 476.313C522.712 474.967 523.273 473.699 524.099 472.608C524.924 471.516 525.991 470.63 527.217 470.02C528.442 469.409 529.792 469.091 531.16 469.09V469.09Z" fill="white"/>
<path d="M219.8 190.901C221.589 190.904 223.334 191.455 224.8 192.481C226.73 193.818 228.049 195.867 228.469 198.177C228.889 200.487 228.375 202.869 227.04 204.8C154.18 309.93 204.96 400.09 207.16 403.88C208.344 405.908 208.674 408.323 208.078 410.594C207.482 412.865 206.008 414.806 203.98 415.99C201.952 417.175 199.538 417.505 197.266 416.908C194.995 416.312 193.054 414.837 191.87 412.81C191.25 411.81 176.65 386.47 171.87 346.87C167.51 310.47 171.01 254.53 212.45 194.71C213.272 193.524 214.371 192.557 215.652 191.893C216.933 191.229 218.357 190.888 219.8 190.901V190.901Z" fill="white"/>
<path d="M433.54 24.3499C456.99 24.3499 472.45 29.0799 473.54 29.4299C475.78 30.1354 477.648 31.7018 478.733 33.7844C479.818 35.867 480.031 38.2957 479.325 40.5354C478.62 42.7752 477.054 44.6429 474.971 45.7278C472.888 46.8127 470.46 47.026 468.22 46.3206C467.76 46.1806 424.83 33.3198 374.1 53.5598C371.92 54.4324 369.483 54.4033 367.324 53.4788C365.166 52.5542 363.463 50.8102 362.59 48.6301C361.718 46.4501 361.747 44.0123 362.672 41.8538C363.596 39.6952 365.34 37.9929 367.52 37.1204C388.513 28.6977 410.921 24.3628 433.54 24.3499Z" fill="white"/>
<path d="M427.69 108.711C413.447 122.125 397.671 133.812 380.69 143.531C376.41 145.971 372.077 148.288 367.69 150.481C365.577 151.535 363.453 152.551 361.32 153.531C359.24 154.531 357.32 155.391 355.58 156.051C348.51 158.801 341.49 160.631 334.05 159.691C334.89 159.801 333.42 159.581 333.41 159.571C333.04 159.501 332.67 159.431 332.3 159.341C331.509 159.147 330.728 158.913 329.96 158.64C328.64 158.18 330.66 159.011 329.4 158.421C329 158.241 328.62 158.041 328.24 157.831C327.86 157.621 327.74 157.541 327.49 157.381C327.24 157.221 326.08 156.381 326.63 156.801C325.364 155.852 324.309 154.652 323.531 153.275C322.753 151.898 322.269 150.374 322.11 148.801C322.22 149.611 322.11 148.081 322.11 148.091C322.11 147.781 322.11 147.461 322.11 147.091C322.112 146.37 322.176 145.651 322.3 144.941C322.619 143.206 323.177 141.523 323.96 139.941C325.52 136.814 327.766 134.079 330.53 131.941C337.82 126.531 347.6 125.84 356.36 125.81C367.03 125.81 377.7 126.301 388.36 126.261C410.36 126.194 432.303 125.121 454.19 123.041C465.403 121.974 476.587 120.641 487.74 119.041C497.74 117.641 507.81 116.251 517.66 114.041C533.95 110.321 551.47 102.401 556.94 85.2606C561.48 71.0506 556.23 52.5106 539.94 49.2606C530.04 47.3206 520.35 51.451 512.13 56.661C503.07 62.391 494.72 69.3711 486.13 75.8211L432.27 116.431L419.03 126.431C417.12 127.871 416.13 130.261 417.44 132.491C418.54 134.371 421.58 135.491 423.5 134.081L477.65 93.2508L504.72 72.8309C512.3 67.1209 520.18 60.6611 529.56 58.2811C533.317 57.1783 537.336 57.3719 540.97 58.8309C541.753 59.1897 542.505 59.6108 543.22 60.0907C543.22 60.0907 544.37 60.9307 543.68 60.3807C543.95 60.5907 544.2 60.8206 544.46 61.0506C545.014 61.5641 545.538 62.1082 546.03 62.6805C546.89 63.6805 545.58 61.9911 546.33 63.0711C546.57 63.4111 546.8 63.7511 547.01 64.0711C547.442 64.7729 547.829 65.5007 548.17 66.2508C548.73 67.4708 547.9 65.4613 548.36 66.7313C548.47 67.0613 548.59 67.3913 548.69 67.7313C548.929 68.4705 549.129 69.2215 549.29 69.9813C549.38 70.4013 549.45 70.8308 549.53 71.2508C549.71 72.2508 549.53 70.8211 549.59 71.7811C549.728 73.4443 549.748 75.1151 549.65 76.7811C549.557 78.244 549.306 79.6919 548.9 81.1004C548.166 84.2156 546.805 87.1487 544.9 89.7206C544.518 90.2429 544.107 90.7436 543.67 91.2206C542.98 91.9906 542.24 92.7205 541.49 93.4305C540.063 94.7606 538.524 95.9656 536.89 97.0311C529.69 101.741 521.39 104.141 513.02 105.901C502.95 108.031 492.69 109.451 482.5 110.841C471.64 112.321 460.753 113.538 449.84 114.491C427.713 116.451 405.523 117.394 383.27 117.321C372.82 117.321 362.27 116.521 351.86 116.961C342.15 117.371 332.08 119.291 324.33 125.511C317.94 130.621 313.33 138.671 313.22 146.951C313.181 150.961 314.302 154.897 316.449 158.284C318.596 161.671 321.677 164.365 325.32 166.041C332.7 169.371 341.07 168.941 348.81 167.191C357.41 165.251 365.47 161.281 373.3 157.341C391.073 148.386 407.745 137.396 422.98 124.591C426.76 121.417 430.427 118.141 433.98 114.761C438.14 110.851 431.87 104.601 427.72 108.501L427.69 108.711Z" fill="black"/>
<path d="M408.16 103.691C375.573 97.9159 345.855 81.4025 323.74 56.7812C317.601 49.9452 312.148 42.5228 307.46 34.6211C304.54 29.7311 296.89 34.1808 299.81 39.0908C317.64 69.0208 345.75 92.1513 378.21 104.611C387.141 108.04 396.385 110.592 405.81 112.231C406.941 112.51 408.136 112.345 409.149 111.77C410.163 111.196 410.918 110.254 411.26 109.141C411.84 107.001 410.53 104.141 408.16 103.691Z" fill="black"/>
<path d="M629.26 326.67C681.35 326.67 714.63 349.57 716.05 350.56C717.013 351.233 717.668 352.262 717.873 353.419C718.077 354.576 717.814 355.768 717.14 356.731C716.466 357.693 715.438 358.349 714.281 358.553C713.124 358.757 711.933 358.494 710.97 357.821C710.64 357.591 677.09 334.55 626.04 335.56C624.865 335.581 623.73 335.135 622.884 334.32C622.038 333.504 621.551 332.385 621.53 331.21C621.509 330.035 621.955 328.9 622.771 328.054C623.587 327.208 624.705 326.722 625.88 326.7L629.26 326.67Z" fill="black"/>
<path d="M638.45 209.001C673.17 209.001 705.22 228.711 706.85 229.731C707.366 230.028 707.817 230.425 708.176 230.9C708.535 231.375 708.794 231.917 708.939 232.495C709.083 233.072 709.11 233.673 709.017 234.261C708.924 234.849 708.714 235.413 708.399 235.918C708.083 236.423 707.67 236.858 707.182 237.2C706.694 237.541 706.143 237.78 705.56 237.904C704.978 238.027 704.377 238.033 703.793 237.919C703.208 237.805 702.653 237.574 702.16 237.241C701.71 236.961 656.78 209.35 618.64 220.56C618.082 220.724 617.497 220.777 616.918 220.715C616.34 220.654 615.779 220.478 615.269 220.2C614.758 219.921 614.307 219.544 613.942 219.091C613.576 218.639 613.304 218.118 613.14 217.56C612.976 217.002 612.923 216.418 612.985 215.839C613.047 215.261 613.222 214.7 613.501 214.189C613.779 213.678 614.156 213.228 614.609 212.863C615.061 212.498 615.582 212.224 616.14 212.06C623.393 209.984 630.906 208.954 638.45 209.001V209.001Z" fill="black"/>
<path d="M688.16 362C689.391 361.999 690.608 362.254 691.734 362.75C692.86 363.246 693.87 363.971 694.7 364.88C705.15 376.32 709.63 389.031 708.01 402.651C704.41 432.961 670.82 455.95 669.39 456.91C668.427 457.561 667.345 458.016 666.206 458.248C665.067 458.481 663.893 458.487 662.752 458.266C661.611 458.045 660.524 457.601 659.555 456.96C658.585 456.319 657.751 455.494 657.1 454.53C656.449 453.567 655.995 452.485 655.762 451.346C655.53 450.207 655.524 449.033 655.745 447.892C655.966 446.751 656.409 445.664 657.05 444.695C657.691 443.725 658.517 442.891 659.48 442.24V442.24C659.76 442.05 687.82 422.76 690.48 400.52C691.48 392.14 688.58 384.39 681.67 376.83C680.516 375.565 679.753 373.992 679.475 372.302C679.196 370.612 679.413 368.877 680.1 367.308C680.786 365.739 681.913 364.402 683.344 363.46C684.774 362.518 686.447 362.011 688.16 362V362Z" fill="white"/>
<path d="M699.01 250.231C700.382 250.23 701.735 250.548 702.962 251.161C704.189 251.773 705.257 252.663 706.08 253.76C732.86 289.29 720.86 320.84 710.77 332.56C709.219 334.257 707.069 335.284 704.775 335.425C702.48 335.566 700.221 334.81 698.473 333.316C696.726 331.822 695.628 329.707 695.411 327.418C695.194 325.13 695.875 322.846 697.31 321.05C698.22 319.96 716.52 297.05 691.94 264.42C690.95 263.105 690.346 261.54 690.195 259.901C690.044 258.261 690.353 256.613 691.088 255.139C691.822 253.666 692.952 252.426 694.351 251.559C695.751 250.692 697.364 250.232 699.01 250.231V250.231Z" fill="white"/>
<path d="M654.691 132.201C656.608 132.198 658.473 132.823 660.001 133.981C683.511 151.641 695.201 168.161 694.731 183.081C694.647 186.955 693.664 190.757 691.859 194.186C690.054 197.615 687.477 200.578 684.331 202.84L674.601 188.041L674.391 188.18C675.257 187.446 675.944 186.524 676.402 185.485C676.859 184.445 677.074 183.315 677.031 182.18C677.031 178.18 674.331 166.86 649.371 148.1C647.884 146.985 646.786 145.431 646.232 143.657C645.679 141.883 645.698 139.98 646.286 138.217C646.875 136.455 648.004 134.922 649.512 133.836C651.02 132.751 652.832 132.168 654.691 132.17V132.201Z" fill="white"/>
<path d="M604.97 546.111C606.113 546.112 607.21 546.555 608.034 547.347C608.858 548.139 609.343 549.219 609.39 550.361C612.88 639.001 581.02 686.08 553.68 709.96C523.87 735.96 493.52 740.76 492.24 740.96C491.096 741.095 489.945 740.779 489.03 740.079C488.116 739.379 487.51 738.351 487.341 737.211C487.172 736.072 487.453 734.911 488.125 733.976C488.797 733.041 489.806 732.404 490.94 732.201C491.42 732.131 520.44 727.431 548.21 702.991C585.09 670.541 603.21 617.88 600.54 550.72C600.494 549.547 600.916 548.403 601.713 547.54C602.51 546.678 603.616 546.167 604.79 546.121L604.97 546.111Z" fill="#1D1D1B"/>
<path d="M230.63 509.451C210.37 513.861 189.02 505.38 173.82 491.84C157.18 477.03 146.75 456.55 138.9 436.02C130.185 413.127 123.653 389.462 119.39 365.34C115.14 341.355 113.111 317.029 113.33 292.67C113.506 268.201 115.994 243.802 120.76 219.8C121.354 216.82 121.98 213.85 122.64 210.89C122.927 209.759 122.765 208.561 122.189 207.545C121.614 206.53 120.668 205.776 119.55 205.441C118.418 205.142 117.214 205.297 116.196 205.875C115.177 206.452 114.425 207.406 114.1 208.531C108.556 233.411 105.386 258.761 104.63 284.241C103.913 309.721 105.587 335.213 109.63 360.38C113.583 385.262 119.912 409.707 128.53 433.38C136.58 455.48 146.88 477.49 163.68 494.38C179.32 510.12 201.76 521.131 224.35 519.251C227.256 519.011 230.142 518.58 232.99 517.961C234.098 517.627 235.031 516.874 235.59 515.862C236.149 514.85 236.291 513.659 235.984 512.544C235.677 511.429 234.946 510.478 233.948 509.894C232.949 509.311 231.762 509.141 230.64 509.42L230.63 509.451Z" fill="#1D1D1B"/>
</svg>
