<svg width="112" height="114" viewBox="0 0 112 114" fill="none" xmlns="http://www.w3.org/2000/svg">
<path d="M105.36 48.3289C109.86 46.1289 110.44 42.7287 110.22 38.1487C109.93 31.8287 107.22 30.1489 102.85 26.0789C105.85 22.0789 103.42 12.7686 100.43 9.25856C97.4401 5.74856 92.1197 3.98893 88.0297 2.88893C77.8897 0.14893 69.3404 2.10877 57.9204 3.47877C48.0104 4.66877 36.3405 8.31889 29.0805 16.5989C28.3676 17.4137 27.7742 18.3262 27.3198 19.3089C26.3442 17.9245 25.0872 16.7622 23.6303 15.8987C23.5803 15.8087 23.8002 15.8989 23.7202 15.8089C20.0202 12.7389 16.0204 13.5788 12.4604 16.2288C6.72895 20.6878 2.98798 27.2281 2.05024 34.429C0.790241 45.159 1.23024 63.3485 11.0502 70.7385C14.3902 73.2485 20.5206 73.619 24.3706 71.409C25.9206 75.409 29.2901 78.4088 32.8901 80.5388C40.6101 85.1188 54.1205 87.1286 53.5405 98.7586C53.3705 102.159 52.5398 105.369 54.6098 108.759C56.4498 111.759 58.9402 112.499 62.3002 112.199C69.4602 111.539 74.7104 105.089 77.0004 98.7786C81.3304 86.8486 78.7698 70.7788 77.3198 68.5388C77.7098 68.7588 90.7704 73.4285 99.4204 69.9885C103.23 68.4785 107.01 62.5189 107.79 58.1189C108.42 54.8889 107.64 50.4989 105.36 48.3289Z" fill="#FFCB89"/>
<path d="M61.0096 113.759C59.4638 113.848 57.9247 113.499 56.5682 112.753C55.2116 112.006 54.0925 110.893 53.3397 109.54C51.3397 106.37 51.65 103.41 51.91 100.54C51.91 99.9197 52.0196 99.2998 52.0496 98.6798C52.4396 90.9298 45.77 88.0397 38.7 84.9797C36.4462 84.0646 34.2516 83.009 32.1297 81.8195C28.5568 79.8815 25.6112 76.9642 23.6395 73.4098C19.3595 75.0998 13.64 74.5398 10.16 71.9298C0.639965 64.7898 -1.06066 47.7794 0.519341 34.2394C1.00031 30.4702 2.21979 26.8327 4.10723 23.5348C5.99467 20.237 8.51306 17.3436 11.5193 15.0197C16.1193 11.5797 20.7797 11.4496 24.6297 14.6496L25.4197 15.2995C25.9964 15.7219 26.5383 16.1905 27.0398 16.6999C27.3041 16.3162 27.5907 15.9488 27.8992 15.5998C36.4692 5.83977 50.2393 2.87965 57.6893 1.97965C59.5693 1.75965 61.3799 1.50946 63.1199 1.27946C71.9699 0.089457 79.6199 -0.940152 88.3699 1.42985C94.7899 3.16985 99.0893 5.42946 101.519 8.27946C104.699 12.0195 107.06 20.7997 104.7 25.7897L105.3 26.3395C108.83 29.5595 111.38 31.8895 111.67 38.0695C111.85 41.7995 111.669 45.9394 107.569 48.7394C109.247 51.6548 109.848 55.0663 109.269 58.3796C108.419 63.1096 104.39 69.6196 99.9695 71.3796C93.1795 74.0896 84.28 72.1998 79.66 70.8698C81.07 76.9198 81.94 89.5697 78.41 99.2897C76.17 105.47 70.64 112.94 62.41 113.69C61.9447 113.736 61.4771 113.759 61.0096 113.759ZM25.16 69.2394L25.7791 70.8698C27.0091 74.0598 29.66 76.8697 33.66 79.2497C35.6758 80.3713 37.7556 81.3731 39.8895 82.2497C47.2295 85.4197 55.5396 89.0198 55.0496 98.8498C55.0496 99.5098 54.9492 100.17 54.8992 100.85C54.6692 103.45 54.4692 105.689 55.8992 108.009C57.3292 110.329 59.0297 111.009 62.1697 110.739C68.9797 110.119 73.6594 103.66 75.5994 98.3097C79.7294 86.9397 77.3091 71.3098 76.0691 69.3898L72.7791 64.2594L78.0096 67.2594C79.6996 67.9694 91.4299 71.6096 98.8699 68.6496C102.22 67.3096 105.63 61.7798 106.33 57.9098C106.82 55.1798 106.19 51.2796 104.33 49.4596L102.769 47.9694L104.71 47.0295C108.37 45.2395 108.93 42.6797 108.71 38.2697C108.47 33.3297 106.709 31.7498 103.309 28.6198L101.8 27.2297L100.8 26.3097L101.59 25.2394C104.03 21.9494 101.87 13.3794 99.24 10.2394C97.24 7.84942 93.3997 5.91977 87.5897 4.34977C79.4097 2.12977 72.3993 3.07969 63.5193 4.26969C61.7593 4.50969 59.9398 4.74965 58.0398 4.97965C51.0398 5.81965 38.0392 8.58977 30.1492 17.5998C29.5318 18.3113 29.0175 19.1055 28.6199 19.9596L27.5291 22.2394L26.0496 20.2394C25.1987 19.0246 24.1018 18.0024 22.8299 17.2394L22.4998 17.0495L22.2498 16.6398C19.6298 14.7398 16.6094 15.0097 13.3094 17.4797C7.91651 21.6941 4.39157 27.8551 3.49004 34.6398C2.00004 47.3498 3.44 63.2098 11.95 69.5798C14.88 71.7798 20.3297 72.0396 23.6297 70.1496L25.16 69.2394Z" fill="#1D1E1B"/>
</svg>
