<svg width="800" height="800" viewBox="0 0 800 800" fill="none" xmlns="http://www.w3.org/2000/svg">
<g clip-path="url(#clip0_62_98)">
<path d="M737.141 800.573H77.5113C77.0546 800.573 76.6166 800.392 76.2936 800.069C75.9706 799.746 75.7891 799.308 75.7891 798.851C75.7891 798.394 75.9706 797.956 76.2936 797.633C76.6166 797.31 77.0546 797.129 77.5113 797.129H737.141C737.598 797.129 738.036 797.31 738.359 797.633C738.682 797.956 738.863 798.394 738.863 798.851C738.863 799.308 738.682 799.746 738.359 800.069C738.036 800.392 737.598 800.573 737.141 800.573Z" fill="black"/>
<path d="M624.337 799.712H202.381C182.841 697.34 179.733 600.428 202.381 512.093H624.337C651.434 594.762 651.434 690.635 624.337 799.712Z" fill="#FFCB89"/>
<path d="M625.34 801.004H201.308L201.11 799.953C179.901 688.815 179.901 594.547 201.11 511.774L201.36 510.801H625.254L625.547 511.662C639.075 552.937 645.938 598.12 645.938 646C645.938 693.879 639.05 745.633 625.573 800.022L625.34 801.004ZM203.444 798.421H623.325C649.9 690.873 649.926 594.994 623.394 513.385H203.384C182.57 595.296 182.57 688.557 203.444 798.421Z" fill="#1D1E1B"/>
<path d="M91.7188 442.772C91.7188 442.772 174.465 466.022 202.521 509.079L255.765 490.134C255.765 490.134 246.413 449.661 173.742 410.91L91.7188 442.772Z" fill="#FFCB89"/>
<path d="M201.991 510.638L201.432 509.777C173.961 467.581 92.1877 444.236 91.361 444.003L87.6406 442.961L173.823 409.48L174.349 409.764C212.092 429.889 232.527 450.505 243.024 464.257C254.486 479.275 256.923 489.411 257.018 489.833L257.276 490.952L201.991 510.638ZM95.6751 442.608C111.864 447.68 177.957 470.216 203.033 507.512L254.176 489.316C252.015 482.633 237.815 446.681 173.652 412.322L95.6751 442.608Z" fill="#1D1E1B"/>
<path d="M735.414 442.772C735.414 442.772 652.667 466.022 624.611 509.079L571.367 490.134C571.367 490.134 580.719 449.661 653.39 410.91L735.414 442.772Z" fill="#FFCB89"/>
<path d="M625.137 510.638L569.852 490.961L570.11 489.841C570.204 489.419 572.641 479.284 584.103 464.265C594.6 450.487 615.035 429.898 652.779 409.773L653.304 409.489L739.487 442.97L735.766 444.012C734.905 444.244 653.166 467.632 625.696 509.785L625.137 510.638ZM572.951 489.325L624.095 507.52C649.171 470.225 715.263 447.689 731.452 442.616L653.476 412.33C589.339 446.647 575.113 482.634 572.951 489.325Z" fill="#1D1E1B"/>
<path d="M202.805 509.079L256.195 491.856H571.371L624.761 509.079H202.805Z" fill="#534E93"/>
<path d="M363.839 678.292C368.833 678.292 372.881 674.244 372.881 669.25C372.881 664.257 368.833 660.208 363.839 660.208C358.845 660.208 354.797 664.257 354.797 669.25C354.797 674.244 358.845 678.292 363.839 678.292Z" fill="white"/>
<path d="M411.198 678.292C416.192 678.292 420.24 674.244 420.24 669.25C420.24 664.257 416.192 660.208 411.198 660.208C406.204 660.208 402.156 664.257 402.156 669.25C402.156 674.244 406.204 678.292 411.198 678.292Z" fill="white"/>
<path d="M457.698 678.292C462.692 678.292 466.74 674.244 466.74 669.25C466.74 664.257 462.692 660.208 457.698 660.208C452.704 660.208 448.656 664.257 448.656 669.25C448.656 674.244 452.704 678.292 457.698 678.292Z" fill="white"/>
<path d="M599.785 779.045C599.034 779.045 598.295 778.867 597.626 778.525C596.958 778.183 596.38 777.688 595.941 777.079C595.502 776.47 595.214 775.765 595.101 775.023C594.988 774.281 595.053 773.522 595.29 772.81C620.349 697.633 619.031 637.388 613.503 600.084C607.561 559.921 595.721 537.359 595.609 537.143C595.297 536.593 595.098 535.987 595.024 535.359C594.951 534.731 595.004 534.095 595.18 533.488C595.356 532.881 595.651 532.316 596.049 531.825C596.448 531.334 596.94 530.927 597.498 530.629C598.055 530.331 598.666 530.148 599.296 530.091C599.925 530.033 600.56 530.102 601.162 530.293C601.765 530.485 602.322 530.794 602.803 531.205C603.284 531.615 603.678 532.118 603.961 532.683C604.478 533.656 616.689 556.923 622.906 598.697C628.572 637.018 629.951 698.856 604.306 775.807C603.989 776.754 603.381 777.576 602.569 778.158C601.758 778.739 600.783 779.05 599.785 779.045V779.045Z" fill="white"/>
<path d="M220.886 787.656C220.038 787.657 219.205 787.43 218.474 786.998C217.744 786.566 217.143 785.946 216.735 785.202C192.253 740.612 197.79 626.477 198.075 621.646C198.106 621.024 198.261 620.415 198.528 619.852C198.795 619.29 199.171 618.785 199.633 618.368C200.095 617.951 200.635 617.628 201.221 617.419C201.808 617.211 202.43 617.119 203.052 617.151C203.674 617.183 204.283 617.337 204.846 617.604C205.408 617.871 205.913 618.247 206.33 618.709C206.748 619.171 207.07 619.711 207.279 620.298C207.488 620.884 207.579 621.506 207.547 622.128C207.487 623.291 201.864 738.382 225.054 780.638C225.451 781.359 225.652 782.171 225.639 782.994C225.626 783.817 225.4 784.622 224.981 785.331C224.562 786.039 223.965 786.626 223.25 787.034C222.535 787.442 221.726 787.656 220.903 787.656H220.886Z" fill="white"/>
<path d="M366.463 230.183C366.463 230.183 338.649 244.064 332.992 221.89C327.334 199.716 315.683 152.138 281.143 157.839C246.603 163.539 242.719 169.809 230.628 148.366C218.538 126.924 130.943 129.602 147.098 196.779C173.578 306.884 371.114 296.266 371.114 296.266L375.747 270.777L366.463 230.183Z" fill="#7E74C1"/>
<path d="M357.497 297.791C339.104 297.791 304.538 296.585 268.8 289.041C238.049 282.557 212.413 272.731 192.598 259.823C167.712 243.616 151.996 222.493 145.873 197.046C142.334 182.329 143.445 169.671 149.18 159.423C154.028 150.812 162.243 143.974 172.939 139.781C195.001 131.109 224.701 135.105 231.788 147.694C241.158 164.34 244.705 163.626 264.512 159.639C269.188 158.7 274.492 157.632 280.968 156.564C316.275 150.76 328.331 198.002 334.074 220.719L334.29 221.58C335.564 226.583 338.147 230.011 341.971 231.759C351.486 236.116 365.79 229.106 365.928 229.037L367.4 228.306L377.105 270.717L377.054 270.983L372.239 297.48L371.223 297.532C371.025 297.532 365.98 297.791 357.497 297.791ZM198.308 137.706C189.949 137.672 181.656 139.19 173.851 142.183C160.693 147.35 139.888 161.275 148.353 196.435C161.865 252.641 221.55 276.434 269.248 286.492C316.946 296.551 362.69 295.267 370.001 294.983L374.392 270.759L365.532 232.008C361.416 233.791 349.661 238.131 340.834 234.092C336.261 232 333.196 228.004 331.715 222.2L331.499 221.339C325.902 199.371 314.277 153.654 281.321 159.096C274.889 160.155 269.61 161.214 264.96 162.153C245.154 166.157 239.78 167.234 229.481 148.952C225.735 142.278 212.947 137.706 198.308 137.706V137.706Z" fill="black"/>
<path d="M263.019 511.232C263.019 511.232 241.955 364.451 309.141 320.059C329.662 306.497 363.393 344.542 402.144 345.894C446.329 347.435 489.196 308.004 513.23 319.198C608.386 363.616 557.682 511.232 557.682 511.232H263.019Z" fill="#00D7AD"/>
<path d="M558.911 512.954H261.519L261.312 511.473C258.065 485.165 257.346 458.607 259.167 432.162C260.993 407.474 265.307 385.902 271.973 368.059C280.369 345.584 292.554 328.955 308.192 318.621C319.973 310.871 335.189 318.553 352.791 327.483C367.654 335.018 384.497 343.56 402.202 344.171C423.671 344.92 445.009 335.741 463.859 327.637C483.838 319.026 501.095 311.638 513.96 317.64C536.057 327.973 552.186 344.653 561.899 367.267C569.65 385.256 573.318 407.008 572.862 431.904C572.078 474.142 559.437 511.421 559.308 511.791L558.911 512.954ZM264.524 509.509H556.449C558.568 502.922 568.754 469.32 569.434 431.766C570.433 376.206 551.29 338.858 512.514 320.757C501.052 315.401 484.457 322.54 465.237 330.798C446.016 339.056 424.282 348.382 402.099 347.616C383.628 346.97 366.431 338.247 351.249 330.548C334.603 322.109 320.248 314.815 310.104 321.498C275.994 344.033 265.454 394.221 262.621 432.36C260.861 458.08 261.498 483.908 264.524 509.509V509.509Z" fill="#1D1D1B"/>
<path d="M381.045 341.889C381.045 341.889 362.961 346.324 375.878 360.102C388.795 373.88 406.879 361.824 406.879 361.824C406.879 361.824 426.685 373.019 440.463 361.824C454.241 350.63 437.019 340.072 437.019 340.072C437.019 340.072 422.379 351.224 381.045 341.889Z" fill="white"/>
<path d="M425.603 368.128C416.991 368.128 409.241 364.511 406.924 363.314C403.42 365.364 387.007 373.854 374.942 360.989C370.757 356.528 369.19 352.438 370.266 348.813C372.04 342.785 380.384 340.718 380.737 340.632L381.039 340.563L381.332 340.623C421.607 349.734 436.1 339.151 436.246 339.039L436.952 338.505L437.702 338.97C438.063 339.194 446.588 344.498 447.079 351.947C447.337 355.831 445.357 359.491 441.284 362.824C436.842 366.378 431.291 368.255 425.603 368.128V368.128ZM406.821 360.309L407.519 360.696C407.708 360.808 426.731 371.323 439.648 360.825C443.092 358.044 444.694 355.125 444.505 352.119C444.178 347.09 438.916 342.948 437.021 341.622C433.439 343.792 417.577 351.396 381.047 343.215C379.695 343.612 373.9 345.506 372.703 349.553C371.91 352.231 373.288 355.487 376.785 359.215C388.789 372.021 405.426 361.213 406.132 360.748L406.821 360.309Z" fill="#1D1D1B"/>
<path d="M391.825 310.587C391.825 310.587 395.269 337.282 385.797 349.338C385.797 349.338 404.742 363.977 427.993 349.338C427.993 349.338 413.353 319.198 417.659 310.587C421.965 301.976 391.825 310.587 391.825 310.587Z" fill="#FFCDB2"/>
<path d="M406.814 357.089C399.035 357.075 391.438 354.733 385.002 350.363L383.977 349.562L384.778 348.537C393.803 337.05 390.573 311.018 390.539 310.751L390.401 309.649L391.469 309.347C396.971 307.771 415.193 302.966 418.689 307.177C419.292 307.901 419.8 309.184 418.81 311.164C415.512 317.76 425.156 340.546 429.143 348.77L429.651 349.812L428.67 350.432C420.747 355.427 413.264 357.089 406.814 357.089ZM387.62 349.037C391.719 351.715 407.33 360.232 426.319 348.848C423.468 342.82 412.36 318.286 416.502 310.01C416.666 309.675 416.915 309.08 416.7 308.83C415.098 306.893 403.49 308.701 393.225 311.535C393.768 316.658 395.396 337.661 387.62 349.037V349.037Z" fill="#1D1D1B"/>
<path d="M359.951 160.827C359.569 160.828 359.197 160.701 358.895 160.467C358.593 160.234 358.376 159.905 358.28 159.535C352.528 136.973 374.927 126.502 375.159 126.399C375.365 126.305 375.588 126.254 375.814 126.246C376.04 126.239 376.267 126.277 376.478 126.357C376.69 126.437 376.884 126.558 377.049 126.713C377.215 126.868 377.347 127.053 377.441 127.26C377.534 127.466 377.586 127.689 377.593 127.915C377.6 128.142 377.563 128.367 377.483 128.579C377.403 128.791 377.282 128.985 377.127 129.15C376.972 129.315 376.786 129.448 376.579 129.542C375.718 129.929 356.585 138.954 361.622 158.683C361.678 158.902 361.689 159.13 361.657 159.354C361.624 159.578 361.547 159.794 361.431 159.988C361.315 160.182 361.162 160.352 360.981 160.487C360.799 160.622 360.593 160.72 360.373 160.775C360.236 160.813 360.094 160.83 359.951 160.827Z" fill="#1D1D1B"/>
<path d="M400.754 202.532C419.568 202.532 434.821 187.28 434.821 168.465C434.821 149.651 419.568 134.399 400.754 134.399C381.939 134.399 366.688 149.651 366.688 168.465C366.688 187.28 381.939 202.532 400.754 202.532Z" fill="#7E74C1"/>
<path d="M400.772 203.806H400.238C393.247 203.701 386.443 201.525 380.687 197.553C374.932 193.582 370.483 187.994 367.902 181.495C365.322 174.996 364.726 167.878 366.19 161.04C367.654 154.202 371.112 147.952 376.127 143.079C380.282 139.045 385.365 136.093 390.929 134.483C396.493 132.873 402.366 132.655 408.034 133.847C413.702 135.039 418.991 137.606 423.434 141.321C427.878 145.035 431.341 149.785 433.519 155.152C435.697 160.519 436.523 166.338 435.925 172.099C435.327 177.86 433.323 183.386 430.089 188.191C426.855 192.996 422.491 196.933 417.379 199.655C412.267 202.378 406.564 203.804 400.772 203.806ZM400.772 135.673C392.08 135.612 383.719 139.005 377.529 145.108C371.338 151.211 367.827 159.523 367.765 168.216C367.703 176.908 371.097 185.269 377.2 191.459C383.303 197.649 391.615 201.161 400.307 201.223H400.789C409.395 201.215 417.653 197.825 423.783 191.784C429.912 185.743 433.422 177.535 433.555 168.93C433.682 160.238 430.351 151.852 424.296 145.615C418.24 139.379 409.955 135.802 401.263 135.673H400.772Z" fill="#1D1E1B"/>
<path d="M434.625 182.898C421.045 157.925 382.629 162.712 372.812 173.477C348.408 200.223 324.916 187.1 320.283 216.069C317.966 230.613 330.823 236.357 324.589 262.983C321.359 276.71 344.395 298.117 365.458 298.427C386.521 298.737 458.366 300.572 464.403 285.166C470.439 269.76 494.137 244.176 475.218 214.475C456.075 184.448 440.506 193.731 434.625 182.898Z" fill="#7E74C1"/>
<path d="M386.329 299.926C380.301 299.926 374.221 299.857 368.305 299.762L365.42 299.719C350.634 299.504 336.202 289.532 329.046 280.361C324.147 274.074 322.106 267.797 323.311 262.69C326.936 247.302 324.043 239.138 321.494 231.931C319.711 226.893 318.049 222.131 319.022 215.87C321.7 199.069 330.596 195.737 341.86 191.526C350.919 188.133 361.184 184.293 371.853 172.581C377.924 165.925 392.745 162.144 406.299 163.797C419.698 165.425 430.152 171.987 435.732 182.26C437.73 185.92 441.02 187.022 445.566 188.538C453.411 191.164 464.159 194.746 476.266 213.752C491.612 237.864 479.762 259.159 471.099 274.729C469.032 278.239 467.186 281.874 465.571 285.614C460.929 297.532 423.676 299.926 386.329 299.926ZM399.771 166.019C388.12 166.019 377.838 169.877 373.765 174.346C362.673 186.497 351.634 190.63 342.764 193.946C331.879 198.019 324.008 200.955 321.571 216.275C320.71 221.89 322.183 226.144 323.931 231.069C326.6 238.604 329.623 247.155 325.826 263.276C324.801 267.582 326.686 273.119 331.078 278.776C337.873 287.482 351.521 296.938 365.455 297.144L368.34 297.187C390.445 297.549 457.726 298.626 463.185 284.71C464.841 280.863 466.737 277.124 468.86 273.515C477.204 258.514 488.666 237.976 474.104 215.181C462.487 196.951 452.249 193.532 444.766 191.07C440.038 189.494 435.956 188.133 433.484 183.569C428.318 174.045 418.553 167.965 406.006 166.441C403.939 166.173 401.856 166.033 399.771 166.019Z" fill="#1D1E1B"/>
<path d="M412.098 239.543C394.703 242.239 371.952 233.404 367.63 239.311C363.307 245.218 365.907 253.632 375.061 256.189C384.215 258.747 393.524 258.979 412.529 258.549C431.534 258.118 450.118 256.284 448.533 246.045C446.949 235.806 437.683 235.574 412.098 239.543Z" fill="#FFB49F"/>
<path d="M402.781 189.408C395.642 216.275 368.284 228.245 353.446 229.382C350.079 237.554 351.568 248.68 351.43 258.342C350.905 293.829 369.885 319.792 403.96 317.967C437.243 316.184 454.983 297.42 455.172 258.316C455.172 249.084 455.714 239.94 452.855 231.965C424.636 231.431 402.781 189.408 402.781 189.408Z" fill="#FFCDB2"/>
<path d="M400.698 319.345C387.367 319.345 375.829 314.987 367.157 306.643C355.885 295.801 349.839 278.639 350.14 258.325C350.14 255.931 350.141 253.382 350.038 250.911C349.84 243.221 349.624 235.272 352.25 228.891L352.552 228.151L353.344 228.091C369.379 226.859 394.92 213.942 401.568 189.072L402.429 185.852L403.971 188.805C404.186 189.219 425.8 230.14 452.943 230.674H453.805L454.106 231.535C456.689 238.777 456.611 247.036 456.525 255.035C456.525 256.129 456.525 257.231 456.525 258.333C456.43 277.881 451.884 292.908 443.006 303C434.326 312.878 421.227 318.346 404.091 319.267C402.928 319.319 401.8 319.345 400.698 319.345ZM354.36 230.596C352.233 236.374 352.431 243.729 352.638 250.842C352.707 253.339 352.776 255.914 352.741 258.359C352.457 277.959 358.218 294.441 368.965 304.783C377.835 313.317 389.925 317.433 403.936 316.675C437.391 314.893 453.744 295.801 453.925 258.316C453.925 257.205 453.925 256.103 453.925 255.001C454.011 247.208 454.088 239.819 451.935 233.223C427.617 232.034 408.526 202.093 403.126 192.749C394.842 217.722 369.525 229.106 354.36 230.596Z" fill="#1D1D1B"/>
<path d="M408.541 241.601C387.822 245.046 360.575 234.712 355.486 241.851C350.397 248.99 353.549 258.945 364.554 261.89C375.559 264.835 386.608 265.007 409.282 264.266C431.955 263.526 454.061 261.123 452.08 248.938C450.1 236.753 439.016 236.529 408.541 241.601Z" fill="#FFB49F"/>
<path d="M401.954 273.153C401.784 273.151 401.617 273.116 401.461 273.049C401.305 272.982 401.164 272.885 401.046 272.763C400.927 272.642 400.834 272.498 400.771 272.34C400.709 272.182 400.678 272.014 400.68 271.844L401.084 243.97C401.091 243.632 401.23 243.309 401.472 243.073C401.713 242.836 402.038 242.704 402.376 242.704V242.704C402.545 242.706 402.713 242.742 402.868 242.809C403.023 242.876 403.164 242.973 403.282 243.095C403.399 243.216 403.491 243.36 403.553 243.518C403.615 243.675 403.646 243.843 403.642 244.013L403.237 271.879C403.233 272.217 403.096 272.54 402.856 272.778C402.616 273.016 402.292 273.151 401.954 273.153Z" fill="black"/>
<path d="M377.425 159.079C377.113 159.08 376.804 159.013 376.521 158.881C376.006 158.64 375.607 158.204 375.412 157.67C375.217 157.136 375.241 156.547 375.479 156.03C375.772 155.402 382.842 140.53 402.174 139.54C402.745 139.511 403.304 139.71 403.728 140.094C404.152 140.478 404.406 141.014 404.435 141.585C404.463 142.156 404.263 142.715 403.88 143.139C403.496 143.563 402.961 143.817 402.39 143.845C385.761 144.707 379.664 157.305 379.406 157.839C379.231 158.215 378.951 158.532 378.599 158.752C378.248 158.972 377.84 159.086 377.425 159.079Z" fill="white"/>
<path d="M371.367 239.457C368.368 239.475 365.41 238.753 362.756 237.356C362.469 237.188 362.257 236.916 362.166 236.596C362.075 236.276 362.112 235.933 362.267 235.639C362.423 235.344 362.685 235.121 363.001 235.016C363.316 234.911 363.661 234.932 363.962 235.074C375.019 240.904 387.824 230.51 387.944 230.407C388.074 230.291 388.225 230.201 388.39 230.145C388.555 230.089 388.729 230.066 388.903 230.079C389.076 230.091 389.246 230.14 389.401 230.22C389.555 230.299 389.692 230.41 389.803 230.544C389.914 230.678 389.997 230.833 390.046 231C390.096 231.167 390.111 231.343 390.091 231.516C390.071 231.689 390.017 231.856 389.93 232.007C389.844 232.159 389.728 232.291 389.589 232.396C389.133 232.767 380.883 239.457 371.367 239.457Z" fill="black"/>
<path d="M425.728 236.133C421.155 236.133 413.672 234.661 407.644 226.394C407.443 226.116 407.361 225.771 407.415 225.432C407.469 225.094 407.655 224.791 407.933 224.59C408.21 224.389 408.556 224.306 408.895 224.36C409.233 224.415 409.536 224.601 409.737 224.879C417.909 236.159 428.682 233.318 429.181 233.188C429.506 233.099 429.854 233.139 430.151 233.299C430.447 233.459 430.671 233.728 430.775 234.05C430.869 234.375 430.831 234.724 430.669 235.022C430.508 235.32 430.237 235.543 429.913 235.643C428.544 235.98 427.138 236.145 425.728 236.133Z" fill="black"/>
<path d="M220.009 481.523C197.284 462.38 166.197 426.737 160.815 405.355C155.432 383.973 169.254 376.395 169.254 376.395L162.029 361.317L207.979 325.52L214.954 334.389C214.954 334.389 236.698 327.742 247.333 345.188C257.968 362.635 269.456 386.247 277.059 395.513C305.262 429.855 306.123 472.912 288.9 497.885C271.677 522.858 231.686 491.366 220.009 481.523Z" fill="#00D7AD"/>
<path d="M270.785 508.597C252.925 508.597 231.078 492.537 219.177 482.513C198.57 465.144 165.364 428.71 159.56 405.674C154.884 387.108 164.374 378.325 167.603 375.948L160.87 361.877C160.744 361.611 160.713 361.311 160.78 361.024C160.847 360.738 161.009 360.483 161.24 360.301L207.19 324.504C207.461 324.297 207.802 324.204 208.14 324.246C208.478 324.288 208.786 324.461 208.998 324.728L215.457 332.926C219.763 331.901 238.647 328.448 248.438 344.517C252.554 351.276 256.791 358.94 260.89 366.355C267.366 378.049 273.472 389.098 278.062 394.695C307.883 431.009 306.626 474.462 289.963 498.617C288.234 501.273 285.946 503.52 283.26 505.202C280.575 506.884 277.554 507.96 274.41 508.356C273.209 508.519 271.997 508.6 270.785 508.597V508.597ZM163.651 361.696L170.42 375.836C170.57 376.138 170.597 376.485 170.496 376.807C170.395 377.128 170.173 377.397 169.877 377.558C169.352 377.851 157.012 384.99 162.066 405.072C167.483 426.6 199.681 462.768 220.847 480.559C232.455 490.35 253.734 506.04 270.724 506.04C271.842 506.043 272.958 505.971 274.065 505.825C276.848 505.472 279.522 504.519 281.901 503.032C284.279 501.546 286.307 499.56 287.844 497.213C303.947 473.851 305.067 431.767 276.063 396.392C271.327 390.613 265.161 379.47 258.634 367.664C254.543 360.275 250.325 352.628 246.226 345.92C236.262 329.558 216.189 335.423 215.337 335.681C215.089 335.757 214.824 335.756 214.577 335.679C214.33 335.603 214.111 335.453 213.95 335.251L207.758 327.397L163.651 361.696Z" fill="#1D1D1B"/>
<path d="M170.774 376.731C170.774 376.731 207.192 369.61 214.365 335.457L207.743 326.527L163.695 361.55L170.774 376.731Z" fill="#05AF8F"/>
<path d="M278.166 441.067C280.877 441.067 283.075 438.869 283.075 436.158C283.075 433.447 280.877 431.25 278.166 431.25C275.456 431.25 273.258 433.447 273.258 436.158C273.258 438.869 275.456 441.067 278.166 441.067Z" fill="#4AEBD7"/>
<path d="M320.362 369.592C323.073 369.592 325.27 367.394 325.27 364.684C325.27 361.973 323.073 359.775 320.362 359.775C317.651 359.775 315.453 361.973 315.453 364.684C315.453 367.394 317.651 369.592 320.362 369.592Z" fill="#4AEBD7"/>
<path d="M411.643 417.816C414.354 417.816 416.552 415.618 416.552 412.907C416.552 410.196 414.354 407.999 411.643 407.999C408.932 407.999 406.734 410.196 406.734 412.907C406.734 415.618 408.932 417.816 411.643 417.816Z" fill="#4AEBD7"/>
<path d="M480.534 369.592C483.245 369.592 485.442 367.394 485.442 364.684C485.442 361.973 483.245 359.775 480.534 359.775C477.823 359.775 475.625 361.973 475.625 364.684C475.625 367.394 477.823 369.592 480.534 369.592Z" fill="#4AEBD7"/>
<path d="M480.534 478.957C483.245 478.957 485.442 476.759 485.442 474.048C485.442 471.337 483.245 469.14 480.534 469.14C477.823 469.14 475.625 471.337 475.625 474.048C475.625 476.759 477.823 478.957 480.534 478.957Z" fill="#4AEBD7"/>
<path d="M366.87 505.652C369.58 505.652 371.778 503.454 371.778 500.743C371.778 498.032 369.58 495.835 366.87 495.835C364.159 495.835 361.961 498.032 361.961 500.743C361.961 503.454 364.159 505.652 366.87 505.652Z" fill="#4AEBD7"/>
<path d="M358.252 434.178C360.963 434.178 363.161 431.98 363.161 429.269C363.161 426.558 360.963 424.361 358.252 424.361C355.542 424.361 353.344 426.558 353.344 429.269C353.344 431.98 355.542 434.178 358.252 434.178Z" fill="#4AEBD7"/>
<path d="M473.651 432.456C476.362 432.456 478.559 430.258 478.559 427.547C478.559 424.836 476.362 422.639 473.651 422.639C470.94 422.639 468.742 424.836 468.742 427.547C468.742 430.258 470.94 432.456 473.651 432.456Z" fill="#4AEBD7"/>
<path d="M228.159 453.941C230.87 453.941 233.067 451.743 233.067 449.032C233.067 446.321 230.87 444.124 228.159 444.124C225.448 444.124 223.25 446.321 223.25 449.032C223.25 451.743 225.448 453.941 228.159 453.941Z" fill="#4AEBD7"/>
<path d="M231.424 383.767C234.135 383.767 236.333 381.569 236.333 378.858C236.333 376.147 234.135 373.95 231.424 373.95C228.713 373.95 226.516 376.147 226.516 378.858C226.516 381.569 228.713 383.767 231.424 383.767Z" fill="#4AEBD7"/>
<path d="M89.6219 308.047C89.6219 308.047 87.7189 356.383 160.123 355.203C160.123 355.203 199.313 352.887 210.516 330.334L208.855 325.813C208.855 325.813 228.523 301.184 217.716 285.675C217.716 285.675 197.324 285.976 184.132 314.377C184.132 314.377 161.699 286.734 128.278 298.988C128.278 298.988 111.744 295.819 108.971 305.016C109.006 305.033 99.7058 299.229 89.6219 308.047Z" fill="#FFCDB2"/>
<path d="M95.992 304.155C98.0962 303.359 100.346 303.024 102.591 303.173C104.836 303.322 107.022 303.95 109.003 305.016C109.864 302.183 112.017 300.521 114.592 299.574C120.388 297.455 128.31 298.971 128.31 298.971C161.73 286.717 184.163 314.359 184.163 314.359C192.344 296.706 203.315 289.912 210.454 287.294C212.776 286.38 215.224 285.828 217.713 285.658C228.52 301.158 208.852 325.795 208.852 325.795L210.514 330.316C205.657 340.09 195.539 346.066 185.636 349.7C177.405 352.629 168.828 354.473 160.121 355.186C87.7162 356.366 89.6192 308.03 89.6192 308.03C91.4857 306.351 93.6464 305.032 95.992 304.138V304.155ZM95.1308 301.701C92.4827 302.704 90.0418 304.187 87.9314 306.075C87.6696 306.309 87.458 306.594 87.31 306.912C87.1619 307.231 87.0805 307.576 87.0703 307.927C87.2862 319.567 91.9912 330.674 100.203 338.928C112.835 351.845 133.029 358.182 160.215 357.743H160.327C169.289 357.018 178.116 355.119 186.583 352.095C199.595 347.324 208.448 340.366 212.891 331.427C213.049 331.111 213.14 330.766 213.159 330.414C213.179 330.061 213.125 329.709 213.003 329.377L211.84 326.2C215.767 320.869 230.389 299.186 219.892 284.133C219.65 283.784 219.325 283.5 218.946 283.306C218.567 283.112 218.147 283.015 217.722 283.023C214.941 283.196 212.205 283.8 209.61 284.814C202.118 287.561 191.741 294.123 183.552 309.787C179.536 305.844 175.002 302.466 170.075 299.746C163.75 296.165 156.725 293.998 149.482 293.395C142.239 292.791 134.951 293.765 128.121 296.25C125.899 295.914 119.13 295.122 113.748 297.111C111.333 297.917 109.247 299.489 107.807 301.589C103.711 300.131 99.2319 300.162 95.1561 301.675L95.1308 301.701Z" fill="black"/>
<path d="M185.4 331.703H185.331C185.002 331.8 184.648 331.764 184.345 331.603C184.042 331.442 183.815 331.169 183.712 330.842C183.66 330.687 182.567 327.474 178.167 325.537C173.37 323.41 163.923 322.583 146.201 330.704C145.982 330.802 145.739 330.838 145.501 330.808C145.262 330.777 145.037 330.682 144.849 330.532C144.642 330.377 124.492 314.377 108.423 306.196C108.266 306.121 108.125 306.016 108.009 305.886C107.894 305.757 107.806 305.605 107.749 305.441C107.693 305.276 107.671 305.102 107.683 304.929C107.695 304.755 107.742 304.586 107.821 304.431C107.9 304.276 108.009 304.138 108.142 304.026C108.275 303.914 108.429 303.83 108.595 303.779C108.762 303.727 108.936 303.71 109.109 303.727C109.282 303.745 109.45 303.796 109.603 303.879C124.302 311.363 142.283 325.227 145.84 327.991C160.479 321.412 171.768 319.811 179.337 323.212C184.797 325.675 186.14 329.912 186.226 330.101C186.324 330.423 186.293 330.771 186.139 331.07C185.984 331.369 185.719 331.596 185.4 331.703V331.703Z" fill="black"/>
<path d="M160.953 318.122C160.709 318.21 160.444 318.223 160.193 318.16C159.941 318.097 159.714 317.961 159.54 317.769C159.437 317.657 149.078 306.368 127.576 299.315C127.248 299.208 126.976 298.974 126.821 298.667C126.665 298.359 126.637 298.002 126.744 297.674C126.851 297.347 127.085 297.075 127.392 296.919C127.7 296.763 128.057 296.736 128.385 296.843C150.593 304.129 161.039 315.547 161.469 316.029C161.585 316.156 161.673 316.304 161.731 316.465C161.789 316.625 161.814 316.796 161.805 316.966C161.796 317.137 161.754 317.304 161.68 317.458C161.606 317.612 161.503 317.75 161.375 317.864C161.252 317.975 161.108 318.062 160.953 318.122Z" fill="black"/>
<path d="M156.617 349.89L156.325 349.976C128.863 354.816 106.051 334.846 105.095 333.993C104.753 333.688 104.545 333.26 104.519 332.802C104.492 332.344 104.648 331.895 104.953 331.552C105.258 331.209 105.687 331.002 106.145 330.975C106.603 330.948 107.052 331.105 107.395 331.41C107.618 331.608 129.939 351.121 155.722 346.566C156.157 346.471 156.612 346.548 156.991 346.782C157.371 347.015 157.644 347.386 157.756 347.818C157.867 348.249 157.807 348.706 157.589 349.094C157.37 349.482 157.009 349.77 156.583 349.898L156.617 349.89Z" fill="white"/>
<path d="M599.773 472.912C622.498 453.769 647.997 411.237 653.37 389.855C658.744 368.473 644.931 360.895 644.931 360.895L652.148 345.817L606.205 310.019L599.222 318.889C599.222 318.889 577.478 312.241 566.851 329.688C556.225 347.134 544.721 370.747 537.117 380.012C508.915 414.354 518.826 477.217 536.049 502.19C553.272 527.163 588.096 482.754 599.773 472.912Z" fill="#00D7AD"/>
<path d="M549.151 511C548.643 511 548.144 511 547.644 510.94C542.607 510.492 538.352 507.797 534.994 502.923C525.745 489.523 519.339 467.202 518.262 444.675C516.988 418.023 523.334 394.729 536.122 379.229C540.721 373.631 546.826 362.583 553.293 350.889C557.392 343.474 561.629 335.81 565.754 329.05C575.545 312.982 594.464 316.435 598.735 317.46L605.194 309.262C605.405 308.993 605.713 308.818 606.052 308.776C606.391 308.734 606.732 308.829 607.002 309.038L652.944 344.835C653.179 345.014 653.344 345.269 653.412 345.557C653.479 345.844 653.444 346.146 653.314 346.411L646.58 360.482C649.809 362.859 659.299 371.677 654.623 390.208C649.129 412.038 623.122 454.966 600.612 473.937L599.751 472.946L600.612 473.937C598.58 475.659 595.764 478.492 592.509 481.79C580.918 493.484 563.61 511 549.151 511ZM589.625 318.889C582.787 318.889 573.711 320.947 567.976 330.359C563.885 337.068 559.657 344.715 555.567 352.103C549.048 363.909 542.882 375.052 538.137 380.83C525.754 395.909 519.623 418.54 520.863 444.555C521.897 466.29 528.286 488.627 537.13 501.458C540.075 505.764 543.597 507.986 547.886 508.347C548.316 508.382 548.755 508.399 549.202 508.399C562.55 508.399 579.412 491.34 590.684 479.922C593.991 476.58 596.841 473.696 598.959 471.904C621.133 453.226 646.726 410.996 652.134 389.528C657.198 369.446 644.858 362.308 644.324 361.972C644.027 361.813 643.804 361.543 643.704 361.22C643.604 360.898 643.635 360.549 643.79 360.249L650.558 346.11L606.443 311.75L600.259 319.604C600.096 319.807 599.877 319.957 599.628 320.033C599.38 320.11 599.114 320.111 598.865 320.035C595.845 319.239 592.731 318.853 589.608 318.889H589.625Z" fill="#1D1D1B"/>
<path d="M643.411 361.231C643.411 361.231 607.002 354.109 599.82 319.956L606.451 311.026L650.499 346.049L643.411 361.231Z" fill="#05AF8F"/>
<path d="M536.026 425.566C538.737 425.566 540.934 423.369 540.934 420.658C540.934 417.947 538.737 415.75 536.026 415.75C533.315 415.75 531.117 417.947 531.117 420.658C531.117 423.369 533.315 425.566 536.026 425.566Z" fill="#4AEBD7"/>
<path d="M586.041 438.44C588.752 438.44 590.95 436.243 590.95 433.532C590.95 430.821 588.752 428.623 586.041 428.623C583.331 428.623 581.133 430.821 581.133 433.532C581.133 436.243 583.331 438.44 586.041 438.44Z" fill="#4AEBD7"/>
<path d="M582.76 368.266C585.471 368.266 587.669 366.068 587.669 363.357C587.669 360.647 585.471 358.449 582.76 358.449C580.049 358.449 577.852 360.647 577.852 363.357C577.852 366.068 580.049 368.266 582.76 368.266Z" fill="#4AEBD7"/>
<path d="M728.252 290.161C728.252 290.161 730.146 338.497 657.741 337.317C657.741 337.317 618.56 335.001 607.357 312.448L609.01 307.935C609.01 307.935 589.351 283.298 600.158 267.789C600.158 267.789 620.54 268.091 633.699 296.491C633.699 296.491 656.131 268.848 689.561 281.102C689.561 281.102 706.086 277.942 708.859 287.13C708.859 287.156 718.185 281.309 728.252 290.161Z" fill="#FFCDB2"/>
<path d="M721.869 286.278C724.217 287.168 726.381 288.485 728.25 290.161C728.25 290.161 730.144 338.497 657.74 337.317C649.035 336.605 640.462 334.761 632.234 331.832C622.331 328.198 612.212 322.23 607.355 312.448L609.008 307.935C609.008 307.935 589.349 283.298 600.156 267.789C602.645 267.965 605.092 268.517 607.415 269.426C614.546 272.009 625.499 278.837 633.697 296.491C633.697 296.491 656.13 268.848 689.559 281.102C689.559 281.102 697.482 279.587 703.277 281.714C705.861 282.653 708.005 284.297 708.857 287.156C710.838 286.089 713.024 285.459 715.269 285.311C717.514 285.162 719.765 285.498 721.869 286.295V286.278ZM722.73 283.85C718.654 282.341 714.177 282.31 710.08 283.763C708.64 281.664 706.554 280.091 704.138 279.285C698.748 277.313 691.979 278.106 689.766 278.424C682.935 275.941 675.647 274.968 668.405 275.572C661.162 276.175 654.137 278.341 647.811 281.92C642.884 284.64 638.35 288.018 634.334 291.961C626.136 276.297 615.768 269.735 608.277 266.988C605.679 265.975 602.94 265.37 600.156 265.197C599.731 265.189 599.311 265.287 598.932 265.481C598.553 265.674 598.228 265.959 597.986 266.308C587.497 281.361 602.111 303.044 606.046 308.375L604.875 311.552C604.754 311.884 604.702 312.237 604.723 312.59C604.743 312.942 604.836 313.286 604.995 313.602C609.43 322.549 618.283 329.498 631.304 334.269C639.771 337.288 648.598 339.185 657.559 339.909H657.672C684.858 340.348 705.034 334.019 717.684 321.094C725.906 312.83 730.612 301.705 730.816 290.049C730.802 289.699 730.718 289.356 730.57 289.038C730.423 288.72 730.214 288.435 729.955 288.198C727.843 286.312 725.403 284.829 722.756 283.823L722.73 283.85Z" fill="black"/>
<path d="M632.472 313.817H632.541C632.871 313.917 633.227 313.882 633.532 313.721C633.836 313.56 634.065 313.285 634.168 312.956C634.22 312.801 635.306 309.589 639.706 307.651C644.511 305.533 653.958 304.697 671.68 312.818C671.899 312.915 672.14 312.952 672.378 312.923C672.616 312.894 672.842 312.801 673.031 312.654C673.229 312.491 693.381 296.491 709.458 288.31C709.615 288.236 709.755 288.13 709.871 288.001C709.987 287.871 710.075 287.719 710.132 287.555C710.188 287.39 710.21 287.216 710.198 287.043C710.186 286.869 710.138 286.7 710.059 286.545C709.98 286.39 709.871 286.252 709.738 286.14C709.605 286.028 709.452 285.944 709.286 285.893C709.12 285.841 708.945 285.824 708.772 285.841C708.599 285.859 708.431 285.91 708.278 285.994C693.579 293.477 675.598 307.341 672.033 310.105C657.394 303.526 646.112 301.925 638.543 305.335C633.083 307.798 631.74 312.026 631.654 312.224C631.56 312.544 631.593 312.887 631.746 313.184C631.898 313.48 632.158 313.707 632.472 313.817Z" fill="black"/>
<path d="M656.925 300.254C657.169 300.343 657.433 300.357 657.685 300.294C657.937 300.231 658.163 300.094 658.337 299.901C658.44 299.789 668.8 288.5 690.294 281.447C690.468 281.405 690.631 281.327 690.774 281.218C690.917 281.109 691.036 280.972 691.123 280.815C691.21 280.658 691.264 280.485 691.281 280.307C691.298 280.128 691.278 279.948 691.222 279.777C691.166 279.607 691.075 279.45 690.956 279.316C690.836 279.182 690.69 279.075 690.527 279C690.363 278.926 690.186 278.886 690.007 278.883C689.828 278.88 689.649 278.915 689.484 278.984C667.284 286.26 656.838 297.688 656.408 298.17C656.292 298.296 656.204 298.444 656.146 298.605C656.088 298.766 656.063 298.936 656.072 299.107C656.081 299.278 656.123 299.445 656.197 299.599C656.271 299.753 656.375 299.891 656.503 300.004C656.625 300.115 656.769 300.2 656.925 300.254V300.254Z" fill="black"/>
<path d="M661.266 332.004C661.359 332.046 661.458 332.075 661.559 332.09C689.02 336.938 711.832 316.96 712.788 316.107C713.131 315.801 713.337 315.371 713.363 314.913C713.389 314.454 713.231 314.004 712.925 313.661C712.619 313.319 712.19 313.112 711.731 313.086C711.272 313.06 710.822 313.218 710.48 313.524C710.264 313.722 687.944 333.235 662.162 328.688C661.735 328.613 661.296 328.702 660.931 328.936C660.567 329.17 660.304 329.533 660.196 329.953C660.087 330.372 660.141 330.817 660.345 331.199C660.55 331.58 660.891 331.871 661.301 332.012L661.266 332.004Z" fill="white"/>
<path d="M396.547 301.114H396.401C396.061 301.076 395.75 300.903 395.537 300.635C395.323 300.367 395.225 300.025 395.264 299.685C395.643 296.473 395.066 294.277 393.542 293.175C390.459 290.918 383.845 293.089 381.563 294.122C381.408 294.192 381.241 294.231 381.071 294.237C380.901 294.242 380.732 294.214 380.573 294.154C380.413 294.094 380.268 294.003 380.144 293.887C380.02 293.771 379.92 293.631 379.85 293.476C379.78 293.321 379.741 293.154 379.735 292.984C379.73 292.814 379.758 292.645 379.818 292.485C379.878 292.326 379.969 292.181 380.085 292.057C380.201 291.933 380.341 291.833 380.496 291.763C380.892 291.59 390.149 287.457 395.066 291.091C397.383 292.813 398.304 295.776 397.813 299.978C397.775 300.289 397.627 300.575 397.394 300.784C397.161 300.993 396.86 301.11 396.547 301.114V301.114Z" fill="black"/>
<path d="M375.89 260.211C377.792 260.211 379.334 258.669 379.334 256.766C379.334 254.864 377.792 253.322 375.89 253.322C373.987 253.322 372.445 254.864 372.445 256.766C372.445 258.669 373.987 260.211 375.89 260.211Z" fill="black"/>
<path d="M430.57 260.641C432.472 260.641 434.014 259.099 434.014 257.196C434.014 255.294 432.472 253.752 430.57 253.752C428.667 253.752 427.125 255.294 427.125 257.196C427.125 259.099 428.667 260.641 430.57 260.641Z" fill="black"/>
<path d="M209.004 219.781C208.792 219.779 208.582 219.738 208.384 219.66C186.098 211.049 166.076 196.099 148.853 175.139C135.127 158.433 123.148 137.904 113.245 114.128C102.986 89.3397 95.6259 63.4485 91.3125 36.97C91.282 36.7438 91.2962 36.5141 91.3546 36.2935C91.4129 36.0728 91.5139 35.8657 91.6523 35.6842C91.7906 35.5027 91.9638 35.3503 92.161 35.2356C92.3583 35.1208 92.5757 35.0462 92.8018 35.0156C93.028 34.9851 93.2582 34.9993 93.4788 35.0577C93.6995 35.116 93.9061 35.2171 94.0877 35.3554C94.2692 35.4937 94.422 35.6665 94.5367 35.8637C94.6515 36.061 94.7265 36.2792 94.7571 36.5054C94.7571 36.8671 99.8115 72.8539 116.483 112.879C131.811 149.659 160.401 197.486 209.65 216.448C210.027 216.591 210.342 216.862 210.54 217.214C210.738 217.566 210.806 217.977 210.732 218.374C210.658 218.771 210.447 219.129 210.136 219.386C209.825 219.643 209.434 219.783 209.03 219.781H209.004Z" fill="black"/>
<path d="M165.218 217.49H165.029C143.406 215.156 122.481 202.05 104.518 179.6C96.2976 169.295 89.3197 158.057 83.7292 146.119C83.6387 145.911 83.5904 145.688 83.5862 145.462C83.5821 145.235 83.622 145.01 83.7048 144.8C83.7876 144.589 83.911 144.397 84.0681 144.234C84.2252 144.071 84.4131 143.94 84.6206 143.85C84.8281 143.759 85.0519 143.711 85.2782 143.706C85.5046 143.702 85.7294 143.743 85.9401 143.825C86.1508 143.908 86.343 144.032 86.506 144.189C86.669 144.346 86.799 144.534 86.8895 144.741C87.1651 145.387 115.307 208.68 165.399 214.097C165.856 214.121 166.285 214.325 166.591 214.665C166.897 215.005 167.055 215.453 167.031 215.91C167.007 216.366 166.803 216.795 166.463 217.101C166.123 217.407 165.675 217.566 165.218 217.542V217.49Z" fill="black"/>
<path d="M1.72691 305.421C1.40851 305.422 1.09627 305.334 0.824571 305.168C0.552875 305.002 0.332503 304.764 0.18797 304.48C0.043437 304.197 -0.0199456 303.879 0.00548341 303.561C0.0309124 303.244 0.143912 302.939 0.331773 302.682C13.0507 285.244 35.8362 278.149 66.2171 282.187C80.6605 284.238 94.8013 288.037 108.327 293.503C108.747 293.683 109.078 294.023 109.248 294.448C109.417 294.872 109.411 295.347 109.231 295.768C109.051 296.188 108.71 296.519 108.286 296.689C107.861 296.858 107.386 296.852 106.966 296.672C106.217 296.344 32.0993 264.974 3.12205 304.715C2.96172 304.934 2.75146 305.113 2.509 305.235C2.26654 305.358 1.99866 305.422 1.72691 305.421Z" fill="black"/>
<path d="M123.145 274.42C122.903 274.419 122.663 274.368 122.442 274.268C122.221 274.169 122.023 274.024 121.862 273.843C121.647 273.61 100.282 250.472 55.3046 255.466C55.0785 255.491 54.8495 255.471 54.631 255.407C54.4126 255.344 54.209 255.238 54.0314 255.095C53.8539 254.953 53.7062 254.777 53.5967 254.578C53.4871 254.378 53.418 254.159 53.3932 253.933C53.3683 253.707 53.3885 253.478 53.452 253.259C53.5156 253.041 53.6217 252.837 53.764 252.66C53.9063 252.482 54.0818 252.335 54.2812 252.225C54.4806 252.116 54.7 252.046 54.9262 252.022C101.781 246.812 123.524 270.518 124.428 271.535C124.649 271.782 124.793 272.089 124.844 272.417C124.895 272.745 124.85 273.081 124.714 273.383C124.579 273.686 124.359 273.944 124.08 274.124C123.802 274.305 123.477 274.402 123.145 274.402V274.42Z" fill="black"/>
<path d="M559.308 487.551C558.563 487.552 557.837 487.311 557.24 486.865C556.644 486.418 556.208 485.79 555.998 485.075C555.789 484.36 555.817 483.596 556.078 482.898C556.34 482.2 556.82 481.606 557.448 481.204C640.41 428.106 628.475 384.757 628.346 384.352C628.081 383.478 628.174 382.533 628.605 381.727C629.037 380.922 629.77 380.32 630.645 380.055C631.519 379.79 632.463 379.884 633.269 380.315C634.075 380.746 634.677 381.48 634.942 382.354C635.097 382.871 638.645 395.142 630.963 414.346C620.983 439.319 597.5 463.758 561.211 487.008C560.644 487.371 559.982 487.56 559.308 487.551V487.551Z" fill="white"/>
<path d="M779.337 283.893C779.103 283.893 778.872 283.846 778.657 283.754C778.442 283.662 778.249 283.528 778.088 283.359C764.568 269.15 746.656 263.122 724.835 265.464C714.772 266.572 704.943 269.242 695.703 273.378C695.499 273.498 695.272 273.574 695.037 273.602C694.802 273.63 694.563 273.61 694.336 273.542C694.11 273.474 693.899 273.36 693.718 273.207C693.538 273.053 693.391 272.865 693.286 272.652C693.182 272.44 693.122 272.208 693.111 271.971C693.1 271.735 693.138 271.499 693.223 271.277C693.308 271.056 693.437 270.855 693.603 270.686C693.769 270.517 693.968 270.384 694.188 270.295C703.732 265.963 713.907 263.182 724.327 262.054C746.992 259.591 766.437 266.145 780.551 280.999C780.784 281.243 780.939 281.55 780.999 281.882C781.059 282.214 781.02 282.557 780.887 282.867C780.754 283.177 780.533 283.44 780.252 283.626C779.97 283.811 779.639 283.91 779.302 283.91L779.337 283.893Z" fill="black"/>
<path d="M652.743 264.948C652.429 264.947 652.121 264.86 651.853 264.697C651.584 264.534 651.365 264.301 651.219 264.022C651.074 263.744 651.007 263.431 651.027 263.118C651.046 262.804 651.152 262.502 651.331 262.243C651.624 261.821 658.599 251.91 672.756 243.652C685.802 236.031 707.623 228.461 737.539 235.721C737.982 235.829 738.364 236.108 738.601 236.497C738.838 236.886 738.912 237.353 738.805 237.796C738.697 238.239 738.418 238.62 738.029 238.857C737.64 239.095 737.173 239.168 736.73 239.062C708.002 232.104 687.111 239.294 674.633 246.545C661.079 254.433 654.224 264.112 654.155 264.207C653.997 264.435 653.786 264.622 653.54 264.751C653.295 264.88 653.021 264.947 652.743 264.948V264.948Z" fill="black"/>
</g>
<defs>
<clipPath id="clip0_62_98">
<rect width="800" height="800" fill="white"/>
</clipPath>
</defs>
</svg>
