<svg width="748" height="830" viewBox="0 0 748 830" fill="none" xmlns="http://www.w3.org/2000/svg">
<path d="M192.85 30.1498L197.98 29.2598L202.98 28.3998C204.6 28.1298 205.4 27.9798 205.85 27.8898C207.68 27.7461 209.482 27.3593 211.21 26.7398C212.732 26.1969 214.156 25.4137 215.43 24.4198C216.692 23.4487 217.718 22.2042 218.43 20.7799C219.067 19.5092 219.409 18.1111 219.43 16.6898C219.434 15.1686 219.041 13.6726 218.29 12.3498C217.373 10.8125 216.019 9.58349 214.4 8.81983C212.899 8.11096 211.302 7.62581 209.66 7.37983C207.589 7.05926 205.495 6.91208 203.4 6.93983C201.02 6.93983 198.63 7.04985 196.29 7.24985C193.95 7.44985 191.5 7.76983 188.96 8.19983C186.42 8.62983 183.8 9.19984 181.02 9.79984C178.24 10.3998 175.29 11.1998 172.09 12.0798L171.68 12.2098C171.53 12.2098 171.06 12.4198 169.96 12.6798C169.04 12.8998 167.96 13.1298 166.87 13.3598L165.33 13.6698C164.446 12.3379 163.265 11.2289 161.88 10.4298C159.68 9.16559 157.165 8.55503 154.63 8.66984C152.381 8.69376 150.214 9.52005 148.52 10.9999C147.189 12.1324 146.018 13.4411 145.04 14.8898C144.058 16.319 143.18 17.8162 142.41 19.3698C141.68 20.8198 141.01 22.2398 140.41 23.5998V23.6898C139.41 25.9398 138.58 28.2398 137.78 30.5398C136.98 32.8398 136.13 35.5398 135.2 38.6098C134.27 41.6798 133.2 45.3798 132.06 49.6098C130.92 53.8398 129.42 59.0298 127.67 65.1598C125.92 71.2898 123.98 77.3799 121.85 83.4999C119.63 89.8499 117.67 96.4398 116.03 103.04C115.459 105.194 115.163 107.411 115.15 109.64C115.15 115.8 117.93 119.05 120.26 120.69C123.12 122.69 126.83 123.69 131.61 123.69C135.655 123.644 139.689 123.26 143.67 122.54C148.313 121.717 152.882 120.516 157.33 118.95C159.11 118.32 161.11 117.59 163.43 116.73C165.75 115.87 168.16 114.88 170.59 113.82C173.02 112.76 175.41 111.61 177.74 110.42C180.041 109.252 182.265 107.939 184.4 106.49C186.403 105.149 188.236 103.571 189.86 101.79C191.633 99.8981 192.799 97.5196 193.21 94.9598C193.371 93.9495 193.315 92.9165 193.048 91.9289C192.781 90.9414 192.308 90.0215 191.66 89.2298C190.781 88.1769 189.673 87.3389 188.42 86.7799C187.395 86.298 186.308 85.9614 185.19 85.7799C184.379 85.6554 183.561 85.5886 182.74 85.5798H182.63C179.893 85.6166 177.185 86.138 174.63 87.1199C172.445 87.991 170.315 88.9928 168.25 90.1199C166.25 91.1999 164.123 92.3665 161.87 93.6199C159.603 94.8416 157.239 95.8719 154.8 96.6998C151.891 97.717 148.917 98.5421 145.9 99.1698C144.19 99.5198 142.64 99.7798 141.25 99.9198L141.34 99.4598C141.68 97.6798 142.11 95.7198 142.61 93.6398C143.11 91.5598 143.61 89.4898 144.21 87.5198C144.38 86.9198 144.53 86.3998 144.67 85.9598L146.05 85.6199C147.17 85.3599 148.21 85.0698 149.16 84.7698C150.11 84.4698 151.16 84.1098 152.22 83.6798C153.28 83.2498 154.64 82.6798 156.48 81.9698C158.32 81.2598 160.65 80.2799 163.57 79.1199C166.49 77.9599 170.23 76.4898 174.83 74.6998L178.18 73.5998L183.28 71.9598C185.12 71.3698 186.86 70.7898 188.45 70.2198C189.74 69.7955 191.003 69.2912 192.23 68.7098L192.32 68.6598C194.52 67.5304 196.517 66.0435 198.23 64.2598C200.326 62.0816 201.492 59.1728 201.48 56.1498C201.471 55.0984 201.249 54.0596 200.826 53.0969C200.403 52.1342 199.789 51.2676 199.02 50.5498C197.42 49.0198 195.14 48.2698 192.02 48.2698C189.755 48.378 187.513 48.7608 185.34 49.4098C182.82 50.0698 179.9 50.8898 176.66 51.8698C173.42 52.8498 170.1 53.8698 166.66 54.9698L156.93 58.0598C155.64 58.4598 154.4 58.8498 153.23 59.1998L154.64 55.1998C155.17 53.7098 155.64 52.2998 156.12 50.9698C156.6 49.6398 156.97 48.5498 157.34 47.5698C157.79 46.3598 157.99 45.8698 158.07 45.6798L158.14 45.5299C158.863 43.7482 159.877 42.0991 161.14 40.6498C162.432 39.276 164.028 38.2244 165.8 37.5798C166.67 37.2998 167.8 36.9598 169.16 36.5798C170.52 36.1998 172.16 35.6598 173.91 35.1698L179.23 33.6198C180.98 33.1098 182.61 32.6198 184.08 32.2598C185.55 31.8998 187 31.4698 188.08 31.1498C189.16 30.8298 189.59 30.7398 189.62 30.7298H189.54L189.39 28.9498L189.79 30.6598C190.11 30.6598 190.94 30.4898 192.85 30.1498Z" fill="#FFCB89"/>
<path d="M131.57 125.2C126.47 125.2 122.48 124.13 119.36 121.93C116.73 120.08 113.61 116.45 113.61 109.65C113.625 107.287 113.934 104.936 114.53 102.65C116.19 96.0198 118.16 89.3998 120.39 82.9898C122.51 76.8998 124.46 70.7598 126.19 64.7398C127.92 58.7198 129.41 53.4098 130.57 49.1998C131.73 44.9898 132.8 41.2498 133.73 38.1998C134.66 35.1498 135.53 32.3498 136.33 30.0598C137.13 27.7698 138.03 25.3998 138.99 23.1298V23.0298C139.61 21.6431 140.277 20.2064 140.99 18.7198C141.793 17.1039 142.708 15.5467 143.73 14.0598C144.787 12.5019 146.048 11.0927 147.48 9.86981C149.441 8.16077 151.949 7.21008 154.55 7.18978C157.353 7.08231 160.128 7.7761 162.55 9.18978C163.811 9.94396 164.934 10.9078 165.87 12.0398L166.45 11.9198C167.57 11.6898 168.59 11.4698 169.45 11.2498C169.974 11.1364 170.491 10.9962 171 10.8298L171.48 10.6798C174.77 9.7798 177.79 9.00981 180.48 8.36981C183.17 7.72981 185.98 7.17981 188.48 6.74981C190.98 6.31981 193.57 5.98981 195.93 5.74981C198.29 5.50981 200.75 5.4298 203.17 5.4298C205.349 5.39827 207.527 5.55215 209.68 5.8898C211.468 6.16282 213.206 6.69507 214.84 7.46978C216.729 8.35963 218.304 9.79918 219.36 11.5998C220.241 13.1478 220.703 14.8988 220.7 16.6798C220.686 18.3248 220.3 19.9452 219.57 21.4198C218.769 23.0446 217.61 24.4668 216.18 25.5798C214.782 26.6727 213.219 27.5368 211.55 28.1398C209.721 28.7911 207.815 29.2012 205.88 29.3598C205.41 29.4598 204.59 29.6098 203.04 29.8698L198.04 30.7298C196.24 31.0398 194.53 31.3298 192.92 31.6198C190.92 31.9698 190.18 32.1298 189.92 32.1898L189.72 32.2398C189.66 32.2398 189.33 32.3298 188.29 32.6298C187.25 32.9298 185.86 33.3198 184.29 33.7498C182.72 34.1798 181.21 34.5898 179.47 35.0998L174.14 36.6498C172.44 37.1431 170.867 37.6098 169.42 38.0498L166.13 39.0498C164.613 39.6132 163.244 40.5162 162.13 41.6898C160.971 43.0149 160.045 44.5261 159.39 46.1598L159.31 46.3298C159.22 46.5298 159.03 46.9998 158.6 48.1498C158.24 49.1498 157.84 50.2498 157.4 51.5098C156.96 52.7698 156.45 54.2598 155.92 55.7598L155.51 56.9098L156.34 56.6498L166.07 53.5598C169.55 52.4598 172.93 51.4098 176.12 50.4498C179.31 49.4898 182.31 48.6398 184.86 47.9798C187.153 47.2978 189.52 46.8982 191.91 46.7898C195.42 46.7898 198.04 47.6698 199.91 49.4898C200.824 50.347 201.555 51.3812 202.057 52.5296C202.559 53.678 202.822 54.9165 202.83 56.1698C202.846 59.5747 201.537 62.8522 199.18 65.3098C197.348 67.2107 195.216 68.7984 192.87 70.0098L192.76 70.0698C191.461 70.6807 190.125 71.2116 188.76 71.6598C187.15 72.2198 185.4 72.8098 183.55 73.4098L178.45 75.0498L175.12 76.1398C170.59 77.8998 166.8 79.3898 163.94 80.5298C161.08 81.6698 158.66 82.6398 156.86 83.3798C155.06 84.1198 153.58 84.7098 152.57 85.0998C151.56 85.4898 150.41 85.9098 149.42 86.2198C148.43 86.5298 147.35 86.8298 146.21 87.0998L145.67 87.2298C145.6 87.4598 145.53 87.6898 145.46 87.9498C144.91 89.8998 144.38 91.9498 143.88 94.0098C143.53 95.4698 143.21 96.8698 142.94 98.1798C143.72 98.0498 144.54 97.8998 145.4 97.7198C148.356 97.104 151.269 96.2957 154.12 95.2998C156.48 94.4931 158.768 93.4896 160.96 92.2998C163.22 91.0531 165.35 89.8865 167.35 88.7998C169.466 87.6421 171.65 86.6135 173.89 85.7198C176.608 84.6762 179.489 84.1211 182.4 84.0798H182.53C183.424 84.0899 184.317 84.1634 185.2 84.2998C186.462 84.4825 187.692 84.8463 188.85 85.3798C190.304 86.031 191.59 87.0058 192.61 88.2298C193.394 89.1814 193.967 90.2885 194.291 91.478C194.615 92.6674 194.683 93.9121 194.49 95.1298C194.047 97.9846 192.754 100.64 190.78 102.75C189.074 104.619 187.15 106.277 185.05 107.69C182.86 109.165 180.578 110.501 178.22 111.69C175.87 112.89 173.44 114.04 170.99 115.12C168.54 116.2 166.11 117.19 163.76 118.06C161.41 118.93 159.42 119.66 157.63 120.29C153.1 121.884 148.448 123.108 143.72 123.95C139.711 124.7 135.648 125.118 131.57 125.2ZM154.63 10.1998C152.733 10.2309 150.91 10.9404 149.49 12.1998C148.261 13.2481 147.181 14.4593 146.28 15.7998C145.336 17.1677 144.49 18.6013 143.75 20.0898C143.03 21.5298 142.37 22.9298 141.75 24.2598C140.79 26.5398 139.917 28.8131 139.13 31.0798C138.35 33.3198 137.49 36.0098 136.57 39.0798C135.65 42.1498 134.57 45.8398 133.44 50.0798C132.31 54.3198 130.79 59.5398 129.04 65.6398C127.29 71.7398 125.33 77.9098 123.19 84.0598C120.99 90.3798 119.05 96.9098 117.41 103.47C116.876 105.507 116.597 107.603 116.58 109.71C116.58 115.22 119.01 118.1 121.06 119.54C123.65 121.37 127.06 122.26 131.54 122.26C135.498 122.216 139.446 121.838 143.34 121.13C147.902 120.319 152.39 119.138 156.76 117.6C158.54 116.98 160.52 116.25 162.84 115.39C165.16 114.53 167.52 113.57 169.91 112.51C172.3 111.45 174.69 110.33 176.99 109.16C179.23 108.018 181.397 106.739 183.48 105.33C185.382 104.052 187.124 102.551 188.67 100.86C190.247 99.2045 191.292 97.1146 191.67 94.8598C191.801 94.0567 191.76 93.2349 191.55 92.4488C191.339 91.6628 190.965 90.9303 190.45 90.2998C189.711 89.44 188.788 88.7567 187.75 88.2998C186.846 87.8945 185.89 87.6152 184.91 87.4698C184.176 87.349 183.434 87.2855 182.69 87.2798H182.6C180.048 87.3117 177.521 87.7993 175.14 88.7198C173.012 89.5606 170.938 90.5325 168.93 91.6298C166.93 92.7098 164.81 93.8798 162.56 95.1298C160.222 96.3955 157.78 97.4593 155.26 98.3098C152.287 99.3574 149.247 100.203 146.16 100.84C144.41 101.2 142.8 101.46 141.37 101.61L139.37 101.82L139.83 99.3798C140.18 97.5798 140.61 95.5998 141.12 93.4898C141.63 91.3798 142.12 89.2998 142.73 87.3098C142.91 86.6998 143.06 86.1698 143.2 85.7198L143.45 84.8998L145.67 84.3598C146.75 84.1098 147.76 83.8298 148.67 83.5398C149.58 83.2498 150.59 82.8998 151.67 82.4898C152.75 82.0798 154.08 81.4898 155.92 80.7798C157.76 80.0698 160.09 79.0898 163.01 77.9198C165.93 76.7498 169.68 75.2898 174.29 73.4998C175.08 73.2298 176.2 72.8698 177.72 72.3798L182.85 70.6098C184.67 70.0298 186.39 69.4498 187.97 68.8898C189.204 68.49 190.41 68.009 191.58 67.4498H191.66C193.705 66.392 195.563 65.0071 197.16 63.3498C198.991 61.4488 200.01 58.9093 200 56.2698C199.99 55.4202 199.808 54.5814 199.464 53.8044C199.121 53.0274 198.622 52.3284 198 51.7498C196.69 50.4998 194.75 49.8898 192.06 49.8898C189.924 50.0023 187.81 50.3682 185.76 50.9798C183.25 51.6298 180.35 52.4598 177.14 53.4198C173.93 54.3798 170.59 55.4198 167.14 56.5198L157.4 59.6098L153.69 60.7598L150.85 61.6198L153.25 54.8598C153.78 53.3698 154.25 51.9598 154.73 50.6398C155.21 49.3198 155.58 48.1898 155.95 47.1998C156.39 46.0198 156.61 45.4798 156.72 45.1998L156.78 45.0698C157.564 43.1421 158.662 41.3579 160.03 39.7898C161.477 38.2386 163.269 37.0498 165.26 36.3198H165.37L168.74 35.2698C170.2 34.8165 171.79 34.3465 173.51 33.8598L178.83 32.3098C180.59 31.7898 182.23 31.3098 183.72 30.9398C185.21 30.5698 186.61 30.1498 187.72 29.8398L188 29.7598L187.95 29.2198L190.95 28.7598L191.02 29.0498L192.72 28.7398L197.85 27.8498L202.9 26.9898C204.49 26.7198 205.28 26.5798 205.72 26.4898H205.88C207.584 26.3826 209.266 26.0463 210.88 25.4898C212.253 24.9997 213.539 24.2942 214.69 23.3998C215.768 22.5644 216.647 21.4984 217.26 20.2798C217.79 19.2095 218.074 18.0341 218.09 16.8398C218.092 15.5776 217.764 14.3368 217.14 13.2398C216.374 11.9563 215.238 10.9349 213.88 10.3098C212.511 9.66798 211.056 9.22998 209.56 9.00979C207.576 8.7005 205.568 8.56002 203.56 8.58981C201.23 8.58981 198.88 8.6898 196.56 8.8898C194.24 9.0898 191.85 9.4098 189.35 9.8298C186.85 10.2498 184.24 10.7798 181.5 11.4198C178.76 12.0598 175.82 12.7998 172.63 13.6698L172.27 13.7898C171.673 13.9907 171.066 14.1576 170.45 14.2898C169.52 14.5098 168.45 14.7498 167.31 14.9798L165.76 15.2898L164.76 15.4898L164.22 14.6098C163.44 13.4761 162.415 12.5328 161.22 11.8498C159.233 10.6628 156.943 10.0791 154.63 10.1698V10.1998Z" fill="black"/>
<path d="M303.08 21.3598C302.278 18.5715 300.917 15.9755 299.08 13.7298C297.41 11.7317 295.44 10.0045 293.24 8.60978C291.113 7.26982 288.825 6.20466 286.43 5.43977C284.252 4.73482 282.026 4.18348 279.77 3.78977C277.696 3.42725 275.603 3.19016 273.5 3.07978C271.6 2.97978 269.92 2.92979 268.5 2.92979C265.98 2.92979 263.84 2.97978 262.14 3.07978C260.44 3.17978 259.06 3.27979 257.87 3.36979C256.68 3.45979 255.58 3.56978 254.63 3.66978C253.049 3.86675 251.447 3.81955 249.88 3.52979C248.895 3.33271 247.92 3.08571 246.96 2.78977H246.88C245.76 2.46977 244.61 2.17978 243.47 1.94978C242.069 1.65593 240.642 1.50847 239.21 1.50977C235.03 1.50977 231.72 2.80978 229.39 5.35978C227.248 7.89011 225.779 10.9204 225.12 14.1698V14.2398C224.751 15.7761 224.56 17.3498 224.55 18.9298C224.545 20.235 224.639 21.5387 224.83 22.8298C224.937 23.5581 224.987 24.2937 224.98 25.0298C224.983 26.1864 224.913 27.342 224.77 28.4898C224.63 29.6498 224.42 30.7998 224.18 31.9298C223.94 33.0598 223.61 34.3798 223.29 35.6198C222.97 36.8598 222.6 38.3598 222.29 39.7998C219.6 50.6098 216.77 61.4798 213.88 72.1098C210.99 82.7398 208.12 93.7198 205.4 104.68V104.77C205.22 105.55 205.07 106.36 204.96 107.2C204.829 108.114 204.763 109.036 204.76 109.96C204.71 112.513 205.405 115.026 206.76 117.19C207.76 118.8 210.29 121.5 215.52 121.5C217.749 121.505 219.927 120.828 221.76 119.56C223.496 118.373 224.928 116.793 225.94 114.95L226.28 114.34L226.45 113.67C226.59 113.11 226.8 112.29 227.1 111.18C227.4 110.07 227.76 108.78 228.16 107.36C228.56 105.94 229 104.36 229.46 102.76C229.92 101.16 230.34 99.6098 230.77 98.1498C231.2 96.6898 231.6 95.2298 231.94 93.9598L232.73 91.0098L235.65 79.4998L235.9 79.5898L237.19 80.0498L238.54 79.8098C239.7 79.6098 240.93 79.3598 242.19 79.0798C243.121 78.8861 244.07 78.7956 245.02 78.8098H246.1C247.954 78.8259 249.783 79.2313 251.47 79.9998C253.654 80.9593 255.707 82.1925 257.58 83.6698C259.718 85.3489 261.669 87.2532 263.4 89.3498C265.32 91.6459 267.074 94.0753 268.65 96.6198C270.025 98.8623 271.235 101.202 272.27 103.62C273.38 106.23 274.47 108.62 275.52 110.73C276.558 112.891 277.873 114.908 279.43 116.73C280.429 117.884 281.668 118.807 283.06 119.434C284.452 120.061 285.964 120.377 287.49 120.36C289.409 120.364 291.3 119.901 293 119.01C294.523 118.2 295.88 117.111 297 115.8C298.054 114.555 298.905 113.151 299.52 111.64C300.236 109.898 300.57 108.023 300.501 106.141C300.432 104.26 299.961 102.415 299.12 100.73C296.82 95.8798 294.57 91.5998 292.43 87.9998C290.49 84.7015 288.374 81.5101 286.09 78.4398C284.23 75.9513 282.199 73.5955 280.01 71.3898C278.165 69.5515 276.179 67.8597 274.07 66.3298C273.31 65.7898 272.55 65.2698 271.79 64.7898C273.61 63.8398 275.49 62.7898 277.39 61.7898C279.46 60.6498 281.32 59.5198 282.93 58.4398C286.755 55.9374 290.331 53.0744 293.61 49.8898C296.708 46.8803 299.316 43.405 301.34 39.5898C303.161 36.207 304.129 32.4312 304.16 28.5898C304.156 27.4727 304.079 26.357 303.93 25.2498C303.757 23.9314 303.473 22.6301 303.08 21.3598V21.3598ZM243.08 52.0998C243.84 49.4331 244.604 46.7931 245.37 44.1798C246.13 41.5598 246.84 39.0898 247.51 36.7998C248.18 34.5098 248.78 32.4798 249.32 30.6798C249.49 30.1198 249.65 29.5898 249.8 29.1098C252.008 28.4493 254.265 27.9711 256.55 27.6798C259.755 27.2771 262.981 27.0734 266.21 27.0698C267.98 27.0698 269.93 27.1498 272.02 27.3098C273.741 27.4257 275.446 27.7138 277.11 28.1698C278.091 28.4186 279.013 28.8606 279.82 29.4698C279.827 29.5363 279.827 29.6033 279.82 29.6698C279.696 30.5825 279.298 31.4364 278.68 32.1198C277.232 33.9528 275.577 35.6136 273.75 37.0698C271.386 38.9861 268.897 40.7433 266.3 42.3298C263.43 44.0998 260.51 45.7698 257.64 47.3298C254.77 48.8898 252 50.2098 249.39 51.3798C246.78 52.5498 244.61 53.4398 242.88 54.0598L242.47 54.2098L243.08 52.0998Z" fill="#FFCB89"/>
<path d="M215.51 122.98C209.57 122.98 206.68 119.85 205.51 117.98C203.993 115.59 203.201 112.811 203.23 109.98C203.229 108.976 203.299 107.974 203.44 106.98C203.56 106.1 203.72 105.24 203.91 104.42V104.32C206.64 93.32 209.49 82.38 212.4 71.7C215.31 61.02 218.12 50.24 220.81 39.43C221.14 37.99 221.49 36.58 221.81 35.24C222.13 33.9 222.42 32.78 222.68 31.59C222.94 30.4 223.11 29.4 223.26 28.29C223.391 27.205 223.455 26.1129 223.45 25.02C223.46 24.3509 223.416 23.6822 223.32 23.02C223.111 21.6534 223.011 20.2724 223.02 18.89C223.037 17.2065 223.239 15.5299 223.62 13.89C224.338 10.3638 225.934 7.07562 228.26 4.32999C230.89 1.45999 234.57 7.10432e-06 239.19 7.10432e-06C240.725 -0.00121897 242.257 0.156255 243.76 0.469978C244.93 0.709978 246.12 1.01 247.27 1.34H247.37C248.27 1.61 249.2 1.84999 250.16 2.03999C251.576 2.29602 253.022 2.33647 254.45 2.15998C255.45 2.05998 256.5 1.95999 257.73 1.85999C258.96 1.75999 260.33 1.66 262.03 1.56C263.73 1.46 265.93 1.40998 268.48 1.40998C269.93 1.40998 271.64 1.46 273.56 1.56C275.719 1.68202 277.869 1.92572 280 2.28999C282.327 2.69334 284.623 3.26145 286.87 3.99C289.384 4.79376 291.787 5.91265 294.02 7.31998C296.354 8.79614 298.442 10.6283 300.21 12.75C302.182 15.1487 303.642 17.9257 304.5 20.91C304.905 22.2377 305.206 23.5952 305.4 24.97C305.557 26.1401 305.638 27.3193 305.64 28.5C305.61 32.5991 304.58 36.6291 302.64 40.24C300.543 44.19 297.844 47.7897 294.64 50.91C291.294 54.1653 287.64 57.0889 283.73 59.64C282.11 60.74 280.2 61.89 278.09 63.05C276.95 63.68 275.81 64.3 274.69 64.89L274.92 65.06C277.095 66.6314 279.141 68.3736 281.04 70.27C283.283 72.5276 285.365 74.9402 287.27 77.49C289.586 80.602 291.732 83.8367 293.7 87.18C295.86 90.82 298.14 95.18 300.46 100.03C301.388 101.904 301.907 103.954 301.981 106.044C302.055 108.133 301.683 110.215 300.89 112.15C300.219 113.813 299.284 115.356 298.12 116.72C296.878 118.18 295.367 119.389 293.67 120.28C291.755 121.289 289.624 121.814 287.46 121.81C285.72 121.832 283.997 121.472 282.411 120.757C280.826 120.042 279.415 118.988 278.28 117.67C276.632 115.754 275.243 113.629 274.15 111.35C273.09 109.22 271.98 106.8 270.86 104.15C269.851 101.805 268.675 99.5358 267.34 97.36C265.802 94.8795 264.091 92.5103 262.22 90.27C260.556 88.2596 258.682 86.4326 256.63 84.82C254.857 83.4184 252.916 82.2459 250.85 81.33C249.347 80.6503 247.72 80.2893 246.07 80.27H244.99C244.147 80.2561 243.305 80.3366 242.48 80.51C241.21 80.79 239.96 81.04 238.76 81.25L237.03 81.55L236.67 81.42L233.36 94.3C233.01 95.59 232.62 97 232.18 98.52C231.74 100.04 231.32 101.52 230.87 103.12C230.42 104.72 229.98 106.29 229.57 107.73C229.16 109.17 228.82 110.41 228.52 111.53C228.22 112.65 228.01 113.44 227.87 113.99L227.66 114.86L227.22 115.64C226.091 117.689 224.499 119.446 222.57 120.77C220.494 122.203 218.033 122.974 215.51 122.98ZM239.21 2.97999C235.47 2.97999 232.53 4.11 230.5 6.34C228.53 8.68499 227.182 11.4876 226.58 14.49C226.234 15.935 226.053 17.4144 226.04 18.9C226.033 20.1249 226.12 21.3485 226.3 22.56C226.423 23.3674 226.48 24.1834 226.47 25C226.475 26.2201 226.401 27.4393 226.25 28.65C226.1 29.85 225.89 31.06 225.63 32.22C225.37 33.38 225.06 34.71 224.73 35.97C224.4 37.23 224.05 38.68 223.73 40.11C221.03 50.97 218.2 61.85 215.31 72.47C212.42 83.09 209.55 94.07 206.84 105.01C206.65 105.81 206.51 106.58 206.4 107.37C206.281 108.218 206.221 109.074 206.22 109.93C206.186 112.2 206.816 114.431 208.03 116.35C208.89 117.7 211.03 119.97 215.53 119.97C217.458 119.969 219.341 119.383 220.93 118.29C222.473 117.235 223.744 115.83 224.64 114.19L224.88 113.75L225 113.27C225.14 112.71 225.36 111.88 225.67 110.76C225.98 109.64 226.33 108.35 226.73 106.93C227.13 105.51 227.56 103.93 228.02 102.32C228.48 100.71 228.91 99.17 229.33 97.7C229.75 96.23 230.16 94.8 230.5 93.54L231.29 90.59L234.62 77.47L237.33 78.47L238.33 78.31C239.48 78.11 240.68 77.87 241.91 77.59C242.949 77.3729 244.009 77.2689 245.07 77.28H246.15C248.219 77.2918 250.263 77.7381 252.15 78.59C254.446 79.6068 256.606 80.9069 258.58 82.46C260.787 84.2045 262.799 86.1827 264.58 88.36C266.545 90.7051 268.34 93.1881 269.95 95.79C271.365 98.0972 272.611 100.503 273.68 102.99C274.78 105.58 275.86 107.99 276.9 109.99C277.874 112.035 279.115 113.941 280.59 115.66C281.447 116.656 282.511 117.452 283.708 117.993C284.905 118.534 286.206 118.806 287.52 118.79C289.195 118.795 290.847 118.389 292.33 117.61C293.693 116.896 294.905 115.925 295.9 114.75C296.852 113.633 297.618 112.37 298.17 111.01C298.805 109.463 299.102 107.798 299.042 106.127C298.981 104.456 298.565 102.817 297.82 101.32C295.53 96.49 293.3 92.25 291.18 88.69C289.27 85.4413 287.184 82.3 284.93 79.28C283.119 76.8429 281.134 74.5402 278.99 72.39C277.206 70.6045 275.283 68.9627 273.24 67.48C272.5 66.95 271.75 66.48 271.02 65.98L268.85 64.61L271.15 63.42C272.96 62.47 274.83 61.47 276.72 60.42C278.61 59.37 280.57 58.2 282.14 57.14C285.89 54.6921 289.396 51.8892 292.61 48.77C295.592 45.869 298.105 42.5224 300.06 38.85C301.774 35.6677 302.684 32.1145 302.71 28.5C302.708 27.4499 302.637 26.401 302.5 25.36C302.325 24.1479 302.058 22.9511 301.7 21.78V21.78C300.957 19.1846 299.691 16.7685 297.98 14.68C296.416 12.796 294.563 11.1724 292.49 9.87C290.471 8.60334 288.301 7.59544 286.03 6.87C283.917 6.18856 281.758 5.65724 279.57 5.28001C277.555 4.93027 275.521 4.69654 273.48 4.57999C271.61 4.48999 269.96 4.43998 268.56 4.43998C266.07 4.43998 263.96 4.49 262.29 4.59C260.62 4.69 259.24 4.77998 258.05 4.87998L254.85 5.16999C253.116 5.38869 251.358 5.3347 249.64 5.00999C248.628 4.80365 247.626 4.54667 246.64 4.24C245.49 3.91 244.38 3.64 243.27 3.4C241.934 3.12352 240.574 2.98611 239.21 2.99V2.97999ZM240.21 56.59L241.63 51.67C242.39 49.0033 243.153 46.3633 243.92 43.75C244.68 41.13 245.39 38.66 246.06 36.37C246.73 34.08 247.33 32.04 247.88 30.24L248.58 27.9L249.36 27.67C251.648 26.9797 253.989 26.4813 256.36 26.18C259.627 25.769 262.917 25.562 266.21 25.56C268.01 25.56 270 25.65 272.13 25.81C273.953 25.9279 275.759 26.2328 277.52 26.72C278.695 27.0197 279.797 27.5538 280.76 28.29L281.24 28.67L281.31 29.28C281.317 29.4066 281.317 29.5334 281.31 29.66C281.196 30.9085 280.688 32.0886 279.86 33.03C278.338 34.9502 276.604 36.6914 274.69 38.22C272.271 40.1787 269.725 41.9759 267.07 43.6C264.17 45.39 261.23 47.07 258.33 48.6C255.43 50.13 252.63 51.51 249.99 52.69C247.35 53.87 245.14 54.79 243.38 55.42L240.21 56.59ZM250.99 30.32L250.75 31.1C250.21 32.9 249.6 34.94 248.94 37.21C248.28 39.48 247.56 41.96 246.8 44.59C246.11 46.95 245.43 49.31 244.74 51.69C245.94 51.2 247.29 50.62 248.74 49.96C251.31 48.8 254.06 47.45 256.9 45.96C259.74 44.47 262.62 42.81 265.47 41.05C268.012 39.5011 270.447 37.7839 272.76 35.91C274.497 34.5268 276.07 32.9499 277.45 31.21C277.701 30.8981 277.922 30.5633 278.11 30.21C277.645 29.9783 277.16 29.7908 276.66 29.65C275.087 29.2248 273.476 28.9568 271.85 28.85C269.8 28.69 267.85 28.61 266.16 28.61C262.99 28.6103 259.824 28.8107 256.68 29.21C254.761 29.4395 252.862 29.8139 251 30.33L250.99 30.32Z" fill="black"/>
<path d="M405.35 21.3598C404.552 18.5698 403.191 15.973 401.35 13.7298C399.682 11.7293 397.712 10.0018 395.51 8.60978C393.383 7.26982 391.095 6.20466 388.7 5.43977C386.522 4.73261 384.297 4.18123 382.04 3.78977C379.97 3.42726 377.88 3.19017 375.78 3.07978C373.88 2.97978 372.19 2.92979 370.78 2.92979C368.25 2.92979 366.11 2.97978 364.41 3.07978C362.71 3.17978 361.34 3.27979 360.14 3.36979C358.94 3.45979 357.85 3.56978 356.9 3.66978C355.322 3.86683 353.724 3.81962 352.16 3.52979C351.175 3.33388 350.2 3.08686 349.24 2.78977H349.15C348.03 2.46977 346.88 2.17978 345.74 1.94978C344.343 1.65591 342.919 1.50844 341.49 1.50977C337.3 1.50977 333.99 2.80978 331.66 5.35978C329.518 7.88854 328.052 10.9199 327.4 14.1698V14.2398C327.039 15.7773 326.852 17.3505 326.841 18.9298C326.833 20.2347 326.922 21.5384 327.11 22.8298C327.226 23.5573 327.279 24.2933 327.27 25.0298C327.273 26.1864 327.203 27.342 327.06 28.4898C326.91 29.6498 326.71 30.8098 326.46 31.9298C326.21 33.0498 325.891 34.3698 325.571 35.6198C325.251 36.8698 324.881 38.3698 324.571 39.7998C321.881 50.5998 319.05 61.4698 316.15 72.1098C313.25 82.7498 310.4 93.7198 307.67 104.68V104.77C307.49 105.54 307.34 106.36 307.23 107.19C307.103 108.108 307.039 109.033 307.04 109.96C306.994 112.512 307.689 115.024 309.04 117.19C310.04 118.8 312.58 121.5 317.8 121.5C320.03 121.505 322.207 120.828 324.04 119.56C325.779 118.376 327.212 116.796 328.22 114.95L328.56 114.34L328.73 113.67C328.87 113.11 329.09 112.29 329.39 111.18C329.69 110.07 330.04 108.78 330.39 107.36C330.74 105.94 331.23 104.36 331.69 102.76C332.15 101.16 332.57 99.6098 333 98.1498C333.43 96.6898 333.83 95.2298 334.17 93.9498L334.96 91.0098L337.88 79.4998L338.14 79.5898L339.43 80.0498L340.77 79.8098C341.94 79.6098 343.17 79.3598 344.42 79.0798C345.354 78.8859 346.307 78.7953 347.26 78.8098H348.33C350.187 78.8269 352.019 79.2322 353.71 79.9998C355.9 80.9406 357.963 82.1535 359.85 83.6098C361.984 85.2941 363.934 87.1979 365.67 89.2898C367.587 91.586 369.338 94.0155 370.91 96.5598C372.292 98.8 373.505 101.14 374.54 103.56C375.64 106.17 376.74 108.56 377.79 110.67C378.826 112.832 380.141 114.849 381.7 116.67C382.698 117.826 383.936 118.75 385.328 119.377C386.721 120.004 388.234 120.319 389.76 120.3C391.676 120.303 393.564 119.84 395.26 118.95C396.781 118.137 398.137 117.048 399.26 115.74C400.311 114.494 401.158 113.09 401.77 111.58C402.426 109.994 402.765 108.296 402.77 106.58C402.772 104.52 402.3 102.488 401.39 100.64C399.08 95.7898 396.83 91.5098 394.69 87.9098C392.75 84.6114 390.634 81.4201 388.35 78.3498C386.493 75.8589 384.461 73.503 382.27 71.2998C380.427 69.4591 378.441 67.7672 376.33 66.2398C375.57 65.6998 374.81 65.1798 374.05 64.6998C375.87 63.7498 377.75 62.7498 379.65 61.6998C381.72 60.5598 383.59 59.4298 385.2 58.3398C389.024 55.844 392.597 52.984 395.87 49.7998C398.968 46.7903 401.576 43.3151 403.6 39.4998C405.421 36.117 406.389 32.3412 406.42 28.4998C406.419 27.3829 406.346 26.2672 406.2 25.1598C406.017 23.8727 405.733 22.6021 405.35 21.3598V21.3598ZM345.35 52.0998C346.11 49.4498 346.88 46.8098 347.64 44.1798C348.4 41.5498 349.12 39.0898 349.79 36.7998C350.46 34.5098 351.05 32.4798 351.6 30.6798C351.77 30.1198 351.931 29.5998 352.071 29.1098C354.278 28.4503 356.535 27.9721 358.821 27.6798C362.028 27.2771 365.258 27.0734 368.49 27.0698C370.25 27.0698 372.2 27.1498 374.29 27.3098C376.015 27.4266 377.723 27.7146 379.39 28.1698C380.37 28.4206 381.291 28.8624 382.1 29.4698C382.1 29.4698 382.1 29.5798 382.1 29.6698C381.969 30.5856 381.569 31.4418 380.95 32.1298C379.498 33.9568 377.844 35.6139 376.02 37.0698C373.656 38.9861 371.168 40.7433 368.571 42.3298C365.701 44.0998 362.79 45.7698 359.92 47.3298C357.05 48.8898 354.27 50.2098 351.66 51.3798C349.05 52.5498 346.88 53.4398 345.15 54.0598L344.74 54.2098L345.35 52.0998Z" fill="#FFCB89"/>
<path d="M317.78 122.98C311.84 122.98 308.95 119.85 307.78 117.98C306.263 115.59 305.471 112.811 305.5 109.98C305.501 108.977 305.568 107.975 305.7 106.98C305.83 106.1 305.98 105.24 306.17 104.42V104.31C308.89 93.31 311.75 82.37 314.66 71.7C317.57 61.03 320.38 50.23 323.06 39.43C323.39 38.01 323.74 36.59 324.06 35.24C324.38 33.89 324.67 32.78 324.93 31.59C325.19 30.4 325.37 29.4 325.51 28.29C325.645 27.2052 325.711 26.1131 325.71 25.02C325.716 24.3507 325.67 23.6819 325.57 23.02C325.37 21.6526 325.273 20.272 325.28 18.89C325.293 17.2061 325.493 15.529 325.88 13.89C326.59 10.3632 328.183 7.07405 330.51 4.32999C333.14 1.45999 336.82 6.58617e-06 341.45 6.58617e-06C342.982 -0.00117377 344.51 0.156304 346.01 0.469977C347.19 0.709977 348.37 1.01 349.52 1.34H349.62C350.52 1.61 351.46 1.84998 352.42 2.03998C353.835 2.29633 355.282 2.33678 356.71 2.15998C357.71 2.05998 358.71 1.95999 359.98 1.85999C361.25 1.75999 362.59 1.66 364.28 1.56C365.97 1.46 368.18 1.40998 370.74 1.40998C372.18 1.40998 373.89 1.46 375.82 1.56C377.975 1.68204 380.122 1.92574 382.25 2.28998C384.577 2.69334 386.873 3.26145 389.12 3.99C391.633 4.79605 394.035 5.9148 396.27 7.31998C398.604 8.79614 400.692 10.6283 402.46 12.75C404.43 15.15 405.89 17.9266 406.75 20.91C407.16 22.2365 407.461 23.5943 407.65 24.97C407.807 26.1401 407.888 27.3193 407.89 28.5C407.865 32.5998 406.835 36.6308 404.89 40.24C402.793 44.1904 400.094 47.7902 396.89 50.91C393.546 54.1649 389.892 57.0854 385.98 59.63C384.35 60.74 382.45 61.89 380.33 63.05C379.19 63.68 378.05 64.3 376.93 64.89L377.16 65.06C379.34 66.6286 381.39 68.371 383.29 70.27C385.53 72.5279 387.608 74.9405 389.51 77.49C391.829 80.5996 393.976 83.8345 395.94 87.18C398.11 90.83 400.38 95.18 402.7 100.03C403.628 101.904 404.147 103.954 404.221 106.044C404.295 108.133 403.923 110.215 403.13 112.15C402.46 113.811 401.528 115.354 400.37 116.72C399.123 118.179 397.609 119.387 395.91 120.28C393.999 121.289 391.87 121.814 389.71 121.81C387.969 121.832 386.244 121.472 384.657 120.757C383.069 120.042 381.657 118.988 380.52 117.67C378.875 115.753 377.49 113.628 376.4 111.35C375.33 109.21 374.22 106.79 373.1 104.15C372.097 101.802 370.921 99.5325 369.58 97.36C368.042 94.8819 366.334 92.5129 364.47 90.27C362.806 88.2596 360.932 86.4326 358.88 84.82C357.102 83.4203 355.158 82.2479 353.09 81.33C351.587 80.6492 349.959 80.2882 348.31 80.27H347.24C346.397 80.2556 345.555 80.3361 344.73 80.51C343.46 80.79 342.21 81.04 341.01 81.25L339.27 81.55L338.91 81.42L335.6 94.3C335.26 95.59 334.86 97 334.42 98.52C333.98 100.04 333.56 101.52 333.11 103.12C332.66 104.72 332.23 106.29 331.82 107.73C331.41 109.17 331.07 110.41 330.76 111.53C330.45 112.65 330.25 113.44 330.12 113.99L329.9 114.86L329.46 115.64C328.336 117.692 326.742 119.45 324.81 120.77C322.743 122.199 320.293 122.969 317.78 122.98V122.98ZM341.49 2.97999C337.74 2.97999 334.81 4.11 332.77 6.34C330.8 8.68499 329.452 11.4876 328.85 14.49C328.507 15.9353 328.33 17.4147 328.32 18.9C328.308 20.125 328.395 21.349 328.58 22.56C328.698 23.3679 328.754 24.1836 328.75 25C328.752 26.2204 328.675 27.4395 328.52 28.65C328.37 29.85 328.16 31.06 327.9 32.22C327.64 33.38 327.33 34.7 327 35.97C326.67 37.24 326.32 38.69 326 40.11C323.3 50.96 320.47 61.84 317.57 72.47C314.67 83.1 311.82 94.07 309.1 105.01C308.92 105.81 308.78 106.58 308.67 107.37C308.55 108.218 308.49 109.074 308.49 109.93C308.453 112.2 309.078 114.431 310.29 116.35C311.16 117.7 313.29 119.97 317.79 119.97C319.722 119.97 321.608 119.384 323.2 118.29C324.737 117.232 326.004 115.827 326.9 114.19L327.15 113.76L327.27 113.27C327.41 112.71 327.63 111.88 327.93 110.76C328.23 109.64 328.59 108.35 328.99 106.93C329.39 105.51 329.83 103.93 330.28 102.32C330.73 100.71 331.17 99.17 331.6 97.7C332.03 96.23 332.42 94.8 332.76 93.54L333.55 90.59L336.88 77.47L339.6 78.47L340.55 78.31C341.7 78.11 342.91 77.86 344.13 77.59C345.172 77.3729 346.235 77.2689 347.3 77.28H348.37C350.44 77.2909 352.484 77.7372 354.37 78.59C356.669 79.6066 358.833 80.9067 360.81 82.46C363.032 84.2044 365.06 86.1824 366.86 88.36C368.819 90.7101 370.613 93.1927 372.23 95.79C373.642 98.0984 374.889 100.504 375.96 102.99C377.05 105.58 378.13 107.94 379.17 109.99C380.148 112.033 381.388 113.939 382.86 115.66C383.717 116.657 384.784 117.454 385.983 117.995C387.182 118.536 388.485 118.807 389.8 118.79C391.475 118.793 393.126 118.388 394.61 117.61C395.969 116.899 397.178 115.931 398.17 114.76C399.12 113.638 399.886 112.372 400.44 111.01C401.075 109.463 401.372 107.798 401.312 106.127C401.251 104.456 400.835 102.817 400.09 101.32C397.8 96.5 395.57 92.26 393.45 88.69C391.54 85.4439 389.457 82.3027 387.21 79.28C385.399 76.8429 383.414 74.5402 381.27 72.39C379.482 70.6043 377.556 68.9625 375.51 67.48C374.77 66.95 374.02 66.48 373.29 65.98L371.12 64.58L373.41 63.39C375.22 62.45 377.09 61.44 378.98 60.39C380.87 59.34 382.84 58.17 384.4 57.11C388.151 54.6641 391.658 51.861 394.87 48.74C397.857 45.84 400.371 42.4893 402.32 38.81C404.035 35.6318 404.945 32.0814 404.97 28.47C404.968 27.4199 404.898 26.371 404.76 25.33C404.595 24.1162 404.327 22.9186 403.96 21.75V21.75C403.212 19.1566 401.946 16.7414 400.24 14.65C398.672 12.7706 396.819 11.1478 394.75 9.84C392.727 8.57323 390.554 7.56536 388.28 6.84C386.17 6.15853 384.015 5.62721 381.83 5.25001C379.815 4.90137 377.782 4.66765 375.74 4.54999C373.86 4.45999 372.21 4.40998 370.82 4.40998C368.32 4.40998 366.21 4.46 364.54 4.56C362.87 4.66 361.54 4.74998 360.3 4.84998L357.1 5.13999C355.369 5.35896 353.614 5.30497 351.9 4.97999C350.85 4.76999 349.82 4.51 348.84 4.21C347.69 3.88 346.58 3.61 345.47 3.37C344.16 3.10883 342.826 2.9815 341.49 2.99V2.97999ZM342.49 56.59L343.91 51.67C344.67 49.0033 345.433 46.3633 346.2 43.75L348.35 36.37C349.01 34.09 349.62 32.04 350.16 30.24L350.87 27.9L351.64 27.67C353.928 26.9806 356.269 26.4822 358.64 26.18C361.911 25.769 365.203 25.562 368.5 25.56C370.3 25.56 372.29 25.65 374.41 25.81C376.233 25.9271 378.04 26.232 379.8 26.72C380.977 27.0216 382.082 27.5554 383.05 28.29L383.51 28.66L383.59 29.26C383.599 29.3932 383.599 29.5268 383.59 29.66C383.476 30.9104 382.964 32.0914 382.13 33.03C380.611 34.9526 378.876 36.6941 376.96 38.22C374.544 40.1787 372.002 41.9759 369.35 43.6C366.45 45.39 363.51 47.07 360.61 48.6C357.71 50.13 354.91 51.51 352.27 52.69C349.63 53.87 347.41 54.79 345.65 55.42L342.49 56.59ZM353.27 30.32L353.03 31.1C352.49 32.9 351.89 34.9367 351.23 37.21L349.08 44.59C348.39 46.95 347.71 49.31 347.08 51.69C348.28 51.2 349.63 50.62 351.08 49.96C353.66 48.8 356.41 47.45 359.25 45.96C362.09 44.47 364.97 42.81 367.81 41.05C370.353 39.5035 372.789 37.7862 375.1 35.91C376.837 34.5268 378.41 32.9499 379.79 31.21C380.044 30.9006 380.265 30.5654 380.45 30.21C379.986 29.9767 379.5 29.7892 379 29.65C377.43 29.2248 375.823 28.9568 374.2 28.85C372.15 28.69 370.2 28.61 368.51 28.61C365.341 28.6103 362.174 28.8107 359.03 29.21C357.084 29.4359 355.158 29.8104 353.27 30.33V30.32Z" fill="black"/>
<path d="M500.9 15.67C498.868 13.7758 496.492 12.289 493.9 11.29C491.309 10.2645 488.547 9.73859 485.76 9.74001C484.424 9.73874 483.089 9.80883 481.76 9.95C480.209 10.1007 478.692 10.5026 477.27 11.14C477.002 11.2573 476.742 11.3909 476.49 11.54C475.415 10.7086 474.226 10.0351 472.96 9.54C471.061 8.8482 469.051 8.5093 467.03 8.54C465.209 8.53661 463.395 8.76172 461.63 9.21001C459.526 9.80302 457.543 10.7609 455.77 12.04L455.51 12.23C452.15 14.85 448.77 17.77 445.44 20.9C442.11 24.03 438.85 27.4 435.73 30.9C432.61 34.4 429.62 38.11 426.84 41.9C424.083 45.6364 421.529 49.5187 419.19 53.53C416.961 57.3599 414.958 61.3166 413.19 65.38C411.518 69.2075 410.18 73.1722 409.19 77.23C408.67 79.2897 408.282 81.3807 408.03 83.49C407.8 85.5152 407.683 87.5517 407.68 89.59C407.629 94.1786 408.408 98.7386 409.98 103.05C411.485 107.168 413.866 110.91 416.958 114.017C420.05 117.125 423.78 119.525 427.89 121.05C432.395 122.714 437.168 123.534 441.97 123.47C447.33 123.471 452.662 122.713 457.81 121.22C462.935 119.742 467.871 117.675 472.52 115.06C477.235 112.404 481.657 109.256 485.71 105.67C489.81 102.045 493.545 98.0253 496.86 93.67C500.199 89.2927 503.109 84.6044 505.55 79.67C508.005 74.7154 509.922 69.5125 511.27 64.15C512.74 58.5768 513.516 52.8434 513.58 47.08C513.616 41.1889 512.53 35.3448 510.38 29.86C508.309 24.4865 505.071 19.6398 500.9 15.67V15.67ZM488.18 35.48C489.236 36.951 489.99 38.6163 490.4 40.38C490.928 42.5807 491.19 44.8368 491.18 47.1C491.177 48.6974 491.084 50.2933 490.9 51.88C490.722 53.4306 490.425 54.9652 490.01 56.47V56.53C488.899 60.8235 487.375 64.9996 485.46 69C483.625 72.8152 481.461 76.4625 478.99 79.9C476.684 83.0966 474.068 86.0577 471.18 88.74C468.507 91.2294 465.592 93.447 462.48 95.36C459.684 97.087 456.68 98.4513 453.54 99.42C450.726 100.297 447.797 100.752 444.85 100.77C442.721 100.793 440.6 100.513 438.55 99.94C436.995 99.512 435.538 98.7852 434.26 97.8C433.197 96.9444 432.354 95.8473 431.8 94.6C431.141 93.0562 430.823 91.388 430.87 89.71C430.905 87.9213 431.129 86.1413 431.54 84.4C432.461 80.5064 433.802 76.7242 435.54 73.12C437.539 68.9343 439.807 64.8824 442.33 60.99C444.975 56.9143 447.839 52.9852 450.91 49.22C454.03 45.41 457.19 41.84 460.32 38.62L460.48 38.45C460.786 38.091 461.121 37.7566 461.48 37.45C462.06 36.97 462.68 36.5 463.32 36.04L463.48 35.93C463.886 36.2352 464.31 36.5157 464.75 36.77C466.195 37.5977 467.835 38.0257 469.5 38.01C471.081 38.0385 472.655 37.774 474.14 37.23C475.42 36.7463 476.599 36.0311 477.62 35.12C478.547 34.2782 479.328 33.288 479.93 32.19L480.42 31.25C481.786 31.3784 483.119 31.7439 484.36 32.33C485.874 33.0486 487.186 34.1308 488.18 35.48V35.48Z" fill="#FFCB89"/>
<path d="M442.04 124.91C437.054 124.971 432.098 124.117 427.42 122.39C423.093 120.759 419.163 118.227 415.89 114.96C412.7 111.714 410.232 107.828 408.65 103.56C407.009 99.0774 406.196 94.3338 406.25 89.5604C406.251 87.4652 406.371 85.3718 406.61 83.2904C406.87 81.1175 407.268 78.9632 407.8 76.8404C408.812 72.7044 410.177 68.6629 411.88 64.7604C413.672 60.6439 415.706 56.637 417.97 52.7604C420.336 48.6979 422.923 44.7686 425.72 40.9904C428.52 37.1904 431.54 33.4604 434.72 29.9004C437.9 26.3404 441.17 22.9004 444.52 19.7904C447.87 16.6804 451.3 13.6804 454.7 11.0304L454.99 10.8104C456.919 9.41888 459.079 8.37953 461.37 7.74038C463.255 7.25575 465.194 7.01379 467.14 7.02038C469.344 6.99913 471.533 7.37863 473.6 8.14037C474.701 8.56669 475.748 9.12045 476.72 9.79037H476.77C478.337 9.08508 480.01 8.6425 481.72 8.48037C483.085 8.33203 484.457 8.25859 485.83 8.26037C488.805 8.26206 491.752 8.82173 494.52 9.91036C497.274 10.9837 499.797 12.5759 501.95 14.6004V14.6004C506.298 18.6753 509.687 23.6656 511.87 29.2104C514.092 34.8697 515.216 40.9006 515.18 46.9804C515.114 52.8686 514.321 58.7262 512.82 64.4204C511.445 69.8815 509.494 75.1811 507 80.2304C504.513 85.2634 501.554 90.0483 498.16 94.5204C494.784 98.9599 490.979 103.056 486.8 106.75C482.671 110.409 478.165 113.62 473.36 116.33C468.62 119 463.586 121.111 458.36 122.62C453.056 124.154 447.561 124.925 442.04 124.91ZM467.11 10.0204C465.424 10.0168 463.744 10.2251 462.11 10.6404C460.174 11.1933 458.351 12.0799 456.72 13.2604L456.5 13.4204C453.21 15.9804 449.86 18.8704 446.57 21.9704C443.28 25.0704 440.05 28.4104 436.95 31.8904C433.85 35.3704 430.9 39.0404 428.15 42.7704C425.426 46.4624 422.903 50.2979 420.59 54.2604C418.383 58.0389 416.402 61.9459 414.66 65.9604C413.02 69.706 411.708 73.5873 410.74 77.5604C410.235 79.5644 409.857 81.5985 409.61 83.6504C409.382 85.6155 409.269 87.5921 409.27 89.5704C409.221 93.9775 409.966 98.3575 411.47 102.5C412.895 106.41 415.154 109.963 418.089 112.913C421.025 115.862 424.567 118.137 428.47 119.58C432.802 121.184 437.392 121.974 442.01 121.91C447.228 121.911 452.419 121.174 457.43 119.72C462.446 118.285 467.279 116.271 471.83 113.72C476.45 111.116 480.781 108.029 484.75 104.51C488.797 100.949 492.481 96.9967 495.75 92.7104C499.028 88.3918 501.888 83.771 504.29 78.9104C506.693 74.0509 508.571 68.9486 509.89 63.6904C511.336 58.2392 512.098 52.6296 512.16 46.9904C512.2 41.2901 511.147 35.635 509.06 30.3304C507.04 25.196 503.904 20.5746 499.88 16.8004V16.8004C498 15.0371 495.801 13.6489 493.4 12.7104C490.982 11.7606 488.408 11.2722 485.81 11.2704C484.541 11.2722 483.273 11.3389 482.01 11.4704C480.628 11.6048 479.277 11.9628 478.01 12.5304C477.788 12.6283 477.57 12.7385 477.36 12.8604L476.49 13.3804L475.69 12.7704C474.731 12.0235 473.67 11.4174 472.54 10.9704C470.803 10.3267 468.963 10.0048 467.11 10.0204V10.0204ZM444.85 102.27C442.576 102.294 440.31 101.994 438.12 101.38C436.378 100.899 434.747 100.08 433.32 98.9704C432.071 97.9697 431.08 96.6837 430.43 95.2204C429.686 93.4808 429.325 91.6018 429.37 89.7104C429.404 87.8143 429.639 85.9271 430.07 84.0804C431.029 80.076 432.417 76.1868 434.21 72.4804C436.235 68.2306 438.536 64.1184 441.1 60.1704C443.766 56.0484 446.661 52.0789 449.77 48.2804C452.91 44.4304 456.1 40.8304 459.26 37.5704L459.4 37.4304C459.765 37.0379 460.16 36.6735 460.58 36.3404C461.19 35.8304 461.84 35.3404 462.51 34.8604L463.57 34.1204L464.43 34.7704C464.789 35.0435 465.166 35.2908 465.56 35.5104C466.781 36.1942 468.162 36.5394 469.56 36.5104C470.957 36.5427 472.348 36.312 473.66 35.8304C475.8 35.0306 477.577 33.4813 478.66 31.4704C478.82 31.1704 478.98 30.8704 479.13 30.5704L479.6 29.6404L480.6 29.7604C482.141 29.9075 483.643 30.3239 485.04 30.9904C486.747 31.8103 488.229 33.0319 489.36 34.5504V34.5504C490.535 36.1826 491.375 38.0316 491.83 39.9904C492.387 42.3055 492.662 44.6793 492.65 47.0604C492.644 48.7145 492.547 50.3669 492.36 52.0104C492.172 53.6383 491.862 55.2496 491.43 56.8304C490.287 61.2302 488.723 65.5099 486.76 69.6104C484.891 73.5089 482.679 77.2336 480.15 80.7404C477.786 84.0148 475.107 87.0493 472.15 89.8004C469.401 92.3558 466.407 94.6336 463.21 96.6004C460.308 98.3917 457.19 99.8064 453.93 100.81C450.991 101.739 447.932 102.231 444.85 102.27V102.27ZM463.56 37.8104C463.19 38.0804 462.84 38.3604 462.5 38.6504C462.181 38.8916 461.884 39.1592 461.61 39.4504L461.44 39.6404C458.32 42.8604 455.18 46.3904 452.09 50.1704C449.055 53.8907 446.224 57.773 443.61 61.8004C441.121 65.6503 438.886 69.6589 436.92 73.8004C435.216 77.3131 433.902 81.0017 433 84.8004C432.611 86.4396 432.4 88.1159 432.37 89.8004C432.327 91.2604 432.596 92.7129 433.16 94.0604C433.607 95.0928 434.293 96.0044 435.16 96.7204C436.284 97.5824 437.564 98.2176 438.93 98.5904C440.844 99.1239 442.824 99.3831 444.81 99.3604C447.612 99.3421 450.396 98.9074 453.07 98.0704C456.087 97.1387 458.973 95.8282 461.66 94.1704C464.688 92.3069 467.525 90.1498 470.13 87.7304C472.938 85.1112 475.483 82.2242 477.73 79.1104C480.155 75.7484 482.277 72.1777 484.07 68.4404C485.946 64.5276 487.436 60.4417 488.52 56.2404C488.924 54.785 489.215 53.3006 489.39 51.8004C489.566 50.2699 489.656 48.7309 489.66 47.1904C489.672 45.0488 489.427 42.9135 488.93 40.8304C488.559 39.2527 487.879 37.7641 486.93 36.4504V36.4504C486.081 35.3179 484.968 34.4086 483.69 33.8004C482.915 33.4339 482.094 33.1716 481.25 33.0204V33.0204C480.571 34.2702 479.685 35.3961 478.63 36.3504C477.474 37.3861 476.134 38.1967 474.68 38.7404C473.025 39.3614 471.267 39.6634 469.5 39.6304C467.571 39.6512 465.672 39.1539 464 38.1904L463.56 37.8104Z" fill="black"/>
<path d="M591.9 58.3998C595.727 55.904 599.303 53.044 602.58 49.8598C605.678 46.8504 608.286 43.3751 610.31 39.5598C612.13 36.177 613.098 32.4013 613.13 28.5598C613.125 27.4427 613.048 26.327 612.9 25.2198C612.723 23.9251 612.439 22.6474 612.05 21.3998C611.248 18.6115 609.887 16.0155 608.05 13.7698C606.378 11.7691 604.405 10.0417 602.2 8.64982C600.077 7.30805 597.792 6.24276 595.4 5.47981C593.218 4.77377 590.989 4.22241 588.73 3.82981C586.659 3.46684 584.569 3.22975 582.47 3.11982C580.57 3.01982 578.89 2.9698 577.47 2.9698C574.95 2.9698 572.81 3.01982 571.11 3.11982C569.41 3.21982 568.03 3.3198 566.84 3.4098C565.65 3.4998 564.55 3.60982 563.6 3.70982C562.019 3.90679 560.417 3.85955 558.85 3.5698C557.865 3.37272 556.89 3.12574 555.93 2.82981H555.84C554.72 2.50981 553.58 2.21982 552.44 1.98982C551.039 1.69597 549.611 1.54851 548.18 1.54981C544 1.54981 540.69 2.84982 538.36 5.39982C536.217 7.93015 534.749 10.9605 534.09 14.2098V14.2798C533.729 15.8174 533.541 17.3905 533.53 18.9698C533.525 20.275 533.618 21.5787 533.81 22.8698C533.917 23.5982 533.967 24.3337 533.96 25.0698C533.963 26.2264 533.893 27.3821 533.75 28.5298C533.61 29.6898 533.4 30.8498 533.15 31.9698C532.9 33.0898 532.59 34.4198 532.27 35.6598C531.95 36.8998 531.58 38.3998 531.27 39.8398C528.59 50.6498 525.75 61.5198 522.86 72.1498C519.97 82.7798 517.1 93.7598 514.38 104.72V104.81C514.2 105.58 514.05 106.4 513.94 107.24C513.809 108.154 513.742 109.076 513.74 110C513.704 112.558 514.417 115.071 515.79 117.23C516.79 118.84 519.32 121.54 524.54 121.54C526.772 121.546 528.953 120.869 530.79 119.6C532.526 118.413 533.958 116.833 534.97 114.99L535.31 114.38L535.48 113.71C535.61 113.15 535.83 112.33 536.13 111.22C536.43 110.11 536.79 108.82 537.19 107.4C537.59 105.98 538.03 104.4 538.48 102.8C538.93 101.2 539.37 99.6498 539.79 98.1898C540.21 96.7298 540.63 95.2698 540.97 93.9998L541.76 91.0498L544.68 79.5398L544.93 79.6298L546.22 80.0898L547.57 79.8498C548.73 79.6498 549.96 79.3998 551.22 79.1198C552.151 78.9262 553.1 78.8356 554.05 78.8498H555.13C556.983 78.8659 558.813 79.2713 560.5 80.0398C562.684 80.9993 564.737 82.2325 566.61 83.7098C568.748 85.3889 570.699 87.2932 572.43 89.3898C574.347 91.6884 576.101 94.1176 577.68 96.6598C579.055 98.9023 580.265 101.242 581.3 103.66C582.41 106.27 583.5 108.66 584.55 110.77C585.586 112.932 586.9 114.949 588.46 116.77C589.458 117.925 590.697 118.848 592.089 119.475C593.481 120.102 594.993 120.418 596.52 120.4C598.439 120.404 600.33 119.941 602.03 119.05C603.553 118.24 604.91 117.151 606.03 115.84C607.084 114.595 607.935 113.191 608.55 111.68C609.259 109.937 609.59 108.063 609.521 106.182C609.452 104.301 608.984 102.457 608.15 100.77C605.85 95.9198 603.6 91.6398 601.46 88.0398C599.52 84.7415 597.404 81.5502 595.12 78.4798C593.26 75.9913 591.228 73.6356 589.04 71.4298C587.194 69.5915 585.208 67.8998 583.1 66.3698C582.34 65.8298 581.58 65.3098 580.82 64.8298C582.63 63.8798 584.51 62.8298 586.42 61.8298C588.43 60.6098 590.29 59.4898 591.9 58.3998ZM552.05 52.0998L554.33 44.1798C555.1 41.5598 555.81 39.0898 556.48 36.7998C557.15 34.5098 557.75 32.4798 558.29 30.6798C558.46 30.1198 558.62 29.5898 558.77 29.1098C560.977 28.4483 563.234 27.9701 565.52 27.6798C568.724 27.2772 571.95 27.0734 575.18 27.0698C576.95 27.0698 578.9 27.1498 580.98 27.3098C582.704 27.4257 584.413 27.7138 586.08 28.1698C587.061 28.4187 587.982 28.8606 588.79 29.4698C588.797 29.5363 588.797 29.6033 588.79 29.6698C588.663 30.585 588.266 31.4416 587.65 32.1298C586.198 33.9568 584.544 35.614 582.72 37.0698C580.356 38.9861 577.867 40.7433 575.27 42.3298C572.4 44.0998 569.48 45.7698 566.61 47.3298C563.74 48.8898 560.97 50.2098 558.36 51.3798C555.75 52.5498 553.58 53.4398 551.85 54.0598L551.44 54.2098L552.05 52.0998Z" fill="#FFCB89"/>
<path d="M524.47 122.98C518.54 122.98 515.65 119.85 514.47 117.98C512.953 115.59 512.161 112.811 512.19 109.98C512.189 108.976 512.259 107.974 512.4 106.98C512.52 106.1 512.68 105.24 512.87 104.42V104.31C515.6 93.31 518.45 82.38 521.36 71.7C524.27 61.02 527.08 50.24 529.77 39.43C530.1 38 530.45 36.58 530.77 35.24C531.09 33.9 531.39 32.78 531.65 31.59C531.91 30.4 532.08 29.41 532.23 28.29C532.361 27.205 532.424 26.1129 532.42 25.02C532.429 24.3509 532.386 23.6822 532.29 23.02C532.082 21.6533 531.982 20.2724 531.99 18.89C532.003 17.2061 532.204 15.529 532.59 13.89C533.304 10.3624 534.9 7.07323 537.23 4.32999C539.86 1.45999 543.54 7.10432e-06 548.16 7.10432e-06C549.695 -0.00121897 551.227 0.156255 552.73 0.469978C553.89 0.709978 555.07 1 556.24 1.34H556.34C557.24 1.61 558.17 1.84999 559.13 2.03999C560.545 2.29617 561.992 2.33663 563.42 2.15998C564.38 2.05998 565.47 1.95999 566.69 1.85999C567.9 1.75999 569.3 1.66 571 1.56C572.7 1.46 574.9 1.40998 577.45 1.40998C578.9 1.40998 580.61 1.46 582.53 1.56C584.689 1.68202 586.839 1.92572 588.97 2.28999C591.297 2.69334 593.593 3.26145 595.84 3.99C598.354 4.79376 600.757 5.91265 602.99 7.31998C605.322 8.79876 607.41 10.6306 609.18 12.75C611.15 15.15 612.61 17.9266 613.47 20.91C613.877 22.2374 614.178 23.595 614.37 24.97C614.527 26.1401 614.607 27.3193 614.61 28.5C614.58 32.5991 613.55 36.6291 611.61 40.24C609.512 44.19 606.814 47.7897 603.61 50.91C600.264 54.1596 596.614 57.0797 592.71 59.63C591.08 60.74 589.17 61.89 587.06 63.05C585.91 63.68 584.77 64.3 583.66 64.89L583.89 65.06C586.065 66.6314 588.112 68.3736 590.01 70.27C592.253 72.5276 594.335 74.9402 596.24 77.49C598.556 80.602 600.702 83.8367 602.67 87.18C604.83 90.82 607.11 95.18 609.43 100.04C610.352 101.914 610.867 103.962 610.941 106.049C611.015 108.136 610.646 110.215 609.86 112.15C609.187 113.812 608.252 115.354 607.09 116.72C605.848 118.18 604.337 119.389 602.64 120.28C600.726 121.289 598.594 121.814 596.43 121.81C594.69 121.833 592.966 121.474 591.38 120.759C589.794 120.044 588.384 118.989 587.25 117.67C585.602 115.754 584.213 113.629 583.12 111.35C582.06 109.22 580.95 106.79 579.83 104.15C578.821 101.805 577.645 99.5358 576.31 97.36C574.769 94.8811 573.058 92.5121 571.19 90.27C569.526 88.2596 567.652 86.4326 565.6 84.82C563.828 83.4184 561.886 82.2459 559.82 81.33C558.317 80.6503 556.689 80.2893 555.04 80.27H553.96C553.117 80.2561 552.275 80.3366 551.45 80.51C550.18 80.79 548.93 81.04 547.73 81.25L546 81.55L545.64 81.42L542.33 94.3C541.98 95.59 541.59 97 541.14 98.52C540.69 100.04 540.29 101.52 539.84 103.12C539.39 104.72 538.95 106.29 538.54 107.73C538.13 109.17 537.79 110.41 537.49 111.53C537.19 112.65 536.98 113.44 536.84 113.99L536.62 114.86L536.19 115.64C535.061 117.689 533.469 119.446 531.54 120.77C529.46 122.203 526.996 122.974 524.47 122.98V122.98ZM548.18 2.97999C544.43 2.97999 541.5 4.11 539.46 6.34C537.498 8.68859 536.154 11.4901 535.55 14.49C535.205 15.9351 535.024 17.4144 535.01 18.9C535.003 20.1249 535.09 21.3485 535.27 22.56C535.388 23.3679 535.444 24.1836 535.44 25C535.444 26.2201 535.371 27.4393 535.22 28.65C535.07 29.86 534.86 31.06 534.6 32.22C534.34 33.38 534.02 34.71 533.7 35.97C533.38 37.23 533.01 38.69 532.7 40.11C530 50.97 527.17 61.85 524.28 72.47C521.39 83.09 518.52 94.08 515.8 105.01C515.62 105.81 515.48 106.58 515.37 107.37C515.251 108.218 515.191 109.074 515.19 109.93C515.156 112.2 515.785 114.431 517 116.35C517.86 117.7 520 119.97 524.49 119.97C526.422 119.97 528.308 119.384 529.9 118.29C531.442 117.235 532.714 115.83 533.61 114.19L533.85 113.76L533.97 113.27C534.11 112.71 534.33 111.88 534.63 110.76C534.93 109.64 535.29 108.35 535.7 106.92L536.99 102.32C537.44 100.71 537.88 99.17 538.3 97.7C538.72 96.23 539.13 94.8 539.47 93.54L540.26 90.59L543.59 77.47L546.3 78.47L547.3 78.31C548.45 78.11 549.65 77.87 550.88 77.59C551.919 77.3729 552.978 77.2689 554.04 77.28H555.12C557.19 77.2918 559.234 77.7381 561.12 78.59C563.416 79.6068 565.577 80.9069 567.55 82.46C569.774 84.2017 571.803 86.18 573.6 88.36C575.561 90.7087 577.355 93.1914 578.97 95.79C580.385 98.0972 581.631 100.503 582.7 102.99C583.8 105.58 584.88 107.94 585.92 109.99C586.894 112.035 588.135 113.941 589.61 115.66C590.466 116.656 591.531 117.452 592.728 117.993C593.925 118.534 595.226 118.806 596.54 118.79C598.215 118.795 599.867 118.389 601.35 117.61C602.713 116.896 603.925 115.925 604.92 114.75C605.872 113.633 606.638 112.37 607.19 111.01C607.819 109.462 608.113 107.798 608.053 106.128C607.992 104.457 607.579 102.819 606.84 101.32C604.55 96.5 602.32 92.26 600.2 88.69C598.29 85.4413 596.204 82.3 593.95 79.28C592.139 76.8429 590.154 74.5402 588.01 72.39C586.228 70.6021 584.305 68.9602 582.26 67.48C581.52 66.95 580.77 66.48 580.04 65.98L577.86 64.58L580.16 63.39C581.95 62.45 583.82 61.45 585.72 60.39C587.62 59.33 589.59 58.17 591.15 57.11C594.894 54.6661 598.394 51.8664 601.6 48.75C604.582 45.849 607.095 42.5024 609.05 38.83C610.764 35.6478 611.674 32.0945 611.7 28.48C611.698 27.4299 611.628 26.381 611.49 25.34C611.317 24.1269 611.046 22.9297 610.68 21.76C609.939 19.1606 608.673 16.7408 606.96 14.65C605.396 12.766 603.543 11.1424 601.47 9.84C599.451 8.57334 597.281 7.56544 595.01 6.84C592.897 6.15856 590.738 5.62724 588.55 5.25001C586.535 4.90027 584.501 4.66654 582.46 4.54999C580.59 4.45999 578.93 4.40998 577.54 4.40998C575.05 4.40998 572.94 4.46 571.27 4.56C569.6 4.66 568.22 4.74998 567.03 4.84998L563.83 5.13999C562.095 5.35886 560.338 5.30487 558.62 4.97999C557.57 4.76999 556.54 4.51 555.56 4.21C554.41 3.88 553.3 3.6 552.2 3.37C550.876 3.10633 549.529 2.97899 548.18 2.99V2.97999ZM549.18 56.59L550.59 51.67C551.363 49.0033 552.126 46.3633 552.88 43.75L555.03 36.37C555.7 34.09 556.3 32.04 556.85 30.23L557.55 27.9L558.33 27.67C560.618 26.9797 562.959 26.4813 565.33 26.18C568.597 25.769 571.887 25.562 575.18 25.56C576.98 25.56 578.97 25.65 581.1 25.81C582.923 25.9279 584.729 26.2328 586.49 26.72C587.665 27.0197 588.767 27.5538 589.73 28.29L590.2 28.66L590.28 29.26C590.287 29.3932 590.287 29.5268 590.28 29.66C590.166 30.9085 589.658 32.0886 588.83 33.03C587.309 34.9502 585.574 36.6914 583.66 38.22C581.241 40.1787 578.695 41.9759 576.04 43.6C573.14 45.39 570.2 47.07 567.3 48.6C564.4 50.13 561.61 51.51 558.96 52.69C556.31 53.87 554.11 54.79 552.35 55.42L549.18 56.59ZM559.96 30.32L559.72 31.1C559.18 32.9 558.57 34.94 557.91 37.21L555.76 44.59L553.71 51.69C554.91 51.2 556.26 50.62 557.71 49.96C560.29 48.8 563.04 47.45 565.87 45.96C568.7 44.47 571.59 42.81 574.44 41.05C576.982 39.5011 579.417 37.7839 581.73 35.91C583.467 34.5268 585.04 32.9499 586.42 31.21C586.671 30.8981 586.892 30.5633 587.08 30.21C586.615 29.9783 586.129 29.7908 585.63 29.65C584.057 29.2248 582.446 28.9568 580.82 28.85C578.77 28.69 576.82 28.61 575.13 28.61C571.96 28.6103 568.794 28.8107 565.65 29.21C563.731 29.4395 561.832 29.8139 559.97 30.33L559.96 30.32Z" fill="black"/>
<path d="M293.13 43.61C292.695 43.607 292.269 43.4935 291.89 43.28C291.317 42.9491 290.898 42.4051 290.723 41.7664C290.549 41.1278 290.634 40.4462 290.96 39.87C295.23 32.39 296.2 26.13 293.86 21.24C289.79 12.75 276.86 10.6 276.77 10.58C276.446 10.5288 276.135 10.4141 275.855 10.2427C275.575 10.0713 275.331 9.84635 275.138 9.58078C274.945 9.3152 274.806 9.01415 274.729 8.69488C274.652 8.37561 274.639 8.04433 274.69 7.71997C274.741 7.3956 274.856 7.08451 275.028 6.80444C275.199 6.52436 275.424 6.28079 275.69 6.08764C275.955 5.8945 276.256 5.75555 276.575 5.67874C276.895 5.60193 277.226 5.58876 277.551 5.63998C278.181 5.73998 293.13 8.18999 298.36 19.06C301.47 25.51 300.441 33.35 295.301 42.35C295.083 42.7333 294.767 43.0519 294.385 43.2733C294.004 43.4947 293.571 43.6109 293.13 43.61V43.61Z" fill="white"/>
<path d="M396.97 45.61C396.535 45.6084 396.108 45.4947 395.73 45.28C395.444 45.1181 395.193 44.9011 394.992 44.6417C394.79 44.3823 394.641 44.0856 394.555 43.7686C394.469 43.4516 394.446 43.1207 394.488 42.7948C394.53 42.469 394.636 42.1547 394.8 41.87C399.06 34.39 400.04 28.13 397.7 23.24C393.62 14.75 380.7 12.6 380.6 12.58C379.945 12.4766 379.358 12.1171 378.968 11.5808C378.578 11.0444 378.416 10.3751 378.52 9.71997C378.623 9.06489 378.983 8.47772 379.519 8.08765C380.056 7.69757 380.725 7.53655 381.38 7.63999C382.02 7.73999 396.97 10.19 402.19 21.06C405.3 27.51 404.27 35.35 399.14 44.35C398.922 44.7333 398.607 45.0519 398.225 45.2733C397.844 45.4947 397.411 45.6109 396.97 45.61Z" fill="white"/>
<path d="M602.64 44.61C602.203 44.6069 601.775 44.4899 601.397 44.2706C601.02 44.0514 600.706 43.7374 600.487 43.3597C600.268 42.982 600.151 42.5537 600.148 42.1171C600.145 41.6805 600.256 41.2506 600.47 40.87C604.74 33.39 605.71 27.13 603.37 22.24C599.3 13.75 586.37 11.6 586.28 11.58C585.956 11.5288 585.645 11.4142 585.365 11.2427C585.085 11.0713 584.841 10.8464 584.648 10.5808C584.258 10.0444 584.097 9.37506 584.2 8.71997C584.303 8.06489 584.663 7.47772 585.199 7.08765C585.735 6.69757 586.405 6.53655 587.06 6.63999C587.69 6.73999 602.64 9.19 607.87 20.06C610.98 26.51 609.95 34.35 604.82 43.35C604.6 43.7334 604.282 44.0518 603.899 44.2731C603.516 44.4944 603.082 44.6106 602.64 44.61V44.61Z" fill="white"/>
<path d="M497.85 82.6099C497.439 82.6102 497.033 82.5088 496.67 82.3149C496.307 82.1209 495.998 81.8403 495.769 81.498C495.54 81.1557 495.4 80.7623 495.36 80.3527C495.32 79.9431 495.382 79.5299 495.54 79.1499C504.1 58.6599 505.75 41.8899 500.33 30.6599C495.68 21.0199 487.54 18.6599 487.2 18.5199C486.58 18.3286 486.058 17.9034 485.745 17.3343C485.433 16.7652 485.354 16.0968 485.525 15.4705C485.697 14.8443 486.105 14.3094 486.664 13.9789C487.223 13.6484 487.889 13.5484 488.52 13.6999C488.95 13.8199 499.08 16.6999 504.77 28.3499C510.99 41.0999 509.44 58.8299 500.16 81.0699C499.97 81.5261 499.649 81.9159 499.238 82.19C498.827 82.4641 498.344 82.6102 497.85 82.6099V82.6099Z" fill="white"/>
<path d="M425.31 418.12C425.31 418.12 504.65 411.56 573.08 450.12C641.51 488.68 745.01 548.92 719.35 604.62C693.69 660.32 646.96 675.12 609.86 675.1C585.95 675.1 550.12 654.1 550.12 654.1C550.12 654.1 571.38 712.94 549.85 805.59L177.85 805.74C177.85 805.74 154.72 525.53 262.52 443.94" fill="#00D7AD"/>
<path d="M176.48 807.26L176.37 805.89C173.058 755.724 173.697 705.375 178.28 655.31C182.76 608.6 190.87 567.93 202.41 534.42C216.87 492.42 236.8 461.56 261.63 442.76L263.44 445.16C239.09 463.58 219.52 493.94 205.25 535.38C193.79 568.65 185.73 609.09 181.25 655.56C174.25 728.65 178.49 794.05 179.25 804.26L548.66 804.11C569.38 713.69 548.92 655.21 548.66 654.62L547.25 650.73L550.82 652.82C551.18 653.03 586.58 673.6 609.82 673.6C638.23 673.6 690 664.6 717.91 603.99C728.91 579.99 716.69 553.24 680.44 522.08C650.23 496.08 608.76 471.98 572.26 451.42C505.04 413.55 426.15 419.55 425.36 419.61L425.11 416.61C425.91 416.54 505.69 410.46 573.74 448.8C610.36 469.43 651.97 493.63 682.4 519.8C699.48 534.48 711.52 548.59 718.2 561.72C726.03 577.11 726.85 591.72 720.63 605.24C692.03 667.32 638.95 676.6 609.82 676.6C589.77 676.6 562.12 662.47 552.63 657.27C556.75 671.59 569.63 726.84 551.27 805.95L551 807.11L176.48 807.26Z" fill="black"/>
<path d="M546.85 439.53C546.85 439.53 480.34 465.61 525.27 524.61C560.01 570.24 569.27 573.08 569.27 573.08L578.27 454.75L546.85 439.53Z" fill="#05AF8F"/>
<path d="M319.72 366.5C319.72 366.5 318.88 401.24 294.05 395.22C269.22 389.2 216.22 375.85 203.79 412.95C191.36 450.05 195.54 457.17 168.04 457.88C140.54 458.59 93.2601 507.88 154.56 554.71C215.86 601.54 369.31 399.55 369.31 399.55L364.56 378.55L319.72 366.5Z" fill="#7E74C1"/>
<path d="M319.72 366.5L364.56 378.55L369.31 399.55C369.31 399.55 246.1 561.77 176.38 561.77C168.519 561.939 160.832 559.451 154.56 554.71C93.2602 507.85 140.56 458.59 168.04 457.88C195.52 457.17 191.37 450.05 203.79 412.95C210.33 393.43 228.11 387.88 247.1 387.88C264.2 387.88 282.29 392.38 294.05 395.22C295.846 395.671 297.689 395.906 299.54 395.92C319 395.92 319.72 366.5 319.72 366.5V366.5ZM319.72 363.5C319.071 363.5 318.439 363.711 317.92 364.1C317.557 364.372 317.26 364.723 317.052 365.127C316.844 365.531 316.731 365.976 316.72 366.43C316.72 366.84 315.8 392.92 299.54 392.92C297.928 392.907 296.324 392.703 294.76 392.31L293.81 392.08C281.98 389.21 264.11 384.88 247.1 384.88C222.51 384.88 206.98 394 200.95 412C198.61 419 196.89 424.79 195.38 429.91C188.97 451.57 188.14 454.36 167.96 454.91C152.26 455.31 130.78 470.16 123.85 491.62C119.65 504.62 117.85 530.42 152.74 557.13C159.538 562.264 167.863 564.965 176.38 564.8C192.92 564.8 213.54 556.08 237.67 538.89C256.67 525.34 278.06 506.46 301.13 482.79C326.103 456.952 349.662 429.782 371.7 401.4C371.966 401.051 372.152 400.648 372.245 400.22C372.339 399.791 372.337 399.348 372.24 398.92L367.48 377.92C367.359 377.389 367.096 376.901 366.719 376.508C366.342 376.115 365.866 375.833 365.34 375.69L320.49 363.69C320.239 363.622 319.98 363.589 319.72 363.59V363.5Z" fill="black"/>
<path d="M148.08 549.391C153.82 492.271 244.94 433.651 274.08 425.011C303.22 416.371 338.3 402.351 343.59 390.011C348.88 377.671 328.24 372.011 328.24 372.011L334.43 370.391L364.6 378.501L369.35 399.501C369.35 399.501 215.85 601.611 154.56 554.711C152.24 552.941 150.09 551.161 148.08 549.391Z" fill="#534E93"/>
<path d="M367.9 424.49C367.9 424.49 286.53 425.12 220.64 483.12C165.64 531.49 104.91 651.54 109.44 702.95C113.97 754.36 145.72 773.63 213.73 762.95C281.74 752.27 336.16 737.25 327.09 700.84L345.23 690.13L315.76 610.87L304.42 615.16C304.42 615.16 290.82 589.45 252.28 606.59C213.74 623.73 184.28 634.44 184.28 634.44" fill="#00D7AD"/>
<path d="M180.97 767.27C159.29 767.27 142.79 762.68 130.97 753.44C117.53 742.92 109.97 726.44 107.97 703.08C105.82 678.68 118.32 636.86 141.41 591.22C164.5 545.58 193.71 504.83 219.67 481.99C253.93 451.83 292.39 437.4 318.67 430.6C347.1 423.23 367.75 422.99 367.95 422.99C368.348 422.99 368.729 423.148 369.011 423.43C369.292 423.711 369.45 424.092 369.45 424.49C369.45 424.888 369.292 425.27 369.011 425.551C368.729 425.832 368.348 425.99 367.95 425.99C367.14 425.99 286.35 427.3 221.66 484.24C195.97 506.85 166.98 547.35 144.09 592.57C121.2 637.79 108.86 678.95 110.96 702.82C112.96 725.31 120.11 741.09 132.86 751.07C149.37 764 175.76 767.39 213.53 761.44C259.34 754.23 308.1 743.94 322.38 722.35C326.57 716.02 327.64 709.09 325.67 701.17C325.592 700.856 325.617 700.525 325.741 700.226C325.865 699.927 326.082 699.676 326.36 699.51L343.42 689.44L314.85 612.78L304.92 616.53C304.579 616.66 304.203 616.66 303.862 616.531C303.521 616.402 303.24 616.153 303.07 615.83C302.54 614.83 289.58 591.6 252.85 607.93C214.7 624.93 185.03 635.71 184.74 635.82C184.365 635.953 183.952 635.931 183.593 635.759C183.234 635.588 182.958 635.281 182.825 634.905C182.693 634.53 182.715 634.117 182.886 633.758C183.058 633.399 183.365 633.123 183.74 632.99C184.03 632.89 213.61 622.1 251.66 605.19C286.24 589.82 301.66 608.37 305.03 613.29L315.22 609.44C315.402 609.364 315.597 609.324 315.795 609.324C315.992 609.324 316.188 609.364 316.37 609.44C316.731 609.606 317.011 609.908 317.15 610.28L346.63 689.53C346.751 689.862 346.753 690.225 346.634 690.558C346.516 690.89 346.284 691.171 345.98 691.35L328.85 701.54C329.783 705.355 329.914 709.322 329.234 713.19C328.554 717.058 327.078 720.742 324.9 724.01C309.97 746.57 260.47 757.09 214.02 764.41C203.094 766.215 192.044 767.171 180.97 767.27V767.27Z" fill="black"/>
<path d="M575.96 586.711C569.65 566.251 544.35 548.071 532.44 505.121C520.53 462.171 575.65 447.811 575.65 447.811L573.93 433.551C573.93 433.551 610.04 444.431 649.19 417.551L659.85 434.771C659.85 434.771 704.85 448.641 704.69 487.251C704.53 525.861 739.59 561.251 718.98 606.141" fill="#00D7AD"/>
<path d="M575.46 588.121C575.237 588.039 575.036 587.906 574.874 587.733C574.713 587.559 574.595 587.349 574.53 587.121C572.08 579.181 566.53 571.411 560.16 562.401C550.38 548.651 538.22 531.541 531 505.501C527.87 494.211 529 483.811 534.27 474.601C544.77 456.351 568.27 448.411 574.01 446.691L572.44 433.691C572.412 433.444 572.446 433.194 572.537 432.963C572.629 432.732 572.777 432.527 572.967 432.367C573.157 432.207 573.383 432.096 573.626 432.044C573.869 431.993 574.121 432.002 574.36 432.071C574.72 432.181 610.28 442.401 648.36 416.241C648.528 416.128 648.718 416.049 648.917 416.01C649.116 415.97 649.321 415.971 649.52 416.011C649.725 416.048 649.92 416.127 650.092 416.245C650.264 416.362 650.41 416.514 650.52 416.691L660.85 433.521C666.04 435.291 706.37 450.341 706.2 487.261C706.14 501.721 711.05 515.561 716.25 530.201C724.66 553.901 733.36 578.401 720.35 606.761C720.269 606.942 720.153 607.106 720.008 607.242C719.863 607.377 719.692 607.483 719.506 607.552C719.319 607.621 719.121 607.652 718.923 607.643C718.724 607.634 718.529 607.586 718.35 607.501C717.987 607.333 717.705 607.029 717.567 606.654C717.428 606.279 717.443 605.864 717.61 605.501C730.11 578.251 721.61 554.331 713.4 531.201C708.35 516.951 703.12 502.201 703.19 487.201C703.35 450.131 659.84 436.291 659.4 436.201C659.051 436.102 658.754 435.873 658.57 435.561L648.73 419.611C615.39 441.861 584.05 437.281 575.68 435.481L577.13 447.601C577.176 447.962 577.088 448.328 576.884 448.63C576.68 448.932 576.373 449.149 576.02 449.241C575.74 449.311 548.02 456.751 536.86 476.111C531.98 484.601 530.98 494.211 533.86 504.691C540.94 530.231 552.94 547.111 562.58 560.691C569.13 569.911 574.78 577.871 577.37 586.271C577.429 586.46 577.449 586.659 577.431 586.856C577.412 587.053 577.355 587.244 577.262 587.419C577.169 587.594 577.042 587.748 576.889 587.874C576.736 587.999 576.559 588.093 576.37 588.151C576.071 588.233 575.753 588.223 575.46 588.121V588.121Z" fill="black"/>
<path d="M349.66 425.48C349.66 425.48 336.45 452.12 367.41 459.12C398.37 466.12 404.35 450.12 404.35 450.12C404.35 450.12 425.35 470.12 444.28 453.12C463.21 436.12 440.28 418.12 440.28 418.12L349.66 425.48Z" fill="white"/>
<path d="M381.85 462.4C376.868 462.343 371.907 461.733 367.06 460.58C357.06 458.33 350.47 453.84 347.34 447.26C342.42 436.9 348.06 425.26 348.34 424.81C348.456 424.579 348.629 424.382 348.843 424.237C349.056 424.092 349.303 424.003 349.56 423.98L440.19 416.62C440.55 416.599 440.905 416.709 441.19 416.93C441.67 417.31 452.88 426.22 453.26 437.83C453.45 443.78 450.76 449.3 445.26 454.23C428.45 469.3 410.05 456.7 404.77 452.47C402.69 455.78 396.65 462.4 381.85 462.4ZM350.65 426.9C349.56 429.51 346.42 438.35 350.05 445.99C352.77 451.69 358.71 455.62 367.72 457.65C396.85 464.24 402.72 450.18 402.93 449.58C403.019 449.35 403.162 449.146 403.348 448.985C403.535 448.824 403.758 448.711 403.998 448.657C404.239 448.602 404.488 448.608 404.726 448.673C404.963 448.738 405.181 448.861 405.36 449.03C406.18 449.8 425.57 467.86 443.27 452.03C448.07 447.72 450.43 443.03 450.27 437.97C449.98 428.97 441.78 421.41 439.78 419.69L350.65 426.9Z" fill="black"/>
<path d="M658.58 435.76C658.66 435.65 648.51 419.4 648.51 419.4C609.36 446.31 575.51 435.16 575.51 435.16L576.84 449.45L576.53 448.81C576.53 448.81 623.11 479.61 658.58 435.76Z" fill="#05AF8F"/>
<path d="M303.51 617.12C303.51 617.12 291.51 655.12 325.51 699.12L343.51 689.12L314.56 613.12L303.51 617.12Z" fill="#05AF8F"/>
<path d="M300.98 483.25C305.465 483.25 309.1 479.605 309.1 475.11C309.1 470.614 305.465 466.97 300.98 466.97C296.495 466.97 292.86 470.614 292.86 475.11C292.86 479.605 296.495 483.25 300.98 483.25Z" fill="#4AEBD7"/>
<path d="M197.14 571.25C201.625 571.25 205.26 567.605 205.26 563.11C205.26 558.614 201.625 554.97 197.14 554.97C192.656 554.97 189.02 558.614 189.02 563.11C189.02 567.605 192.656 571.25 197.14 571.25Z" fill="#4AEBD7"/>
<path d="M322.94 574.25C327.424 574.25 331.06 570.605 331.06 566.11C331.06 561.614 327.424 557.97 322.94 557.97C318.455 557.97 314.82 561.614 314.82 566.11C314.82 570.605 318.455 574.25 322.94 574.25Z" fill="#4AEBD7"/>
<path d="M492.68 491.25C497.165 491.25 500.8 487.605 500.8 483.11C500.8 478.614 497.165 474.97 492.68 474.97C488.196 474.97 484.56 478.614 484.56 483.11C484.56 487.605 488.196 491.25 492.68 491.25Z" fill="#4AEBD7"/>
<path d="M423.78 536.25C428.265 536.25 431.9 532.605 431.9 528.11C431.9 523.614 428.265 519.97 423.78 519.97C419.296 519.97 415.66 523.614 415.66 528.11C415.66 532.605 419.296 536.25 423.78 536.25Z" fill="#4AEBD7"/>
<path d="M176.18 678.25C180.665 678.25 184.3 674.605 184.3 670.11C184.3 665.614 180.665 661.97 176.18 661.97C171.696 661.97 168.06 665.614 168.06 670.11C168.06 674.605 171.696 678.25 176.18 678.25Z" fill="#4AEBD7"/>
<path d="M213.12 733.25C217.605 733.25 221.24 729.606 221.24 725.11C221.24 720.615 217.605 716.97 213.12 716.97C208.636 716.97 205 720.615 205 725.11C205 729.606 208.636 733.25 213.12 733.25Z" fill="#4AEBD7"/>
<path d="M271.03 667.25C275.515 667.25 279.15 663.605 279.15 659.11C279.15 654.614 275.515 650.97 271.03 650.97C266.546 650.97 262.91 654.614 262.91 659.11C262.91 663.605 266.546 667.25 271.03 667.25Z" fill="#4AEBD7"/>
<path d="M581.54 533.25C586.025 533.25 589.66 529.605 589.66 525.11C589.66 520.614 586.025 516.97 581.54 516.97C577.055 516.97 573.42 520.614 573.42 525.11C573.42 529.605 577.055 533.25 581.54 533.25Z" fill="#4AEBD7"/>
<path d="M629.46 511.25C633.945 511.25 637.58 507.605 637.58 503.11C637.58 498.614 633.945 494.97 629.46 494.97C624.975 494.97 621.34 498.614 621.34 503.11C621.34 507.605 624.975 511.25 629.46 511.25Z" fill="#4AEBD7"/>
<path d="M684.37 574.25C688.855 574.25 692.49 570.605 692.49 566.11C692.49 561.614 688.855 557.97 684.37 557.97C679.886 557.97 676.25 561.614 676.25 566.11C676.25 570.605 679.886 574.25 684.37 574.25Z" fill="#4AEBD7"/>
<path d="M637.45 648.25C641.935 648.25 645.57 644.605 645.57 640.11C645.57 635.614 641.935 631.97 637.45 631.97C632.966 631.97 629.33 635.614 629.33 640.11C629.33 644.605 632.966 648.25 637.45 648.25Z" fill="#4AEBD7"/>
<path d="M376.86 777.25C381.344 777.25 384.98 773.606 384.98 769.11C384.98 764.615 381.344 760.97 376.86 760.97C372.375 760.97 368.74 764.615 368.74 769.11C368.74 773.606 372.375 777.25 376.86 777.25Z" fill="#4AEBD7"/>
<path d="M476.7 678.25C481.185 678.25 484.82 674.605 484.82 670.11C484.82 665.614 481.185 661.97 476.7 661.97C472.216 661.97 468.58 665.614 468.58 670.11C468.58 674.605 472.216 678.25 476.7 678.25Z" fill="#4AEBD7"/>
<path d="M517.64 783.25C522.125 783.25 525.76 779.606 525.76 775.11C525.76 770.615 522.125 766.97 517.64 766.97C513.156 766.97 509.52 770.615 509.52 775.11C509.52 779.606 513.156 783.25 517.64 783.25Z" fill="#4AEBD7"/>
<path d="M694.39 353.371C694.39 353.371 718.02 404.311 640.04 435.471C640.04 435.471 597.04 450.531 575.04 431.381L574.8 425.801C574.8 425.801 542.75 408.211 547.38 386.801C547.38 386.801 569.33 377.991 596.1 402.521C596.1 402.521 607.74 362.861 648.97 361.031C648.97 361.031 665.24 350.241 672.33 358.871C672.3 358.831 679.65 348.441 694.39 353.371Z" fill="#FFCDB2"/>
<path d="M685.85 352.061C688.763 351.966 691.668 352.41 694.42 353.371C694.42 353.371 718.05 404.311 640.07 435.471C630.44 438.601 620.442 440.463 610.33 441.011C598.11 441.551 584.61 439.681 575.04 431.381L574.8 425.801C574.8 425.801 542.75 408.211 547.38 386.801C550.118 385.863 552.986 385.357 555.88 385.301C564.68 384.901 579.45 387.301 596.1 402.521C596.1 402.521 607.74 362.861 648.97 361.031C648.97 361.031 656.77 355.861 663.92 355.541C667.1 355.401 670.15 356.211 672.33 358.871C673.967 356.839 676.021 355.183 678.354 354.015C680.687 352.847 683.243 352.194 685.85 352.101V352.061ZM685.72 349.101C680.68 349.303 675.871 351.275 672.14 354.671C669.664 353.066 666.732 352.315 663.79 352.531C657.14 352.831 650.26 356.711 648.03 358.061C639.61 358.46 631.376 360.681 623.897 364.571C616.419 368.461 609.872 373.926 604.71 380.591C600.655 385.714 597.318 391.366 594.79 397.391C579.02 384.271 564.99 381.881 555.79 382.291C552.558 382.369 549.357 382.946 546.3 384.001C545.842 384.184 545.435 384.479 545.118 384.857C544.8 385.236 544.581 385.687 544.48 386.171C539.98 406.991 565.31 423.691 571.9 427.631L572.07 431.561C572.085 431.968 572.181 432.367 572.352 432.737C572.524 433.106 572.768 433.437 573.07 433.711C581.82 441.301 594.4 444.791 610.46 444.081C620.869 443.524 631.161 441.605 641.07 438.371L641.19 438.321C670.47 426.621 689.19 410.801 696.98 391.321C705.33 370.261 697.49 352.911 697.15 352.181C696.978 351.808 696.731 351.474 696.425 351.201C696.119 350.927 695.76 350.72 695.37 350.591C692.271 349.513 688.999 349.018 685.72 349.131V349.101Z" fill="black"/>
<path d="M602.5 419.61H602.58C602.976 419.567 603.34 419.37 603.593 419.061C603.845 418.753 603.966 418.357 603.93 417.96C603.93 417.77 603.65 413.84 607.49 409.79C611.68 405.37 621.41 400.25 643.99 400.99C644.269 400.997 644.544 400.927 644.786 400.787C645.028 400.648 645.226 400.445 645.36 400.2C645.5 399.94 659.91 373.78 673.44 357.82C673.705 357.516 673.839 357.12 673.812 356.718C673.785 356.315 673.598 355.94 673.295 355.675C672.991 355.41 672.595 355.276 672.192 355.303C671.79 355.33 671.415 355.516 671.15 355.82C658.77 370.42 645.73 393.33 643.15 397.9C624.52 397.42 611.75 400.74 605.15 407.78C600.41 412.86 600.86 418 600.88 418.22C600.894 418.418 600.947 418.611 601.036 418.789C601.125 418.966 601.249 419.124 601.4 419.254C601.55 419.383 601.725 419.481 601.914 419.542C602.103 419.603 602.302 419.626 602.5 419.61V419.61Z" fill="black"/>
<path d="M622.58 396.1C622.881 396.088 623.171 395.986 623.413 395.808C623.656 395.63 623.839 395.383 623.94 395.1C624 394.93 630.03 378.19 649.88 361.01C650.182 360.745 650.367 360.37 650.393 359.969C650.419 359.568 650.285 359.172 650.02 358.87C649.755 358.568 649.38 358.383 648.979 358.357C648.578 358.33 648.182 358.465 647.88 358.73C627.38 376.47 621.31 393.39 621.06 394.1C620.929 394.478 620.954 394.892 621.128 395.252C621.302 395.612 621.613 395.888 621.99 396.02C622.18 396.085 622.38 396.112 622.58 396.1V396.1Z" fill="black"/>
<path d="M371.03 371.06C371.03 371.06 378.84 406.96 366.46 424.42C366.46 424.42 402.96 459.111 427.3 419.641C427.3 419.641 402.99 380.33 408.3 368.13C413.61 355.93 371.03 371.06 371.03 371.06Z" fill="#FFCDB2"/>
<path d="M398.31 440.02C380.91 440.02 366.1 426.15 365.43 425.51L364.49 424.62L365.24 423.56C377.09 406.84 369.64 371.73 369.56 371.38L369.28 370.09L370.53 369.65C376.08 367.65 404.04 358.11 409.24 363.65C410.05 364.52 410.78 366.11 409.65 368.71C405.57 378.12 421.93 408.08 428.58 418.83L429.07 419.62L428.58 420.41C421.5 431.9 412.68 438.41 402.37 439.74C401.024 439.922 399.668 440.015 398.31 440.02V440.02ZM368.44 424.17C372.21 427.4 386.73 438.77 402 436.78C411.13 435.59 419 429.78 425.54 419.63C421.46 412.94 401.72 379.49 406.9 367.54C407.17 366.92 407.41 366.11 407.05 365.72C404.54 363.04 387.88 366.78 372.76 372.04C374.03 378.61 378.85 407.82 368.44 424.17Z" fill="#1D1D1B"/>
<path d="M376.86 279.08C398.217 279.08 415.53 261.74 415.53 240.35C415.53 218.96 398.217 201.62 376.86 201.62C355.503 201.62 338.19 218.96 338.19 240.35C338.19 261.74 355.503 279.08 376.86 279.08Z" fill="#7E74C1"/>
<path d="M376.79 280.61C366.803 280.596 357.18 276.862 349.796 270.138C342.412 263.415 337.797 254.182 336.85 244.24C336.093 236.334 337.696 228.381 341.457 221.386C345.218 214.391 350.969 208.668 357.981 204.94C364.994 201.212 372.955 199.646 380.857 200.441C388.76 201.236 396.249 204.355 402.379 209.406C408.509 214.456 413.004 221.209 415.297 228.814C417.59 236.418 417.577 244.531 415.26 252.128C412.943 259.724 408.426 266.464 402.28 271.494C396.134 276.525 388.635 279.62 380.73 280.39C379.43 280.52 378.1 280.61 376.79 280.61ZM376.93 203.14C375.71 203.14 374.49 203.2 373.26 203.32C365.94 204.05 358.999 206.93 353.313 211.599C347.628 216.268 343.452 222.516 341.313 229.555C339.174 236.594 339.167 244.109 341.293 251.152C343.419 258.195 347.583 264.451 353.26 269.13C357.019 272.248 361.36 274.588 366.032 276.013C370.703 277.437 375.611 277.919 380.47 277.43C389.991 276.517 398.794 271.976 405.056 264.747C411.318 257.518 414.558 248.156 414.105 238.603C413.651 229.05 409.537 220.038 402.618 213.435C395.699 206.833 386.504 203.146 376.94 203.14H376.93Z" fill="#1D1E1B"/>
<path d="M416.85 252.36C398.37 225.86 355.64 236.14 345.93 249.55C321.79 282.86 293.62 271.01 292.09 304.33C291.32 321.06 306.55 325.92 302.84 356.79C300.93 372.71 329.64 393.98 353.43 391.66C377.22 389.34 432.12 405.95 458.98 374.2C471.12 359.86 489.92 316.99 464.81 285.83C439.48 254.33 424.85 263.85 416.85 252.36Z" fill="#7E74C1"/>
<path d="M404.02 395.451C394.72 395.451 385.59 394.7 377.41 394.02C367.92 393.23 359.72 392.55 353.62 393.15C336.92 394.78 319.37 385.35 310.14 375.91C303.79 369.41 300.68 362.561 301.39 356.611C303.54 338.781 299.24 329.921 295.46 322.111C292.8 316.641 290.3 311.471 290.63 304.261C291.52 284.921 301.14 280.03 313.33 273.84C323.11 268.84 334.21 263.22 344.75 248.67C350.75 240.37 367 234.231 382.55 234.371C397.88 234.511 410.55 240.591 418.12 251.501C420.89 255.501 424.56 256.691 429.65 258.371C438.26 261.201 450.06 265.081 466.02 284.891C491.76 316.891 472.78 360.271 460.17 375.171C446.16 391.731 424.66 395.451 404.02 395.451ZM358.91 389.921C364.3 389.921 370.63 390.45 377.65 391.03C403.36 393.16 438.56 396.031 457.88 373.241C464 366.001 471.49 351.691 474.43 336.051C476.92 322.751 477.08 303.4 463.68 286.77C448.28 267.66 436.97 263.93 428.68 261.22C423.47 259.5 418.97 258.02 415.62 253.22C408.62 243.13 396.82 237.501 382.49 237.371C366.42 237.221 351.89 243.891 347.15 250.431C336.15 265.571 324.25 271.641 314.65 276.511C302.9 282.511 294.41 286.8 293.6 304.4C293.3 310.85 295.54 315.461 298.13 320.801C302.13 328.981 306.59 338.26 304.34 356.97C303.74 361.97 306.55 367.971 312.25 373.811C321.01 382.761 337.58 391.7 353.25 390.16C355.05 390 356.92 389.921 358.91 389.921V389.921Z" fill="#1D1E1B"/>
<path d="M398.65 319.211C379.36 324.461 352.58 317.361 348.45 324.591C344.32 331.821 348.28 340.991 358.98 342.711C369.68 344.431 380.16 343.531 401.54 340.631C422.92 337.731 443.66 333.301 440.54 321.941C437.42 310.581 427.01 311.481 398.65 319.211Z" fill="#FFB49F"/>
<path d="M381.79 263.75C377.13 295.01 347.79 312 331.2 315.17C328.43 324.83 331.53 337.17 332.59 348.17C336.5 388.34 361.19 415.26 399.42 408.87C436.74 402.65 454.42 379.19 449.64 334.99C448.52 324.56 447.92 314.16 443.69 305.51C411.76 308.45 381.79 263.75 381.79 263.75Z" fill="#FFCDB2"/>
<path d="M388.58 411.27C376.46 411.27 365.51 407.72 356.46 400.77C342.34 389.95 333.34 371.31 331.1 348.29C330.84 345.58 330.45 342.83 330.05 339.92C328.84 331.26 327.6 322.3 329.76 314.75L330.01 313.87L330.92 313.69C348.83 310.27 376 292.45 380.3 263.52L380.87 259.69L383.03 262.91C383.32 263.34 411.03 304.12 440.63 304.12C441.605 304.123 442.58 304.077 443.55 303.98L444.55 303.89L445.01 304.82C448.85 312.68 449.8 322.03 450.72 331.08C450.84 332.32 450.97 333.56 451.1 334.8C453.47 356.9 450.24 374.47 441.5 387C432.95 399.27 418.87 407.11 399.64 410.32C395.986 410.945 392.287 411.262 388.58 411.27V411.27ZM332.41 316.45C330.76 323.23 331.91 331.45 333.02 339.51C333.41 342.32 333.82 345.23 334.09 348C336.24 370.18 344.84 388.08 358.28 398.39C369.35 406.88 383.49 409.98 399.18 407.39C436.67 401.13 452.69 377.5 448.18 335.14L447.79 331.4C446.9 322.59 446.06 314.25 442.79 307.07C442.06 307.07 441.33 307.14 440.6 307.14C413.92 307.14 389.78 277.25 382.65 267.55C376.41 296.78 349.32 312.84 332.41 316.45V316.45Z" fill="#1D1D1B"/>
<path d="M394.9 321.99C371.95 328.48 339.9 320.32 335.08 328.99C330.26 337.66 335.08 348.56 347.85 350.49C360.62 352.42 373.12 351.21 398.6 347.49C424.08 343.77 448.75 338.25 444.94 324.74C441.13 311.23 428.64 312.44 394.9 321.99Z" fill="#FFB49F"/>
<path d="M391.29 358.51C390.919 358.509 390.561 358.371 390.286 358.122C390.011 357.872 389.838 357.53 389.8 357.16L386.74 325.61C386.721 325.413 386.741 325.214 386.799 325.025C386.857 324.836 386.951 324.66 387.077 324.507C387.203 324.354 387.358 324.228 387.532 324.135C387.707 324.042 387.898 323.984 388.095 323.965C388.292 323.946 388.491 323.966 388.68 324.024C388.87 324.082 389.046 324.176 389.198 324.302C389.351 324.428 389.478 324.582 389.57 324.757C389.663 324.932 389.721 325.123 389.74 325.32L392.81 356.86C392.847 357.256 392.725 357.65 392.472 357.958C392.22 358.265 391.856 358.46 391.46 358.5L391.29 358.51Z" fill="black"/>
<path d="M349.09 232.77C348.822 232.769 348.556 232.728 348.3 232.65C347.672 232.44 347.152 231.989 346.856 231.397C346.56 230.804 346.511 230.118 346.72 229.49C346.97 228.73 353.08 211.01 374.72 207.49C375.361 207.41 376.008 207.582 376.525 207.969C377.042 208.356 377.39 208.928 377.494 209.565C377.599 210.203 377.453 210.856 377.087 211.388C376.72 211.92 376.163 212.29 375.53 212.42C356.8 215.51 351.48 230.95 351.42 231.11C351.25 231.593 350.936 232.012 350.518 232.31C350.101 232.607 349.602 232.767 349.09 232.77V232.77Z" fill="white"/>
<path d="M355.22 329.46C352.639 329.465 350.08 328.98 347.68 328.03C347.31 327.883 347.013 327.595 346.853 327.23C346.694 326.865 346.686 326.451 346.83 326.08C346.902 325.897 347.009 325.73 347.145 325.589C347.282 325.447 347.445 325.334 347.625 325.256C347.806 325.178 348 325.136 348.196 325.134C348.393 325.131 348.587 325.167 348.77 325.24C361.93 330.41 375.07 317.07 375.2 316.93C375.335 316.781 375.498 316.661 375.681 316.577C375.863 316.492 376.059 316.445 376.26 316.438C376.461 316.432 376.661 316.465 376.848 316.537C377.036 316.609 377.207 316.718 377.351 316.857C377.496 316.996 377.611 317.163 377.69 317.348C377.769 317.532 377.81 317.731 377.811 317.932C377.812 318.132 377.772 318.331 377.695 318.516C377.617 318.702 377.503 318.869 377.36 319.01C376.85 319.52 367.11 329.46 355.22 329.46Z" fill="black"/>
<path d="M408.38 308.811C403.2 308.811 396.04 307.151 389.48 299.941C389.321 299.801 389.194 299.63 389.106 299.437C389.019 299.245 388.972 299.036 388.971 298.825C388.969 298.614 389.013 298.404 389.098 298.211C389.183 298.017 389.308 297.844 389.464 297.702C389.621 297.56 389.806 297.453 390.007 297.388C390.208 297.323 390.421 297.3 390.631 297.323C390.841 297.345 391.044 297.412 391.227 297.519C391.409 297.625 391.567 297.769 391.69 297.941C402.33 309.631 414.14 305.051 414.64 304.851C415.009 304.705 415.42 304.711 415.785 304.866C416.15 305.021 416.439 305.314 416.59 305.681C416.674 305.864 416.718 306.063 416.722 306.265C416.726 306.467 416.69 306.667 416.614 306.854C416.538 307.041 416.425 307.211 416.282 307.353C416.138 307.495 415.968 307.607 415.78 307.681C413.398 308.484 410.893 308.866 408.38 308.811V308.811Z" fill="black"/>
<path d="M364.14 343.01C366.3 343.01 368.05 341.255 368.05 339.09C368.05 336.925 366.3 335.17 364.14 335.17C361.981 335.17 360.23 336.925 360.23 339.09C360.23 341.255 361.981 343.01 364.14 343.01Z" fill="black"/>
<path d="M413.39 335.731C415.55 335.731 417.3 333.976 417.3 331.811C417.3 329.646 415.55 327.891 413.39 327.891C411.231 327.891 409.48 329.646 409.48 331.811C409.48 333.976 411.231 335.731 413.39 335.731Z" fill="black"/>
<path d="M552.72 656.61C552.433 656.61 552.152 656.526 551.91 656.37C526.91 640.37 509.19 605.27 508.45 603.78C508.35 603.603 508.287 603.408 508.266 603.206C508.244 603.004 508.263 602.799 508.323 602.605C508.382 602.411 508.48 602.23 508.612 602.075C508.743 601.92 508.904 601.793 509.086 601.702C509.268 601.611 509.466 601.558 509.669 601.547C509.872 601.535 510.075 601.564 510.266 601.633C510.457 601.702 510.633 601.809 510.781 601.948C510.93 602.087 511.048 602.254 511.13 602.44C511.31 602.8 529.22 638.26 553.53 653.85C553.802 654.026 554.009 654.284 554.122 654.588C554.235 654.891 554.247 655.222 554.156 655.533C554.065 655.843 553.875 656.116 553.617 656.31C553.358 656.504 553.044 656.609 552.72 656.61V656.61Z" fill="black"/>
<path d="M372.34 586.02C380.34 565.86 373.02 556.35 354.77 564.94C336.52 573.53 319.01 618.94 319.01 618.94L346.71 686.61" fill="#FFCDB2"/>
<path d="M344.85 687.41L316.85 619.01L317.13 618.27C317.86 616.39 335.13 571.96 353.9 563.13C365.39 557.73 371.22 559.82 374.1 562.53C378.66 566.82 378.7 575.43 374.19 586.76L370.47 585.28C374.22 575.86 374.55 568.44 371.36 565.44C368.57 562.82 362.98 563.28 355.61 566.75C339.51 574.32 323.49 613.14 321.16 618.98L348.55 685.9L344.85 687.41Z" fill="#1D1E1B"/>
<path d="M347.05 683.11L356.47 679.03C356.47 679.03 367.65 685.31 397 678.93C443.38 668.85 428.64 634.63 428.64 634.63C436.91 614.11 422.01 603.83 422.01 603.83C422.01 603.83 426.12 578.83 406.95 574.11C386.13 569.03 364.75 583.48 348.05 599.45" fill="#FFCDB2"/>
<path d="M347.64 684.49L346.45 681.73L356.56 677.36L357.2 677.73C357.3 677.78 368.43 683.61 396.68 677.47C411.85 674.17 421.89 667.94 426.51 658.95C432.42 647.48 427.32 635.34 427.27 635.22L427.02 634.65L427.25 634.07C434.98 614.88 421.3 605.16 421.16 605.07L420.38 604.53L420.53 603.59C420.69 602.59 424.18 579.87 406.6 575.59C390 571.54 370.65 579.94 349.09 600.59L347.02 598.42C369.36 577.05 389.65 568.42 407.31 572.7C425.46 577.13 424.12 598.57 423.6 603.23C426.6 605.75 437.32 616.38 430.26 634.67C431.26 637.42 435.02 649.02 429.18 660.38C424.13 670.2 413.41 676.95 397.32 680.45C371.43 686.08 359.32 682.01 356.44 680.73L347.64 684.49Z" fill="#1D1E1B"/>
<path d="M379.19 615.24C378.868 615.244 378.553 615.143 378.293 614.954C378.032 614.765 377.839 614.497 377.743 614.19C377.646 613.882 377.651 613.552 377.757 613.248C377.863 612.944 378.064 612.682 378.33 612.5C399.67 597.74 421.23 602.59 422.14 602.81C422.527 602.902 422.862 603.143 423.071 603.482C423.28 603.82 423.346 604.228 423.255 604.615C423.163 605.003 422.922 605.338 422.583 605.547C422.245 605.756 421.837 605.822 421.45 605.73C406.97 603.304 392.115 606.619 380.04 614.97C379.79 615.144 379.494 615.239 379.19 615.24Z" fill="#1D1D1B"/>
<path d="M390.76 645.83C388.89 645.83 387.01 645.75 385.1 645.57C384.702 645.531 384.336 645.336 384.082 645.028C383.828 644.719 383.707 644.322 383.745 643.925C383.784 643.527 383.979 643.161 384.287 642.906C384.596 642.652 384.992 642.531 385.39 642.57C406.98 644.57 427.71 633.12 427.92 633.01C428.092 632.9 428.285 632.827 428.486 632.794C428.687 632.761 428.893 632.77 429.091 632.819C429.289 632.869 429.474 632.958 429.636 633.082C429.799 633.205 429.934 633.361 430.034 633.538C430.134 633.716 430.197 633.912 430.218 634.115C430.24 634.318 430.22 634.523 430.16 634.718C430.1 634.912 430 635.093 429.868 635.248C429.736 635.403 429.573 635.53 429.39 635.62C428.59 636.08 411.03 645.83 390.76 645.83Z" fill="#1D1D1B"/>
<path d="M412.94 382.61C412.669 382.609 412.404 382.535 412.172 382.396C411.94 382.257 411.749 382.058 411.62 381.82C409.43 377.7 407.04 375.53 404.54 375.39C400.66 375.17 397.24 379.91 397.2 379.96C397.097 380.139 396.957 380.295 396.79 380.418C396.623 380.541 396.433 380.628 396.231 380.673C396.028 380.718 395.819 380.721 395.615 380.682C395.412 380.642 395.219 380.561 395.049 380.443C394.879 380.326 394.734 380.174 394.625 379.998C394.516 379.821 394.445 379.624 394.416 379.419C394.387 379.214 394.401 379.005 394.457 378.806C394.512 378.606 394.609 378.42 394.74 378.26C394.91 378 399.08 372.07 404.74 372.4C408.36 372.6 411.58 375.3 414.3 380.4C414.478 380.748 414.513 381.152 414.397 381.526C414.281 381.9 414.024 382.213 413.68 382.4C413.456 382.532 413.201 382.604 412.94 382.61V382.61Z" fill="black"/>
<path d="M637.591 431.61C637.008 431.62 636.44 431.427 635.985 431.063C635.53 430.7 635.216 430.189 635.098 429.619C634.979 429.049 635.063 428.455 635.336 427.94C635.608 427.426 636.052 427.022 636.591 426.8C689.141 404.8 689.97 369.46 689.97 369.1C689.97 368.437 690.233 367.801 690.702 367.332C691.171 366.863 691.807 366.6 692.47 366.6C693.133 366.6 693.769 366.863 694.238 367.332C694.707 367.801 694.97 368.437 694.97 369.1C694.97 370.68 694.33 408.03 638.52 431.41C638.226 431.535 637.91 431.603 637.591 431.61V431.61Z" fill="white"/>
<path d="M167.85 760.11H167.58C147.9 757.96 132.63 746.8 123.42 727.84C119.169 719.033 116.463 709.562 115.42 699.84C115.369 699.177 115.585 698.521 116.018 698.016C116.451 697.512 117.067 697.2 117.73 697.15C118.393 697.099 119.049 697.314 119.554 697.748C120.058 698.181 120.369 698.797 120.42 699.46C121.444 708.608 124 717.519 127.98 725.82C136.53 743.32 150.04 753.2 168.12 755.16C168.783 755.196 169.405 755.493 169.848 755.987C170.292 756.482 170.521 757.132 170.485 757.795C170.449 758.458 170.151 759.079 169.657 759.523C169.163 759.966 168.513 760.196 167.85 760.16V760.11Z" fill="white"/>
<path d="M704.98 616.11C704.542 616.107 704.112 615.993 703.73 615.78C703.157 615.446 702.74 614.898 702.57 614.258C702.399 613.617 702.489 612.935 702.82 612.36C722.34 578.49 705.41 543.57 705.24 543.22C705.077 542.925 704.975 542.6 704.94 542.264C704.906 541.929 704.939 541.589 705.039 541.267C705.139 540.945 705.304 540.647 705.522 540.39C705.741 540.133 706.009 539.922 706.311 539.772C706.613 539.621 706.942 539.533 707.279 539.513C707.615 539.493 707.953 539.542 708.27 539.655C708.588 539.769 708.879 539.946 709.127 540.175C709.374 540.405 709.572 540.682 709.71 540.99C710.47 542.51 728.05 578.61 707.15 614.86C706.928 615.239 706.612 615.554 706.231 615.774C705.851 615.993 705.419 616.109 704.98 616.11V616.11Z" fill="white"/>
<path d="M387.99 619.61C387.442 619.611 386.908 619.432 386.472 619.1C386.036 618.768 385.721 618.302 385.575 617.773C385.43 617.245 385.462 616.683 385.667 616.175C385.872 615.666 386.238 615.239 386.71 614.96C387.71 614.4 410.18 601.28 425.28 610.96C425.565 611.134 425.812 611.363 426.007 611.633C426.202 611.904 426.34 612.211 426.415 612.536C426.489 612.861 426.498 613.198 426.44 613.527C426.382 613.855 426.259 614.169 426.078 614.449C425.898 614.73 425.663 614.971 425.387 615.159C425.111 615.347 424.801 615.478 424.474 615.544C424.147 615.61 423.81 615.611 423.483 615.545C423.156 615.479 422.846 615.348 422.57 615.16C410.04 607.09 389.46 619.09 389.26 619.16C388.887 619.425 388.447 619.581 387.99 619.61V619.61Z" fill="white"/>
<path d="M392.67 653.7C391.67 653.7 390.76 653.7 389.81 653.6C389.482 653.577 389.161 653.491 388.866 653.344C388.571 653.198 388.309 652.995 388.092 652.747C387.876 652.499 387.71 652.211 387.605 651.899C387.5 651.588 387.458 651.258 387.48 650.93C387.502 650.601 387.589 650.281 387.735 649.986C387.882 649.691 388.084 649.428 388.332 649.212C388.58 648.996 388.869 648.83 389.181 648.725C389.492 648.62 389.821 648.577 390.15 648.6C404.35 649.54 422.77 641.86 422.96 641.79C423.562 641.574 424.223 641.598 424.808 641.855C425.393 642.112 425.858 642.583 426.106 643.172C426.355 643.761 426.368 644.423 426.143 645.021C425.919 645.62 425.474 646.109 424.9 646.39C424.15 646.73 407.45 653.7 392.67 653.7Z" fill="white"/>
<path d="M382.99 575.61H382.92C382.523 575.589 382.15 575.413 381.883 575.119C381.615 574.825 381.474 574.437 381.49 574.04C381.49 573.87 381.88 559.83 367.89 547.04C352.6 533.04 317.81 518.63 238.89 529.04C231.305 530.041 223.662 530.542 216.01 530.54C148.01 530.54 89.6302 490.92 79.2702 449.54C72.2702 421.37 88.6605 397.54 124.341 384.19C179.881 363.39 220.15 365.84 244.15 371.56C270.3 377.78 283.08 388.85 283.61 389.32C283.908 389.585 284.09 389.958 284.113 390.357C284.136 390.755 284 391.147 283.735 391.445C283.47 391.744 283.097 391.924 282.698 391.948C282.3 391.971 281.908 391.835 281.61 391.57C281.48 391.46 268.72 380.45 243.22 374.42C219.66 368.85 180.09 366.51 125.38 386.99C91.2801 399.76 75.5304 422.29 82.1604 448.81C93.3504 493.58 162.58 536.15 238.47 526.1C318.63 515.49 354.22 530.47 369.96 544.91C384.96 558.67 384.47 573.53 384.44 574.16C384.428 574.541 384.271 574.902 384.002 575.172C383.732 575.441 383.371 575.598 382.99 575.61V575.61Z" fill="black"/>
<path d="M640.58 589.611C640.414 589.608 640.249 589.581 640.09 589.531C639.715 589.399 639.407 589.124 639.235 588.766C639.062 588.408 639.039 587.996 639.17 587.621C645.29 569.911 645.89 556.051 646.52 541.371C647.71 514.071 648.93 485.851 688.81 432.711C695.37 423.961 697.1 416.381 693.94 410.161C681.63 385.931 602.1 386.701 601.3 386.711C589.41 387.451 580.01 385.161 577.41 380.881C576.974 380.198 576.742 379.405 576.742 378.596C576.742 377.786 576.974 376.993 577.41 376.311C580.63 370.961 594.99 368.491 615.82 369.711C616.017 369.722 616.21 369.773 616.387 369.859C616.565 369.945 616.724 370.066 616.854 370.214C616.985 370.361 617.086 370.533 617.15 370.72C617.215 370.906 617.242 371.104 617.23 371.301C617.218 371.498 617.168 371.69 617.082 371.868C616.995 372.045 616.875 372.204 616.727 372.335C616.579 372.466 616.408 372.566 616.221 372.631C616.035 372.695 615.837 372.722 615.64 372.711C590.81 371.261 581.54 375.271 579.98 377.861C579.826 378.075 579.744 378.332 579.744 378.596C579.744 378.859 579.826 379.116 579.98 379.331C581.6 382.001 589.58 384.451 601.19 383.731C604.61 383.681 683.46 382.931 696.61 408.811C700.33 416.131 698.51 424.811 691.21 434.521C651.89 486.921 650.68 514.671 649.52 541.521C648.9 555.771 648.26 570.521 642 588.621C641.896 588.913 641.703 589.165 641.449 589.343C641.194 589.52 640.89 589.614 640.58 589.611V589.611Z" fill="black"/>
<path d="M704.51 472.66L702.59 470.36C734.41 443.89 748.19 421.84 743.54 404.81C737.46 382.5 700.91 376.32 700.54 376.26L701.02 373.26C702.6 373.52 739.84 379.81 746.44 403.97C751.43 422.28 737.32 445.37 704.51 472.66Z" fill="black"/>
<path d="M451.4 543.9C444.823 543.871 438.254 543.437 431.73 542.6C399.65 538.6 374.43 529.78 356.73 516.34C341.54 504.78 332.55 490.13 330.73 473.96C327.8 447.83 344.51 422.06 370.45 412.7L371.45 415.52C346.8 424.42 330.92 448.86 333.69 473.63C335.4 488.96 343.98 502.9 358.51 513.95C375.75 527.07 400.51 535.7 432.03 539.62C466.3 543.88 490.62 537.39 502.38 520.84C515.75 502.03 510.38 474.78 500.88 455.54C490.63 434.77 474.76 420.54 461.39 420.02L461.49 417.02C476.16 417.55 492.68 432.15 503.57 454.21C513.45 474.21 518.96 502.69 504.83 522.58C497.62 532.82 482.54 543.89 451.4 543.9Z" fill="black"/>
<path d="M554.63 426.66C542.45 426.66 527.12 414.35 508.92 399.74L505.86 397.28C485.35 380.84 460.95 397.51 439.43 412.21C435.71 414.75 432.19 417.16 428.73 419.37L427.11 416.85C430.54 414.65 434.04 412.26 437.74 409.73C460.12 394.44 485.49 377.11 507.74 394.94L510.81 397.4C533.94 415.97 552.2 430.64 563.7 420.01L565.7 422.21C562.735 425.086 558.76 426.684 554.63 426.66V426.66Z" fill="black"/>
<path d="M421.93 730.611C421.593 730.61 421.266 730.497 421 730.291C396.69 711.011 399 678.451 399 678.121C399.035 677.725 399.225 677.36 399.529 677.103C399.832 676.847 400.224 676.72 400.62 676.751C400.816 676.766 401.007 676.819 401.182 676.909C401.357 676.998 401.513 677.121 401.64 677.27C401.767 677.42 401.864 677.594 401.924 677.781C401.984 677.968 402.006 678.165 401.99 678.361C401.99 678.671 399.84 709.67 422.87 727.931C423.024 728.053 423.153 728.205 423.249 728.378C423.345 728.55 423.405 728.74 423.428 728.936C423.45 729.132 423.433 729.33 423.379 729.52C423.324 729.709 423.233 729.886 423.11 730.041C422.971 730.221 422.792 730.366 422.587 730.465C422.382 730.564 422.158 730.614 421.93 730.611V730.611Z" fill="black"/>
<path d="M356.85 710.051C346.75 710.051 336.09 706.051 326.6 698.521C311.84 686.821 299.77 666.771 291.69 640.521C276.25 590.401 256.53 574.981 243.22 577.251C230.47 579.431 221.85 597.151 222.73 619.391C222.746 619.789 222.603 620.176 222.333 620.469C222.063 620.761 221.688 620.935 221.29 620.951C220.892 620.967 220.504 620.824 220.212 620.554C219.919 620.284 219.746 619.908 219.73 619.511C218.73 595.361 228.23 576.771 242.73 574.291C261.6 571.071 280.98 595.501 294.58 639.641C310.97 692.861 341.38 711.421 364.25 706.201C377.36 703.201 385.25 692.931 383.51 681.201C383.48 681.004 383.49 680.803 383.538 680.61C383.586 680.416 383.672 680.234 383.79 680.074C383.909 679.914 384.057 679.779 384.228 679.676C384.398 679.573 384.588 679.505 384.785 679.476C384.982 679.446 385.183 679.456 385.376 679.504C385.57 679.552 385.751 679.638 385.911 679.756C386.072 679.874 386.207 680.023 386.309 680.194C386.412 680.364 386.48 680.554 386.51 680.751C388.51 693.881 379.42 705.811 364.95 709.121C362.293 709.731 359.576 710.043 356.85 710.051Z" fill="black"/>
<path d="M452.23 742.92L447.42 737.67C447.905 737.311 448.314 736.859 448.623 736.341C448.932 735.823 449.134 735.248 449.219 734.65C449.304 734.053 449.269 733.445 449.116 732.861C448.963 732.277 448.696 731.729 448.33 731.25C444.26 725.83 435.59 717.56 424.89 726.13C413.99 734.87 420.55 744.66 424.89 749.34C425.65 750.15 426.682 750.652 427.789 750.75C428.896 750.848 429.999 750.534 430.89 749.87L431.25 749.61L436.48 755.32C436.928 755.809 437.552 756.101 438.215 756.13C438.878 756.159 439.526 755.923 440.015 755.475C440.504 755.027 440.795 754.403 440.824 753.74C440.854 753.077 440.618 752.429 440.17 751.94L435.29 746.61L443.29 740.68L448.45 746.32C448.898 746.809 449.522 747.101 450.185 747.13C450.848 747.159 451.495 746.923 451.985 746.475C452.474 746.027 452.766 745.403 452.795 744.74C452.824 744.077 452.588 743.429 452.14 742.94L452.23 742.92Z" fill="black"/>
<path d="M640.57 587.68C622.39 581.57 620.38 604.29 620.38 604.29L624.12 605.71L622 613.81C621.832 614.453 621.927 615.136 622.263 615.71C622.598 616.284 623.147 616.701 623.79 616.87C623.996 616.921 624.208 616.948 624.42 616.95C624.973 616.947 625.509 616.762 625.946 616.424C626.384 616.086 626.698 615.614 626.84 615.08L628.84 607.49L637.08 610.62L635.21 617.75C635.042 618.391 635.136 619.071 635.469 619.643C635.803 620.215 636.35 620.631 636.99 620.8C637.199 620.856 637.414 620.882 637.63 620.88C638.183 620.881 638.72 620.698 639.157 620.359C639.593 620.021 639.904 619.546 640.04 619.01L641.78 612.4L647.09 614.4C647.09 614.4 658.76 593.79 640.57 587.68Z" fill="black"/>
<path d="M109.2 709.27H109.07C59.9702 704.99 27.4002 680.71 27.0702 680.46C26.9133 680.34 26.7813 680.191 26.6821 680.021C26.5828 679.85 26.5181 679.662 26.4916 679.466C26.4652 679.271 26.4774 679.072 26.5278 678.881C26.5781 678.691 26.6656 678.512 26.7851 678.355C26.9046 678.198 27.0536 678.066 27.224 677.967C27.3945 677.867 27.5833 677.803 27.7787 677.776C27.9742 677.75 28.1725 677.762 28.3632 677.813C28.5539 677.863 28.7331 677.95 28.8901 678.07C29.2001 678.31 61.13 702.07 109.33 706.28C109.728 706.297 110.102 706.472 110.372 706.765C110.641 707.059 110.782 707.447 110.765 707.845C110.748 708.243 110.573 708.617 110.28 708.886C109.986 709.155 109.598 709.297 109.2 709.28V709.27Z" fill="black"/>
<path d="M462.37 196.61C461.871 196.611 461.39 196.426 461.02 196.09C460.825 195.913 460.668 195.699 460.556 195.461C460.444 195.223 460.38 194.965 460.368 194.702C460.356 194.439 460.396 194.176 460.485 193.929C460.575 193.682 460.713 193.454 460.89 193.26L482.89 169.26C483.066 169.06 483.279 168.897 483.519 168.78C483.758 168.663 484.018 168.596 484.284 168.581C484.55 168.567 484.816 168.605 485.067 168.695C485.318 168.784 485.548 168.923 485.745 169.103C485.941 169.283 486.1 169.5 486.211 169.742C486.322 169.984 486.384 170.245 486.393 170.511C486.402 170.778 486.358 171.043 486.263 171.292C486.168 171.54 486.024 171.768 485.84 171.96L463.84 195.96C463.654 196.164 463.427 196.327 463.173 196.439C462.92 196.551 462.647 196.609 462.37 196.61V196.61Z" fill="#1D1D1B"/>
<path d="M473.35 210.61C472.869 210.61 472.403 210.437 472.04 210.121C471.676 209.806 471.438 209.37 471.37 208.893C471.302 208.417 471.408 207.931 471.669 207.527C471.93 207.122 472.328 206.825 472.79 206.69L496.79 199.69C497.042 199.617 497.306 199.594 497.567 199.622C497.829 199.651 498.081 199.73 498.312 199.857C498.542 199.983 498.745 200.153 498.91 200.358C499.074 200.563 499.197 200.798 499.27 201.05C499.344 201.302 499.367 201.567 499.338 201.828C499.31 202.089 499.23 202.342 499.104 202.572C498.977 202.802 498.807 203.005 498.602 203.17C498.397 203.334 498.162 203.457 497.91 203.53L473.91 210.53C473.728 210.581 473.539 210.608 473.35 210.61Z" fill="#1D1D1B"/>
<path d="M277.66 196.61C277.215 196.611 276.782 196.463 276.43 196.19L245.48 172.19C245.077 171.86 244.819 171.385 244.761 170.868C244.702 170.35 244.848 169.83 245.167 169.418C245.487 169.006 245.954 168.735 246.47 168.663C246.986 168.591 247.51 168.722 247.93 169.03L278.88 193.03C279.088 193.191 279.263 193.391 279.394 193.619C279.525 193.847 279.61 194.099 279.643 194.36C279.677 194.621 279.658 194.887 279.589 195.14C279.52 195.394 279.401 195.632 279.24 195.84C279.053 196.08 278.813 196.275 278.539 196.408C278.265 196.541 277.965 196.611 277.66 196.61Z" fill="#1D1D1B"/>
<path d="M270.67 210.61H270.39L242.39 206.61C242.127 206.573 241.875 206.484 241.646 206.349C241.418 206.214 241.219 206.035 241.059 205.823C240.9 205.611 240.784 205.369 240.718 205.112C240.652 204.855 240.638 204.588 240.675 204.325C240.712 204.062 240.801 203.81 240.936 203.581C241.071 203.353 241.25 203.154 241.462 202.994C241.674 202.835 241.916 202.719 242.173 202.653C242.43 202.587 242.697 202.573 242.96 202.61L270.96 206.61C271.49 206.647 271.984 206.893 272.333 207.295C272.682 207.696 272.857 208.22 272.82 208.75C272.783 209.281 272.536 209.774 272.135 210.123C271.734 210.472 271.21 210.647 270.68 210.61H270.67Z" fill="#1D1D1B"/>
<path d="M126.45 676.26C96.0502 676.26 66.4503 665.42 45.7203 655.42C29.8458 647.831 14.7307 638.747 0.58013 628.29C0.265848 628.046 0.0614674 627.687 0.0117702 627.292C-0.0379269 626.897 0.0709937 626.499 0.314993 626.185C0.558992 625.87 0.917787 625.666 1.31255 625.616C1.70732 625.567 2.10569 625.676 2.41997 625.92C3.13997 626.48 75.2003 681.82 142.8 672.12C142.997 672.091 143.198 672.102 143.391 672.152C143.583 672.201 143.765 672.288 143.924 672.407C144.083 672.526 144.217 672.676 144.319 672.847C144.42 673.018 144.487 673.208 144.515 673.405C144.543 673.602 144.533 673.802 144.483 673.995C144.434 674.188 144.347 674.369 144.228 674.528C144.109 674.688 143.959 674.822 143.788 674.923C143.616 675.025 143.427 675.091 143.23 675.12C137.671 675.897 132.064 676.278 126.45 676.26Z" fill="black"/>
<path d="M663.67 677.61H663.51L663.59 674.61C665.09 674.61 700.65 675.07 715.06 636.61L717.85 637.61C703.2 676.82 666.46 677.61 663.67 677.61Z" fill="black"/>
<path d="M612.35 807.61H143.35C142.952 807.61 142.571 807.452 142.29 807.171C142.008 806.89 141.85 806.508 141.85 806.11C141.85 805.713 142.008 805.331 142.29 805.05C142.571 804.768 142.952 804.61 143.35 804.61H612.35C612.748 804.61 613.129 804.768 613.411 805.05C613.692 805.331 613.85 805.713 613.85 806.11C613.85 806.508 613.692 806.89 613.411 807.171C613.129 807.452 612.748 807.61 612.35 807.61V807.61Z" fill="black"/>
<path d="M665.35 829.61H581.35C580.952 829.61 580.571 829.452 580.29 829.171C580.008 828.89 579.85 828.508 579.85 828.11C579.85 827.713 580.008 827.331 580.29 827.05C580.571 826.768 580.952 826.61 581.35 826.61H665.35C665.748 826.61 666.129 826.768 666.411 827.05C666.692 827.331 666.85 827.713 666.85 828.11C666.85 828.508 666.692 828.89 666.411 829.171C666.129 829.452 665.748 829.61 665.35 829.61Z" fill="black"/>
<path d="M167.35 829.61H68.3501C67.9523 829.61 67.5709 829.452 67.2896 829.171C67.0082 828.89 66.8501 828.508 66.8501 828.11C66.8501 827.713 67.0082 827.331 67.2896 827.05C67.5709 826.768 67.9523 826.61 68.3501 826.61H167.35C167.748 826.61 168.129 826.768 168.411 827.05C168.692 827.331 168.85 827.713 168.85 828.11C168.85 828.508 168.692 828.89 168.411 829.171C168.129 829.452 167.748 829.61 167.35 829.61Z" fill="black"/>
</svg>
