<svg width="572" height="572" viewBox="0 0 572 572" fill="none" xmlns="http://www.w3.org/2000/svg">
<path d="M286 566.979C441.198 566.979 567.01 441.167 567.01 285.97C567.01 130.772 441.198 4.95996 286 4.95996C130.803 4.95996 4.99023 130.772 4.99023 285.97C4.99023 441.167 130.803 566.979 286 566.979Z" fill="#00D7AD"/>
<path d="M286 572C128.28 572 0 443.68 0 286C0 128.32 128.31 0 286 0C443.69 0 572 128.31 572 286C572 443.69 443.72 572 286 572ZM286 10C133.81 10 10 133.81 10 286C10 438.19 133.81 562 286 562C438.19 562 562 438.19 562 286C562 133.81 438.18 9.96973 286 9.96973V10Z" fill="#1D1D1B"/>
<path d="M523.52 285.97C523.52 417.15 417.18 523.49 286 523.49Z" fill="#00D7AD"/>
<path d="M286 528.51C284.674 528.51 283.402 527.984 282.464 527.046C281.527 526.108 281 524.836 281 523.51C281 522.184 281.527 520.912 282.464 519.975C283.402 519.037 284.674 518.51 286 518.51C414.2 518.51 518.5 414.21 518.5 286.01C518.5 284.684 519.027 283.412 519.964 282.475C520.902 281.537 522.174 281.01 523.5 281.01C524.826 281.01 526.097 281.537 527.035 282.475C527.973 283.412 528.5 284.684 528.5 286.01C528.59 419.7 419.73 528.51 286 528.51Z" fill="#1D1D1B"/>
<path d="M48.4805 285.97C48.4805 154.79 154.82 48.4395 286 48.4395Z" fill="#00D7AD"/>
<path d="M48.4805 290.979C47.1544 290.979 45.8825 290.453 44.9448 289.516C44.0071 288.578 43.4805 287.306 43.4805 285.979C43.4805 152.239 152.281 43.4395 286.021 43.4395C287.347 43.4395 288.618 43.9666 289.556 44.9043C290.493 45.842 291.021 47.1134 291.021 48.4395C291.021 49.7655 290.493 51.0379 289.556 51.9756C288.618 52.9133 287.347 53.4395 286.021 53.4395C157.811 53.4395 53.5103 157.74 53.5103 285.95C53.5142 286.612 53.3871 287.268 53.1357 287.88C52.8844 288.492 52.5138 289.048 52.0459 289.516C51.578 289.983 51.0222 290.354 50.4102 290.605C49.7981 290.857 49.1421 290.983 48.4805 290.979V290.979Z" fill="#1D1D1B"/>
<path d="M279.009 438.17H278.589C263.859 438.04 250.489 430.8 244.049 419.47L149.119 252.26C139.749 235.77 147.799 215.911 167.119 207.901C186.439 199.891 209.649 206.78 219.019 223.27L279.919 330.53L376.769 168.53C386.529 152.21 409.929 145.74 429.029 154.08C448.129 162.42 455.699 182.42 445.939 198.75L313.589 420.09C306.949 431.17 293.589 438.17 279.009 438.17Z" fill="white"/>
<path d="M279.009 443.17H278.479C261.949 443.03 247.059 434.889 239.699 421.939L144.759 254.729C142.33 250.541 140.83 245.879 140.363 241.06C139.895 236.24 140.47 231.377 142.049 226.8C145.589 216.47 154.049 207.89 165.189 203.26C186.709 194.33 212.809 202.19 223.369 220.78L280.02 320.55L372.459 165.979C383.459 147.589 409.729 140.2 431.029 149.5C442.029 154.32 450.269 163.02 453.589 173.37C455.083 178.003 455.557 182.903 454.979 187.736C454.401 192.569 452.784 197.221 450.239 201.37L317.899 422.68C310.329 435.33 295.419 443.17 279.009 443.17ZM184.109 209.54C178.934 209.54 173.81 210.559 169.029 212.54C160.529 216.06 154.15 222.45 151.54 230.06C150.431 233.294 150.032 236.729 150.368 240.132C150.705 243.534 151.769 246.825 153.489 249.78L248.429 416.99C253.939 426.69 265.799 432.99 278.649 433.15L279.009 438.15V433.15C291.909 433.15 303.509 427.15 309.279 417.51L441.589 196.17C443.391 193.244 444.54 189.964 444.956 186.554C445.372 183.143 445.045 179.683 443.999 176.41C441.559 168.8 435.359 162.34 426.999 158.68C410.169 151.32 389.56 156.9 381.06 171.11L284.199 333.11C283.752 333.868 283.114 334.493 282.348 334.925C281.581 335.356 280.715 335.578 279.835 335.568C278.956 335.558 278.095 335.316 277.339 334.867C276.583 334.418 275.959 333.777 275.529 333.01L214.639 225.75C208.829 215.52 196.739 209.57 184.109 209.57V209.54Z" fill="#1D1D1B"/>
<path d="M520.16 257.53C518.104 257.526 516.122 256.765 514.592 255.392C513.061 254.02 512.089 252.133 511.86 250.09C503.86 178.16 469.68 123.82 410.24 88.58C365.44 62.02 322.24 56.7999 321.85 56.7499C319.646 56.4993 317.632 55.383 316.251 53.6473C314.87 51.9117 314.235 49.6989 314.485 47.495C314.736 45.2911 315.852 43.2766 317.587 41.8954C319.323 40.5142 321.536 39.8791 323.74 40.1298C325.62 40.3498 370.38 45.6802 418.2 73.8602C462.58 100.01 517.74 151.49 528.49 248.24C528.734 250.445 528.094 252.657 526.708 254.39C525.322 256.122 523.305 257.233 521.1 257.479C520.78 257.509 520.47 257.53 520.16 257.53Z" fill="white"/>
</svg>
